<svg id="Layer_1" data-name="Layer 1" xmlns="http://www.w3.org/2000/svg" viewBox="0 0 400 300"><path d="M121.57,43.33C91.18,55.46,68.64,86.22,64.19,123.42c-3.75,31.35,5.21,66,57.89,75.87C224.6,218.49,320.62,224,345.13,172.15s17-140.58-35.05-146.32C268.71,21.26,180.93,19.64,121.57,43.33Z" fill="#e6e6e6" opacity="0.3"/><circle cx="295.9" cy="67.07" r="20.24" fill="#ffd200"/><circle cx="295.9" cy="67.07" r="31.64" fill="#ffd200" opacity="0.15"/><path d="M216,53.69a9.44,9.44,0,0,0-11-9.35,12.77,12.77,0,0,0-11.26-6.73l-.47,0a15.39,15.39,0,0,0,.47-3.68,15.18,15.18,0,0,0-30.35,0,15.39,15.39,0,0,0,.47,3.68l-.47,0a12.78,12.78,0,0,0,0,25.56H207.8v-.09A9.47,9.47,0,0,0,216,53.69Z" fill="#efefef"/><path d="M93.8,103.16A6.21,6.21,0,0,0,87.6,97a6.64,6.64,0,0,0-1,.09,8.35,8.35,0,0,0-7.36-4.4l-.3,0a10.07,10.07,0,0,0,.3-2.41,9.92,9.92,0,0,0-19.84,0,10.07,10.07,0,0,0,.31,2.41l-.31,0a8.36,8.36,0,0,0,0,16.71h29v0A6.21,6.21,0,0,0,93.8,103.16Z" fill="#dddbdb"/><path d="M378.84,136.46a6.63,6.63,0,0,0-6.62-6.62,7.47,7.47,0,0,0-1.07.09,8.93,8.93,0,0,0-7.86-4.7l-.33,0a10.34,10.34,0,0,0,.33-2.57,10.6,10.6,0,0,0-21.19,0,10.34,10.34,0,0,0,.33,2.57l-.33,0a8.93,8.93,0,0,0,0,17.86h31V143A6.61,6.61,0,0,0,378.84,136.46Z" fill="#e5e5e5"/><ellipse cx="205.68" cy="245.79" rx="150.78" ry="13.26" fill="#e6e6e6" opacity="0.3"/><path d="M287.08,163.74l10.83-.68s9.87-31.24-16.68-53.84-6.8,31.07-38.73,37.75Z" fill="#5bc7d9"/><path d="M132.26,160.85s-10.5-7.85-28.84-.94l47.37,41.73S158.81,180.08,132.26,160.85Z" fill="#5bc7d9"/><path d="M132.26,160.85s-10.5-7.85-28.84-.94l47.37,41.73S158.81,180.08,132.26,160.85Z" fill="#fff" opacity="0.46"/><path d="M113.68,140.26,80.5,136l-2.29,11,23,3.06A55.7,55.7,0,0,1,129,162h0c4.57,3.71,9.14,11.3,14.71,13.17l40.71,8.68,1.91-14.94Z" fill="#fff" opacity="0.46"/><circle cx="110.28" cy="206.75" r="37.86" fill="#24285b"/><circle cx="110.28" cy="206.75" r="22.92" fill="#fff" opacity="0.09"/><circle cx="110.66" cy="206.75" r="12.85" fill="#fff"/><path d="M113.68,140.26,80.5,136l-2.29,11,23,3.06A55.7,55.7,0,0,1,129,162h0c4.57,3.71,9.14,11.3,14.71,13.17l40.71,8.68,1.91-14.94Z" fill="#5bc7d9"/><path d="M113.68,140.26,80.5,136l-2.29,11,23,3.06A55.7,55.7,0,0,1,129,162h0c4.57,3.71,9.14,11.3,14.71,13.17l40.71,8.68,1.91-14.94Z" opacity="0.15"/><path d="M141.85,182.3l4.37,12.51,33.21,24.8,12.68-28.28-4.27-21.15-32.5-4.39A12.51,12.51,0,0,0,141.85,182.3Z" fill="#24285b"/><path d="M175.67,209.63S152.84,187.56,122.53,182a9.17,9.17,0,0,0-10.67,7.47h0A9.17,9.17,0,0,0,119.05,200c12.29,2.54,35.1,9,52.36,24.31Z" fill="#5bc7d9"/><path d="M175.67,209.63S152.84,187.56,122.53,182a9.17,9.17,0,0,0-10.67,7.47h0A9.17,9.17,0,0,0,119.05,200c12.29,2.54,35.1,9,52.36,24.31Z" fill="#fff" opacity="0.46"/><path d="M144.17,140.26s4.52-15.25-13.53-18.12a143.82,143.82,0,0,0-24.77-1.43,5.5,5.5,0,0,0-3.57,9.57c10.12,9.2,26.09,22.91,36.08,27.5,15.52,7.14,53.94,22.26,45.31,39.76s-24.53,24.8-22.32,33.57c1.67,6.64,49.42,6.65,72.61,6.27a13.4,13.4,0,0,0,13.09-12c2-17.58,9.3-49.82,36.92-59.28a4.61,4.61,0,0,0,.75-8.37l-26.37-15s-60.52-28.34-75.94,9.89Z" fill="#5bc7d9"/><path d="M143.59,134s-11.06,4.62-3.65,15.08c4.24,6,21.11,10.65,34.77,13.54a25.61,25.61,0,0,0,27.6-12.43l9.87-17.44s-26.74-.92-31.46,11.4S162.18,131.43,143.59,134Z" fill="#24285b"/><circle cx="297.41" cy="206.75" r="37.86" fill="#24285b"/><circle cx="297.41" cy="206.75" r="22.92" fill="#fff" opacity="0.09"/><circle cx="297.41" cy="206.75" r="12.85" fill="#fff"/><path d="M297.41,211.75a5,5,0,0,1-4.29-2.43l-27.52-45.9a5,5,0,1,1,8.58-5.14l27.51,45.9a5,5,0,0,1-4.28,7.57Z" fill="#5bc7d9"/><path d="M297.41,211.75a5,5,0,0,1-4.29-2.43l-27.52-45.9a5,5,0,1,1,8.58-5.14l27.51,45.9a5,5,0,0,1-4.28,7.57Z" fill="#fff" opacity="0.46"/><path d="M195,201.15l-.52.72a12.13,12.13,0,0,0,9.4,19.27l22.57.74A12.14,12.14,0,0,0,238.52,213h0a12.13,12.13,0,0,0-10.89-15.34l-22-1.46A12.14,12.14,0,0,0,195,201.15Z" fill="#5bc7d9"/><path d="M195,201.15l-.52.72a12.13,12.13,0,0,0,9.4,19.27l22.57.74A12.14,12.14,0,0,0,238.52,213h0a12.13,12.13,0,0,0-10.89-15.34l-22-1.46A12.14,12.14,0,0,0,195,201.15Z" opacity="0.15"/><circle cx="255.05" cy="138.88" r="9.21" fill="#24285b"/><path d="M231.24,150.32a19.87,19.87,0,0,0-19.74,7.31c-2.41,3.22-3.73,7.14-1.4,11.26,3.78,6.69,16.27,11.72,24.59,14.42a13.46,13.46,0,0,0,13.41-3l7.37-6.94a7.52,7.52,0,0,0-.39-11.3C249.85,157.75,241.55,152.34,231.24,150.32Z" opacity="0.03"/><path d="M288.82,117.05S268,136.81,299.48,154.17C299.48,154.17,302.41,133.38,288.82,117.05Z" fill="#fff" opacity="0.69"/></svg>