<svg height="682pt" viewBox="-21 -21 682 682.66681" width="682pt" xmlns="http://www.w3.org/2000/svg"><path d="m630.957031 240.414062h-115c-5.179687 0-9.375 4.195313-9.375 9.375v53.335938h-70v-53.335938c0-5.179687-4.191406-9.375-9.375-9.375h-115c-5.175781 0-9.375 4.195313-9.375 9.375v110.773438l-114.0625 116.953125h-15.421875l-30.382812-255.902344c-.5625-4.71875-4.554688-8.273437-9.3125-8.273437h-22.070313v-30.953125c15.234375-.828125 43.765625-5.117188 63.023438-24.617188 26.792969-27.128906 23.925781-71.867187 23.789062-73.753906-.335937-4.699219-4.101562-8.414063-8.796875-8.691406-1.171875-.066407-18.722656-.96875-38.28125 4.75-5.855468-43.578125-43.035156-76.304688-44.738281-77.785157-3.558594-3.085937-8.847656-3.046874-12.367187.078126-1.828126 1.621093-44.730469 40.3125-44.429688 89.234374.269531 42.789063 33.492188 77.339844 43.050781 86.402344v35.339844h-24.054687c-4.753906 0-8.75 3.550781-9.308594 8.269531l-10.660156 89.785157c-1.417969 11.953124 17.199218 14.183593 18.621094 2.210937l2.382812-20.070313h62.8125l21.839844 183.976563h-106.496094l14.117188-118.90625c1.417968-11.96875-17.175782-14.359375-18.621094-2.210937l-14.375 121.117187h-19.382813c-5.175781 0-9.375 4.199219-9.375 9.375v143.734375c0 5.179688 4.199219 9.375 9.375 9.375h621.25c5.183594 0 9.375-4.195312 9.375-9.375v-95.625c0-12.035156-18.75-12.054688-18.75 0v86.25h-602.5v-124.984375h173.644531c2.523438 0 4.945313-1.019531 6.707032-2.828125l119.484375-122.519531c1.707031-1.746094 2.664062-4.097657 2.664062-6.542969v-105.210938h96.25v105.210938c0 5.179688 4.195313 9.375 9.375 9.375h88.75c5.183594 0 9.375-4.195312 9.375-9.375v-105.210938h96.25v227.085938c0 12.035156 18.75 12.054688 18.75 0v-236.460938c0-5.175781-4.191406-9.375-9.375-9.375zm-194.375 81.460938h70v33.125h-70zm-311.253906-89.785156 5.070313 42.699218h-58.367188l5.074219-42.699218zm54.328125-137.898438c-.601562 12.550782-3.800781 35.632813-18.390625 50.402344-14.597656 14.785156-37.65625 18.269531-50.191406 19.019531.171875-3.601562.5625-8.089843 1.386719-13.042969 1.84375-11.042968 6.289062-26.492187 17.023437-37.363281 14.589844-14.773437 37.632813-18.261719 50.171875-19.015625zm-63.511719 5.84375c-14.820312 15.003906-20.558593 35.386719-22.710937 50.933594-11.117188-13.710938-24.75-35.398438-24.902344-59.484375-.191406-30.257813 21.152344-57.191406 31.988281-68.90625 10.535157 11.109375 30.894531 36.097656 32.703125 64.824219-6.066406 3.265625-11.914062 7.398437-17.078125 12.632812zm0 0"/><path d="m381.855469 430.996094h-40.019531c-5.175782 0-9.375 4.195312-9.375 9.375v123.578125c0 5.183593 4.199218 9.375 9.375 9.375h40.019531c5.183593 0 9.375-4.191407 9.375-9.375v-123.578125c0-5.175782-4.199219-9.375-9.375-9.375zm-9.375 123.578125h-21.269531v-104.828125h21.269531zm0 0"/><path d="m475.613281 430.996094h-40.019531c-5.175781 0-9.375 4.195312-9.375 9.375v123.578125c0 5.183593 4.199219 9.375 9.375 9.375h40.019531c5.175781 0 9.375-4.191407 9.375-9.375v-123.578125c0-5.175782-4.199219-9.375-9.375-9.375zm-9.375 123.578125h-21.269531v-104.828125h21.269531zm0 0"/><path d="m569.367188 430.996094h-40.019532c-5.175781 0-9.375 4.195312-9.375 9.375v123.578125c0 5.183593 4.199219 9.375 9.375 9.375h40.019532c5.175781 0 9.375-4.191407 9.375-9.375v-123.578125c0-5.175782-4.199219-9.375-9.375-9.375zm-9.375 123.578125h-21.269532v-104.828125h21.269532zm0 0"/><path d="m274.707031 555h-212.5c-5.175781 0-9.375 4.195312-9.375 9.375s4.199219 9.375 9.375 9.375h212.5c5.175781 0 9.375-4.195312 9.375-9.375s-4.199219-9.375-9.375-9.375zm0 0"/><path d="m592.480469 45.1875c-1.660157.703125-3.027344.488281-4.105469-.640625-8.988281-26.644531-33.578125-44.546875-61.179688-44.546875-32.949218 0-60.230468 25.273438-64.214843 57.832031-14.941407 3.335938-27.726563 13.890625-33.847657 28.527344-5.335937 12.734375 4.496094 27.1875 18.199219 27.1875h100.5c12.050781 0 12.234375-18.75 0-18.75h-100.5c-.734375-.109375-1.03125-.507813-.90625-1.203125 4.449219-10.625 14.550781-17.734375 25.75-18.113281 5.046875-.171875 9.050781-4.316407 9.050781-9.371094 0-.042969 0-.09375 0-.136719.054688-26.050781 20.65625-47.222656 45.96875-47.222656 19.554688 0 37 12.773438 43.410157 31.789062 3.351562 9.914063 12.265625 13.398438 21.871093 13.398438 16.050782 0 29.105469 13.476562 29.105469 30.125 0 .375-.453125.734375-.929687.734375h-20.320313c-12.050781 0-12.230469 18.75 0 18.75h20.324219c10.820312 0 19.648438-8.71875 19.675781-19.433594 0-.011719 0-.125 0-.128906 0-26.910156-21.46875-48.796875-47.851562-48.796875zm0 0"/><path d="m231.082031 202.5h173.324219c10.78125 0 19.511719-8.890625 19.675781-19.558594 0-26.910156-21.46875-48.804687-47.851562-48.804687-1.652344.703125-3.019531.492187-4.105469-.636719-8.988281-26.644531-33.574219-44.542969-61.179688-44.542969-32.949218 0-60.230468 25.273438-64.214843 57.832031-14.9375 3.332032-27.726563 13.890626-33.847657 28.523438-5.332031 12.734375 4.496094 27.1875 18.199219 27.1875zm174.25-19.480469c0 .375-.453125.730469-.925781.730469h-173.324219c-.730469-.105469-1.03125-.507812-.90625-1.199219 4.449219-10.625 14.558594-17.734375 25.742188-18.117187 5.054687-.171875 9.058593-4.316406 9.058593-9.371094 0-.027344 0-.0625 0-.097656.035157-26.0625 20.644532-47.257813 45.96875-47.257813 19.554688 0 37 12.773438 43.417969 31.789063 3.347657 9.929687 12.253907 13.390625 21.867188 13.390625 16.050781 0 29.101562 13.480469 29.101562 30.054687zm0 0"/></svg>