<?xml version="1.0" encoding="iso-8859-1"?>
<!-- Generator: Adobe Illustrator 19.0.0, SVG Export Plug-In . SVG Version: 6.00 Build 0)  -->
<svg version="1.1" id="Capa_1" xmlns="http://www.w3.org/2000/svg" xmlns:xlink="http://www.w3.org/1999/xlink" x="0px" y="0px"
	 viewBox="0 0 479.998 479.998" style="enable-background:new 0 0 479.998 479.998;" xml:space="preserve">
<g>
	<g>
		<path d="M384,275.992c-13.255,0-24,10.745-24,24s10.745,24,24,24s24-10.745,24-24S397.255,275.992,384,275.992z M384,307.992
			c-4.418,0-8-3.582-8-8s3.582-8,8-8s8,3.582,8,8S388.418,307.992,384,307.992z"/>
	</g>
</g>
<g>
	<g>
		<path d="M96,275.992c-13.255,0-24,10.745-24,24s10.745,24,24,24s24-10.745,24-24S109.255,275.992,96,275.992z M96,307.992
			c-4.418,0-8-3.582-8-8s3.582-8,8-8s8,3.582,8,8S100.418,307.992,96,307.992z"/>
	</g>
</g>
<g>
	<g>
		<path d="M476.8,261.592l-64-48c-1.385-1.039-3.069-1.6-4.8-1.6h-62.456l-78.576-31.432c-0.944-0.376-1.952-0.569-2.968-0.568h-64
			c-0.538-0.005-1.074,0.049-1.6,0.16l-79.8,15.952l-64.64,9.24l-10.144-25.352H56c4.418,0,8-3.582,8-8v-32
			c-0.002-3.911-2.83-7.247-6.688-7.888l-48-8c-4.358-0.725-8.479,2.221-9.204,6.58C0.036,131.116,0,131.553,0,131.992v40
			c0,4.418,3.582,8,8,8h18.584l11.072,27.68l-30.792,4.4c-3.94,0.565-6.865,3.94-6.864,7.92v96c0,4.418,3.582,8,8,8h37.48
			c13.189,27.901,46.5,39.828,74.401,26.639c11.695-5.529,21.11-14.944,26.639-26.639h186.96
			c13.189,27.901,46.5,39.828,74.401,26.639c11.695-5.529,21.11-14.944,26.639-26.639H464c3.908-0.001,7.243-2.826,7.888-6.68l8-48
			C480.382,266.364,479.191,263.386,476.8,261.592z M216,195.992h46.464l64.976,25.992l-42,30.008H216V195.992z M200,196.152v55.84
			h-12.992l-49.536-43.336L200,196.152z M16,163.992V141.44l32,5.328v17.224H16z M96,339.992c-22.08-0.026-39.974-17.92-40-40
			c0-22.091,17.909-40,40-40s40,17.909,40,40C136,322.083,118.091,339.992,96,339.992z M384,339.992
			c-22.08-0.026-39.974-17.92-40-40c0-22.091,17.909-40,40-40c22.091,0,40,17.909,40,40C424,322.083,406.091,339.992,384,339.992z
			 M457.224,307.992H439.36c4.662-30.575-16.343-59.14-46.918-63.802c-30.575-4.662-59.14,16.343-63.802,46.918
			c-0.853,5.596-0.853,11.289,0,16.884H151.36c4.663-30.575-16.343-59.14-46.918-63.802c-30.575-4.662-59.14,16.343-63.802,46.918
			c-0.853,5.596-0.853,11.289,0,16.884H16v-48h16v-16H16v-17.064l101.496-14.496l61.24,53.6c1.46,1.268,3.33,1.964,5.264,1.96h104
			c1.667,0,3.292-0.52,4.648-1.488l53.912-38.512h58.776l57.976,43.48L457.224,307.992z"/>
	</g>
</g>
<g>
</g>
<g>
</g>
<g>
</g>
<g>
</g>
<g>
</g>
<g>
</g>
<g>
</g>
<g>
</g>
<g>
</g>
<g>
</g>
<g>
</g>
<g>
</g>
<g>
</g>
<g>
</g>
<g>
</g>
</svg>
