<svg height="512" viewBox="0 0 64 64" width="512" xmlns="http://www.w3.org/2000/svg"><g id="Layer_11" data-name="Layer 11"><path d="m47 43h2v2h-2z"/><path d="m43 43h2v2h-2z"/><path d="m39 43h2v2h-2z"/><path d="m60 1h-28a3 3 0 0 0 -3 3v5h-23a5 5 0 0 0 -5 5v30a5 5 0 0 0 5 5h14v6h-2a5 5 0 0 0 -5 5v2a1 1 0 0 0 1 1h26a1 1 0 0 0 1-1v-2a5 5 0 0 0 -5-5h-2v-6h14a5 5 0 0 0 5-5v-15h7a3 3 0 0 0 3-3v-22a3 3 0 0 0 -3-3zm-41 22a1 1 0 0 1 0-2h23.84l3 1-3 1zm20 37v1h-24v-1a3 3 0 0 1 3-3h18a3 3 0 0 1 3 3zm-7-5h-10v-6h10zm16-8h-42a3 3 0 0 1 -3-3v-3h48v3a3 3 0 0 1 -3 3zm3-8h-48v-25a3 3 0 0 1 3-3h23v8h-10a3 3 0 0 0 0 6h10v1a3 3 0 0 0 3 3h19zm10-13a1 1 0 0 1 -1 1h-28a1 1 0 0 1 -1-1v-1h12a1.19 1.19 0 0 0 .32-.05l6-2a1 1 0 0 0 0-1.9l-6-2a1.19 1.19 0 0 0 -.32-.05h-12v-15a1 1 0 0 1 1-1h28a1 1 0 0 1 1 1z"/><path d="m56 5h-20a3 3 0 0 0 0 6h20a3 3 0 0 0 0-6zm-9 2h4v2h-4zm-2 2h-4v-2h4zm-10-1a1 1 0 0 1 1-1h3v2h-3a1 1 0 0 1 -1-1zm21 1h-3v-2h3a1 1 0 0 1 0 2z"/></g></svg>