<?xml version="1.0" encoding="utf-8"?>
<svg version="1.1" id="Layer_1" xmlns="http://www.w3.org/2000/svg" xmlns:xlink="http://www.w3.org/1999/xlink" x="0px" y="0px"
	 viewBox="0 0 512 512" style="enable-background:new 0 0 512 512;" xml:space="preserve">
<linearGradient xmlns="http://www.w3.org/2000/svg" id="bombilla" gradientUnits="userSpaceOnUse" x1="26" x2="26" y1="520" y2="0">
	<stop offset="0" stop-color="#112F36"/>
	<stop offset="1" stop-color="#65D1F1"/>
  </linearGradient>
  <linearGradient id="carvata" gradientUnits="userSpaceOnUse" x1="256" x2="256" y1="512" y2="0">
    <stop offset="0" stop-color="#65D1F1"/>
	<stop offset="1" stop-color="#112F36"/>
  </linearGradient>
  <linearGradient id="carvata2" gradientUnits="userSpaceOnUse" x1="256" x2="256" y1="512" y2="0">
    <stop offset="0" stop-color="#D7DFDE"/>
	<stop offset="1" stop-color="#056B83"/>
  </linearGradient>
 <linearGradient id="software" gradientUnits="userSpaceOnUse" x1="44" x2="80" y1="220" y2="0">
    <stop offset="0" stop-color="#0EA9EC"/>
		<stop offset="1" stop-color="#EC110E"/>
  </linearGradient>
  <style type="text/css">
	.st0{font-family:'FrenchScriptMT';}
	.st1{font-size:40.5295px;}
	.st2{font-family:'FranklinGothic-Book';}
	.st3{font-size:36px;}
</style>
<g>
	<g>
		<path fill="url(#bombilla)"  d="M330.9,53.6c-1.5-2.1-4.4-2.6-6.5-1c-2.1,1.5-2.6,4.4-1,6.5c11.8,16.3,18.1,35.7,18.1,55.9c0,19.5-5.8,38.5-16.6,55.2
			c-16.1,24.7-26.8,42.8-29.2,69c-0.3,3.1-2.5,5.6-5.3,6.5c-0.2,0-0.3,0.1-0.6,0.2c-0.4,0.1-0.9,0.2-1.4,0.2H204
			c-0.5,0-0.9-0.1-1.4-0.2c-0.2-0.1-0.3-0.1-0.6-0.2c-2.9-0.8-5-3.3-5.3-6.5c-2.5-26.3-13.2-44.4-29.2-69
			c-10.9-16.7-16.6-35.7-16.6-55.2c0-52.5,42.8-95.4,95.4-95.4c24.2,0,47.4,9.1,65.1,25.7c1.9,1.8,4.8,1.7,6.6-0.3
			c1.8-1.9,1.7-4.8-0.3-6.6c-19.5-18.2-44.9-28.2-71.5-28.2c-57.7,0-104.8,47-104.8,104.8c0,21.3,6.3,42.1,18.1,60.3
			c15.3,23.5,25.5,40.6,27.8,64.8c0.6,6,4.2,11,9.2,13.4v44.1c0,5.9,3.7,10.8,8.8,12.8c0.4,11.5,9.9,20.7,21.5,20.7h38.6
			c11.6,0,21.1-9.2,21.5-20.7c5.2-2,8.8-7,8.8-12.8v-44.1c5-2.6,8.6-7.5,9.2-13.4c2.3-24.1,12.5-41.3,27.8-64.8
			c11.9-18.2,18.1-39,18.1-60.3C350.8,92.8,343.9,71.6,330.9,53.6z M235.2,273.6h51.1v8.6h-80.5v-8.6h10.6c2.6,0,4.7-2.1,4.7-4.7
			c0-2.6-2.1-4.7-4.7-4.7h-10.6v-8.8h80.5v8.8h-51.1c-2.6,0-4.7,2.1-4.7,4.7C230.5,271.5,232.6,273.6,235.2,273.6z M282.3,301.9
			C282.2,301.9,282.2,301.9,282.3,301.9c-0.1,0-0.1,0-0.2,0s-0.2,0-0.2,0h-71.8c-0.1,0-0.2,0-0.2,0c-0.1,0-0.1,0-0.2,0
			c-2.2-0.1-4.1-2-4.1-4.3v-6.1h80.5v6.1C286.3,300,284.5,301.8,282.3,301.9z M265.4,321.7h-38.6c-6.1,0-11.1-4.5-12-10.4h62.7
			C276.5,317.2,271.4,321.7,265.4,321.7z"/>
	</g>
</g>
<g id="Outline">
	<path fill="url(#software)" d="M279.1,169.7l-4.4,2.6c-1.2-0.9-2.5-1.6-3.8-2.2v-5.1h-11.9v5.1c-1.4,0.6-2.6,1.3-3.8,2.2l-0.2-0.1v-11.2
		c0-5.4-11.3-7.9-21.8-7.9s-21.8,2.5-21.8,7.9v35.6c0,5.4,11.3,7.9,21.8,7.9c10,0,20.7-2.3,21.7-7.1l0.3-0.2
		c1.2,0.9,2.5,1.6,3.8,2.2v5.1h11.9v-5.1c1.4-0.6,2.6-1.3,3.8-2.2l4.4,2.6l6-10.3l-4.4-2.6c0.3-1.4,0.3-2.9,0-4.4l4.4-2.6
		L279.1,169.7z M250.7,169.7l-2.9,5.1c-4.7,1.4-9.6,2.1-14.5,2c-11.6,0-17.5-2.9-17.9-4v-7.1h0.1c0.5,0.3,1,0.4,1.5,0.7
		c0.2,0.1,0.3,0.1,0.4,0.2c0.4,0.2,0.9,0.3,1.3,0.4c0.3,0.1,0.4,0.1,0.7,0.2c0.4,0.1,0.9,0.3,1.4,0.3c0.3,0.1,0.4,0.1,0.7,0.2
		c0.6,0.1,1.1,0.3,1.7,0.3l0.3,0.1c0.7,0.1,1.4,0.3,2.1,0.3l0.6,0.1c0.5,0.1,1.1,0.1,1.6,0.2c0.3,0,0.5,0,0.8,0.1
		c0.5,0,1.1,0.1,1.6,0.1h0.7c0.8,0,1.5,0,2.3,0s1.5,0,2.3,0h0.7c0.5,0,1.1-0.1,1.6-0.1c0.3,0,0.5,0,0.8-0.1c0.5-0.1,1.1-0.1,1.6-0.2
		l0.6-0.1c0.8-0.1,1.4-0.2,2.1-0.3l0.3-0.1c0.6-0.1,1.2-0.3,1.7-0.3c0.3-0.1,0.4-0.1,0.7-0.2c0.4-0.1,0.9-0.3,1.4-0.3
		c0.3-0.1,0.4-0.1,0.7-0.2c0.4-0.2,0.9-0.3,1.3-0.4c0.2-0.1,0.3-0.1,0.4-0.2c0.5-0.2,1-0.4,1.5-0.7h0.1v4.1L250.7,169.7z M233.2,157
		c0.7,0,1.4,0,2.1,0c0.3,0,0.4,0,0.7,0c0.4,0,0.9,0,1.3,0.1c0.3,0,0.7,0.1,0.9,0.1c0.3,0,0.6,0.1,0.9,0.1c0.4,0,0.8,0.1,1.1,0.1
		c0.2,0,0.4,0,0.6,0.1c0.5,0.1,0.9,0.2,1.4,0.2h0.2c5.5,0.9,8.4,2.5,8.7,3.2c0,0,0,0.1-0.1,0.1c0,0.1-0.1,0.1-0.1,0.1l-0.1,0.1
		c0,0-0.1,0.1-0.2,0.2c-0.1,0.1-0.1,0.1-0.2,0.1c-0.1,0-0.2,0.1-0.3,0.2c-0.1,0-0.2,0.1-0.2,0.1c-0.1,0.1-0.2,0.1-0.3,0.2
		c-0.1,0-0.2,0.1-0.3,0.1c-0.2,0.1-0.3,0.2-0.4,0.2l-0.3,0.1c-0.2,0.1-0.3,0.2-0.5,0.2c-0.1,0-0.3,0.1-0.3,0.1
		c-0.2,0.1-0.3,0.2-0.6,0.2c-0.1,0-0.3,0.1-0.4,0.1c-0.3,0.1-0.4,0.2-0.7,0.2c-0.2,0.1-0.3,0.1-0.4,0.1c-0.3,0.1-0.4,0.1-0.7,0.2
		c-0.2,0.1-0.3,0.1-0.6,0.1c-0.3,0.1-0.5,0.1-0.8,0.2c-0.2,0.1-0.4,0.1-0.7,0.1c-0.3,0.1-0.5,0.1-0.8,0.2s-0.5,0.1-0.8,0.1
		s-0.5,0.1-0.8,0.1s-0.6,0.1-0.9,0.1c-0.3,0-0.5,0.1-0.8,0.1c-0.3,0-0.7,0.1-1,0.1c-0.3,0-0.5,0.1-0.8,0.1c-0.4,0-0.9,0.1-1.4,0.1
		c-0.2,0-0.4,0-0.6,0c-0.7,0-1.4,0-2.1,0c-1.4,0-2.8-0.1-4.1-0.1c-8.8-0.6-13.4-2.9-13.8-3.8C215.7,159.9,221.7,157,233.2,157z
		 M215.4,177.7c4.3,2.1,11.1,3.1,17.9,3.1c3.9,0,7.9-0.3,11.7-1.1l-0.2,0.3l4.4,2.6c-0.1,0.8-0.2,1.4-0.2,2.2c0,0.4,0.1,0.9,0.1,1.4
		c-5.1,2-10.5,2.8-15.9,2.6c-11.6,0-17.5-2.9-17.9-4l0,0L215.4,177.7L215.4,177.7z M215.4,196.7v-7.1c4.3,2.1,11.2,3.1,17.9,3.1
		c4.3,0,8.5-0.4,12.7-1.4l3.7,6.5c-2.5,1.3-7.9,2.8-16.3,2.8C221.6,200.7,215.6,197.8,215.4,196.7z M276.4,182
		c0.4,1.8,0.4,3.7,0,5.5l-0.3,1.4l3.5,2l-2,3.4l-3.5-2l-1.1,1c-1.4,1.3-3,2.2-4.8,2.7l-1.4,0.4v4.1h-4v-4.1l-1.4-0.4
		c-1.8-0.5-3.4-1.4-4.8-2.7l-1.1-1l-3.5,2l-2-3.4l3.5-2l-0.3-1.4c-0.4-1.8-0.4-3.7,0-5.5l0.3-1.4l-3.5-2l2-3.4l3.5,2l1.1-1
		c1.4-1.3,3-2.2,4.8-2.7l1.4-0.4v-4.1h4v4.1l1.4,0.4c1.8,0.5,3.4,1.4,4.8,2.7l1.1,1l3.5-2l2,3.4l-3.5,2L276.4,182z"/>
	<path fill="url(#software)" d="M264.9,176.8c-4.3,0-7.9,3.6-7.9,7.9c0,4.3,3.6,7.9,7.9,7.9c4.3,0,7.9-3.6,7.9-7.9C272.8,180.4,269.2,176.8,264.9,176.8z
		 M264.9,188.8c-2.2,0-4-1.8-4-4s1.8-4,4-4s4,1.8,4,4C268.9,187,267.1,188.8,264.9,188.8z"/>
	<path fill="url(#software)" d="M258.9,85.8h-23.7v39.6h23.7V85.8z M255,89.7v23.7h-15.8V89.7C239.2,89.7,255,89.7,255,89.7z M247,121.4h-7.9v-4H255v4H247
		z"/>
	<path fill="url(#software)" d="M249.1,119.5c0-0.5-0.2-1-0.6-1.4c-0.5-0.4-1.2-0.7-1.8-0.5c-0.1,0-0.3,0.1-0.3,0.1c-0.1,0.1-0.3,0.1-0.3,0.2
		c-0.1,0.1-0.2,0.2-0.3,0.3c-0.3,0.3-0.6,0.9-0.6,1.4c0,1.1,0.9,2,2,2C248.2,121.4,249.1,120.6,249.1,119.5z"/>
	<polygon fill="url(#software)" points="209.4,129.3 205.4,129.3 205.4,141.2 245.1,141.2 245.1,149.1 249.1,149.1 249.1,141.2 288.7,141.2 288.7,129.3 
		284.7,129.3 284.7,137.2 249.1,137.2 249.1,129.3 245.1,129.3 245.1,137.2 209.4,137.2 	"/>
	<path fill="url(#software)" d="M199.5,121.4h-4v4h23.8v-4h-4v-4h11.9V85.8h-39.6v31.7h11.9L199.5,121.4L199.5,121.4z M211.4,121.4h-7.9v-4h7.9V121.4z
		 M191.6,89.7h31.7v15.8h-31.7V89.7z M191.6,113.5v-4h31.7v4H191.6z"/>
	<path fill="url(#software)" d="M266.8,125.4h39.6V85.8h-39.6V125.4z M302.5,121.4h-31.7v-19.8h31.7V121.4z M270.8,89.7h31.7v7.9h-31.7V89.7z"/>
	<path fill="url(#software)" d="M275.8,92.1c-0.1-0.1-0.3-0.2-0.3-0.2c-0.1-0.1-0.3-0.1-0.3-0.1c-0.7-0.2-1.3,0.1-1.8,0.5c-0.2,0.2-0.3,0.4-0.4,0.7
		c-0.3,0.8-0.2,1.6,0.4,2.1c0.2,0.2,0.4,0.3,0.7,0.4c0.5,0.2,1,0.2,1.5,0c0.3-0.1,0.4-0.3,0.7-0.4c0.3-0.3,0.6-0.9,0.6-1.4
		c0-0.5-0.2-1-0.6-1.4C276.1,92.2,276,92.2,275.8,92.1z"/>
	<path fill="url(#software)" d="M282.1,92.2c-0.8-0.8-2-0.8-2.8,0c-0.2,0.2-0.3,0.4-0.4,0.7c-0.1,0.3-0.2,0.5-0.2,0.8c0,0.3,0.1,0.5,0.2,0.8
		c0.1,0.3,0.3,0.4,0.4,0.7c0.6,0.6,1.4,0.8,2.1,0.4c0.3-0.1,0.4-0.3,0.7-0.4c0.2-0.2,0.3-0.4,0.4-0.7c0.2-0.5,0.2-1,0-1.5
		C282.5,92.7,282.3,92.5,282.1,92.2z"/>
	<path fill="url(#software)" d="M288.1,92.2c-0.2-0.2-0.4-0.3-0.7-0.4c-0.3-0.2-0.8-0.2-1.2-0.1c-0.1,0-0.3,0.1-0.3,0.1c-0.1,0.1-0.3,0.1-0.3,0.2
		s-0.2,0.2-0.3,0.3c-0.2,0.2-0.3,0.4-0.4,0.7c-0.2,0.5-0.2,1,0,1.5c0.1,0.3,0.3,0.4,0.4,0.7c0.2,0.2,0.4,0.3,0.7,0.4
		s0.5,0.2,0.8,0.2c0.5,0,1-0.2,1.4-0.6c0.2-0.2,0.3-0.4,0.4-0.7c0.2-0.5,0.2-1,0-1.5C288.4,92.7,288.3,92.5,288.1,92.2z"/>
</g>
<g>
	<g>
		<path fill="url(#carvata)" d="M266.9,267.1L266.9,267.1c-0.3,0.3-0.7,0.8-0.9,1.1c0.1,0.1,0.1,0.2,0.2,0.3c0.1-0.1,0.3-0.2,0.3-0.3
			C266.7,267.8,266.7,267.4,266.9,267.1z"/>
		<path fill="url(#carvata2)" d="M297.5,253.8l-8.2-8.2c-0.5-0.5-1.3-0.8-2-0.8h-84.7c-0.7,0-1.4,0.3-2,0.8l-8.2,8.2c-1.1,1.1-1.1,2.8,0,3.9l30.3,30.7
			l13.3,17.2l-9,65.1c-0.2,1.5,0.9,2.9,2.4,3.1c0.2,0,0.3,0,0.4,0c1.4,0,2.6-1,2.7-2.4l8.8-63.9h7.1l2.6,18.3
			c0.2,1.5,1.6,2.6,3.1,2.4c1.5-0.2,2.6-1.6,2.4-3.1l-2.7-19.5l13.3-17.2l30.3-30.7C298.5,256.6,298.5,254.9,297.5,253.8z
			 M249.7,302h-9.2l-12.2-15.8l3.7-8.4h26.2l3.7,8.4L249.7,302z M266,281.8l-2.7-6.1l0.5-0.5c-0.4,0.1-0.9,0-1.3-0.3
			c-1.3-0.9-2.2-2.2-2.8-3.6l-0.9,0.9h-27.2c-0.3,0.6-0.8,1-1.6,1c-0.1,0-0.2,0-0.3,0c-0.3,0.5-0.8,1-1.2,1.5
			c-0.3,0.4-0.9,0.6-1.4,0.5c-0.1,0.1-0.2,0.3-0.3,0.3l0,0l-2.7,6.1l-25.7-26l3.5-3.5c0.1-0.9,0.7-1.5,1.8-1.5
			c0.3,0,0.5,0.1,0.7,0.2c2.2-0.9,4.5-1.4,6.6-0.5h69.6l-0.1,0.1c2.1-0.7,4.8,0.2,6.4,1.4l0.4-0.4l4.3,4.3L266,281.8z"/>
		<path fill="url(#carvata)" d="M258.4,337.9c-0.2-1.5-1.6-2.6-3.1-2.4c-1.5,0.2-2.6,1.6-2.4,3.1l10,72l-17.9,16l-17.9-16l3.7-26.4
			c0.2-1.5-0.9-2.9-2.4-3.1c-1.5-0.2-2.9,0.9-3.1,2.4l-3.9,27.9c-0.1,0.9,0.2,1.8,0.9,2.5l20.8,18.5c0.5,0.4,1.2,0.7,1.9,0.7
			c0.7,0,1.3-0.3,1.9-0.7l20.8-18.5c0.7-0.6,1-1.5,0.9-2.5L258.4,337.9z"/>
	</g>
</g>
<text fill="#15B6DA" transform="matrix(0.8956 0 0 1 174.4668 466.8672)">
  <tspan x="0" y="0" class="st0 st1">S</tspan>
<tspan x="23.2" y="0" class="st2 st1">ystem</tspan>
<tspan x="125.4" y="0" class="st0 st1"> </tspan>
<tspan x="135.5" y="0" class="st0 st3">S.P</tspan>
</text>
</svg>
