<svg width="2500" height="959" viewBox="0 0 2500 959" fill="none" xmlns="http://www.w3.org/2000/svg">
<path d="M188.588 298.165C183.753 298.165 182.544 295.748 184.961 292.121L210.348 259.481C212.766 255.854 218.811 253.436 223.646 253.436H655.223C660.058 253.436 661.267 257.063 658.849 260.69L638.298 292.121C635.88 295.748 629.836 299.374 626.209 299.374L188.588 298.165ZM6.04457 409.384C1.20898 409.384 8.68617e-05 406.966 2.41788 403.339L27.8047 370.699C30.2225 367.073 36.267 364.655 41.1026 364.655H592.36C597.195 364.655 599.613 368.281 598.404 371.908L588.733 400.922C587.524 405.757 582.689 408.175 577.853 408.175L6.04457 409.384ZM298.598 520.603C293.762 520.603 292.553 516.976 294.971 513.349L311.896 483.127C314.313 479.5 319.149 475.873 323.985 475.873H565.764C570.6 475.873 573.017 479.5 573.017 484.336L570.6 513.349C570.6 518.185 565.764 521.811 562.137 521.811L298.598 520.603ZM1553.43 276.405C1477.27 295.748 1425.29 310.254 1350.34 329.597C1332.21 334.432 1331 335.641 1315.28 317.508C1297.15 296.956 1283.85 283.659 1258.46 271.57C1182.3 234.094 1108.56 244.974 1039.65 289.703C957.447 342.895 915.135 421.473 916.344 519.394C917.553 616.105 984.043 695.893 1079.55 709.191C1161.75 720.071 1230.66 691.057 1285.06 629.403C1295.94 616.105 1305.61 601.599 1317.7 584.674H1084.38C1058.99 584.674 1052.95 568.958 1061.41 548.407C1077.13 510.931 1106.14 448.069 1123.07 416.637C1126.69 409.384 1135.15 397.295 1153.29 397.295H1593.33C1590.91 429.935 1590.91 462.575 1586.07 495.216C1572.78 582.256 1540.14 662.044 1486.94 732.16C1399.9 847.005 1286.27 918.33 1142.41 937.672C1023.94 953.388 913.927 930.419 817.215 857.885C727.756 790.187 676.983 700.728 663.685 589.51C647.969 457.74 686.654 339.268 766.441 235.303C852.273 122.875 965.909 51.5503 1104.93 26.1634C1218.57 5.61218 1327.37 18.91 1425.29 85.3994C1489.36 127.711 1535.3 185.738 1565.52 255.854C1572.78 266.734 1567.94 272.779 1553.43 276.405Z" fill="#2394FD"/>
<path d="M1953.58 944.926C1843.57 942.508 1743.23 911.076 1658.61 838.543C1587.28 776.889 1542.55 698.31 1528.05 605.225C1506.29 468.62 1543.76 347.73 1625.97 240.138C1714.22 124.084 1820.6 63.6393 1964.46 38.2524C2087.77 16.4923 2203.82 28.5812 2308.99 99.9062C2404.5 165.187 2463.73 253.436 2479.45 369.49C2500 532.691 2452.85 665.67 2340.43 779.307C2260.64 860.303 2162.72 911.076 2050.29 934.046C2017.65 940.09 1985.01 941.299 1953.58 944.926V944.926ZM2241.3 456.531C2240.09 440.815 2240.09 428.726 2237.67 416.637C2215.91 296.956 2105.9 229.258 1991.05 255.854C1878.63 281.241 1806.09 352.566 1779.5 466.202C1757.74 560.496 1803.68 655.999 1890.72 694.684C1957.21 723.697 2023.69 720.071 2087.77 687.43C2183.27 637.866 2235.25 560.496 2241.3 456.531V456.531Z" fill="#2394FD"/>
</svg>
