<svg width="726" height="1350" viewBox="0 0 726 1350" fill="none" xmlns="http://www.w3.org/2000/svg">
<rect width="726" height="1350" fill="white"/>
<path d="M240.03 716.106C240.03 716.106 204.638 736.681 265.218 743.643C338.61 752.013 376.119 750.813 456.997 735.511C456.997 735.511 478.261 748.839 507.957 760.383C326.65 838.063 97.6233 755.884 240.03 716.106ZM217.876 614.739C217.876 614.739 178.179 644.113 238.805 650.382C317.204 658.467 379.117 659.129 486.252 638.506C486.252 638.506 501.072 653.524 524.373 661.736C305.159 725.816 60.9974 666.79 217.876 614.739" fill="#5382A1"/>
<path d="M404.647 442.787C449.321 494.204 392.912 540.476 392.912 540.476C392.912 540.476 506.342 481.937 454.249 408.632C405.593 340.268 368.281 306.304 570.275 189.194C570.278 189.191 253.211 268.353 404.647 442.787" fill="#E76F00"/>
<path d="M644.44 791.083C644.44 791.083 670.632 812.659 615.596 829.346C510.943 861.039 180.019 870.609 88.0899 830.611C55.0437 816.237 117.015 796.293 136.508 792.108C156.838 787.701 168.456 788.522 168.456 788.522C131.705 762.641 -69.0854 839.338 66.4643 861.306C436.128 921.235 740.329 834.319 644.44 791.083V791.083ZM257.05 509.711C257.05 509.711 88.7215 549.679 197.441 564.193C243.346 570.337 334.855 568.947 420.092 561.807C489.754 555.933 559.706 543.445 559.706 543.445C559.706 543.445 535.142 553.961 517.371 566.089C346.436 611.033 16.2211 590.124 111.286 544.154C191.682 505.304 257.05 509.711 257.05 509.711V509.711ZM559.012 678.441C732.775 588.177 652.436 501.431 596.357 513.12C582.612 515.98 576.483 518.458 576.483 518.458C576.483 518.458 581.588 510.468 591.329 507.009C702.268 468.019 787.586 622.003 555.517 682.993C555.517 682.993 558.21 680.592 559.012 678.441Z" fill="#5382A1"/>
<path d="M454.249 0.0881348C454.249 0.0881348 550.482 96.3191 362.976 244.301C212.616 363.004 328.689 430.687 362.914 508.019C275.149 428.855 210.739 359.171 253.95 294.314C317.371 199.108 493.077 152.949 454.249 0.0881348" fill="#E76F00"/>
<path d="M274.125 923.036C440.916 933.71 697.043 917.115 703.106 838.222C703.106 838.222 691.448 868.128 565.262 891.883C422.905 918.662 247.322 915.538 143.183 898.374C143.188 898.369 164.504 916.009 274.125 923.036" fill="#5382A1"/>
</svg>
