<svg width="119" height="137" viewBox="0 0 119 137" fill="none" xmlns="http://www.w3.org/2000/svg">
<path d="M87.427 60.117C87.427 60.117 86.295 50.388 75.888 50.388C65.48 50.388 58.354 51.745 58.354 57.515C58.354 63.285 78.604 63.285 86.297 65.547C93.99 67.809 100.777 73.692 97.383 84.1C93.989 94.508 83.581 95.639 67.517 95.639C51.453 95.639 47.832 82.289 47.832 77.086H56.882C56.882 77.086 55.75 85.231 66.384 86.588C77.018 87.945 87.186 88.709 88.557 80.48C90.367 69.619 54.166 75.05 50.998 64.416C48.322 55.431 49.866 43.601 67.967 41.79C86.068 39.979 96.023 47.971 96.023 59.891L87.427 60.117Z" fill="#66A060"/>
<path d="M0.00100708 102.531L20.009 114.082C30.062 119.886 42.628 112.631 42.628 101.023V80.781V43.528H34.473V98.755C34.473 105.094 27.611 109.057 22.12 105.886L8.155 97.824V38.884L59.198 9.41699L110.241 38.884V97.824L59.198 127.291L44.494 118.802L34.892 122.674L59.197 136.707L118.395 102.528V34.177L59.198 0L0 34.179V102.531H0.00100708Z" fill="#66A060"/>
</svg>
