<svg width="513" height="233" viewBox="0 0 513 233" fill="none" xmlns="http://www.w3.org/2000/svg">
<path d="M256.5 232.959C189.535 232.959 127.738 220.482 81.5297 200.562L90.9104 163.084H131.762C162.56 163.084 189.287 142.214 196.77 112.326L198.806 104.127C202.298 90.2063 199.227 75.729 190.402 64.4235C181.565 53.1081 168.281 46.625 153.928 46.625H105.104C99.7584 46.625 95.1073 50.2639 93.8102 55.45L60.0956 190.31C22.9461 170.054 0.29129 144.227 0.29129 116.5C0.29129 53.369 117.626 0.0412903 256.5 0.0412903C395.374 0.0412903 512.709 53.369 512.709 116.5C512.709 179.631 395.374 232.959 256.5 232.959Z" fill="#82B1FF"/>
</svg>
