<svg width="330" height="330" viewBox="0 0 330 330" fill="none" xmlns="http://www.w3.org/2000/svg">
<g clip-path="url(#clip0)">
<path d="M218.594 155.171C243.65 143.814 247.384 57.3669 232.602 31.9049C213.293 -1.33503 121.506 5.34004 92.5223 29.0994C89.1944 40.9017 89.5427 62.32 89.6975 79.3462H180.672V87.3176H89.7168C89.7168 87.4337 49.2214 87.5692 49.2214 87.5692C-20.6056 87.5692 -19.1545 239.219 72.9808 239.219C72.9808 239.219 76.3667 205.631 82.2872 188.798C100.571 136.849 177.383 173.861 218.594 155.171ZM123.344 67.0409C112.857 67.0409 104.363 58.5471 104.363 48.0411C104.363 37.5545 112.857 29.0414 123.344 29.0414C133.85 29.0414 142.343 37.5545 142.343 48.0411C142.363 58.5278 133.85 67.0409 123.344 67.0409Z" fill="#1281BF"/>
<path d="M253.846 90.7617C253.846 90.7617 251.428 124.369 245.507 141.183C227.223 193.113 150.431 156.119 109.2 174.809C84.1639 186.167 80.391 272.614 95.1922 298.076C114.482 331.335 206.269 324.66 235.272 300.881C238.6 289.098 238.252 267.68 238.097 250.654H147.103V242.682H238.058C238.058 242.566 282.887 242.431 282.887 242.431C347.239 242.431 353.005 90.7617 253.846 90.7617ZM201.181 259.651C211.667 259.651 220.181 268.144 220.181 278.65C220.181 289.137 211.667 297.631 201.181 297.631C190.694 297.631 182.2 289.137 182.2 278.65C182.2 268.144 190.694 259.651 201.181 259.651Z" fill="#FED74C"/>
</g>
<defs>
<clipPath id="clip0">
<rect width="330" height="330" fill="white"/>
</clipPath>
</defs>
</svg>
