<svg width="606" height="475" viewBox="0 0 606 475" fill="none" xmlns="http://www.w3.org/2000/svg">
<path opacity="0.24" d="M69.2499 128.608C51.0614 167.698 23 202.203 8.3416 242.672C-6.3168 283.14 -3.44742 334.921 31.4288 360.963C68.3155 388.505 122.362 375.484 165.101 393.147C198.382 406.904 221.214 437.758 252.881 454.788C268.615 463.28 286.143 468.064 303.85 471.083C396.133 486.831 492.125 453.628 566.437 397.733C577.291 389.571 587.957 380.749 595.197 369.351C613.668 340.281 605.702 302.124 591.808 270.685C577.914 239.247 558.508 209.063 555.063 174.964C551.816 142.751 562.435 106.566 543.349 80.1474C522.037 50.643 476.995 52.0111 441.411 61.7013C405.827 71.3914 368.015 86.2333 333.526 73.4294C280.829 53.8227 241.809 -1.72333 178.702 0.0410874C112.168 1.90929 91.3744 81.0344 69.2499 128.608Z" fill="#A0DBE9"/>
</svg>
