<svg id="Layer_5" enable-background="new 0 0 64 64" height="512" viewBox="0 0 64 64" width="512" xmlns="http://www.w3.org/2000/svg">
   <linearGradient id="SVGID_1_" gradientUnits="userSpaceOnUse" x1="-48.73" y1="565.77" x2="10.969" y2="625.469" gradientTransform="matrix(8 0 0 -8 399 5013)">
    <stop  offset="0" style="stop-color:#00D7DF"/>
    <stop  offset="0.518" style="stop-color:#00D7DF"/>
    <stop  offset="1" style="stop-color:#00D7DF"/>
  </linearGradient>
  <path style="fill:url(#SVGID_1_);" d="m19 13c-3.309 0-6 2.691-6 6s2.691 6 6 6 6-2.691 6-6-2.691-6-6-6zm0 10c-2.206 0-4-1.794-4-4s1.794-4 4-4 4 1.794 4 4-1.794 4-4 4z"/>
<path style="fill:url(#SVGID_1_);" d="m50.68 40.375.307 1.977c.683-.106 1.354-.226 2.015-.36l-.398-1.96c-.63.127-1.273.241-1.924.343z"/>
<path style="fill:url(#SVGID_1_);" d="m46.785 40.817.148 1.994c.682-.051 1.359-.114 2.028-.189l-.223-1.987c-.644.072-1.297.133-1.953.182z"/>
<path style="fill:url(#SVGID_1_);" d="m54.5 39.595.502 1.936c.68-.176 1.34-.369 1.979-.578l-.621-1.901c-.6.196-1.221.377-1.86.543z"/>
<path style="fill:url(#SVGID_1_);" d="m46.833 56.817.148 1.994c.682-.051 1.359-.114 2.028-.189l-.223-1.987c-.644.072-1.297.133-1.953.182z"/>
<path style="fill:url(#SVGID_1_);" d="m50.728 56.375.307 1.977c.683-.106 1.354-.226 2.015-.36l-.398-1.96c-.631.127-1.273.241-1.924.343z"/>
<path style="fill:url(#SVGID_1_);" d="m54.548 55.595.502 1.936c.68-.176 1.34-.369 1.979-.578l-.621-1.901c-.6.196-1.221.377-1.86.543z"/>
<path style="fill:url(#SVGID_1_);" d="m35.104 48.422c-.652-.097-1.295-.208-1.925-.332l-.387 1.962c.659.13 1.333.246 2.017.348z"/>
<path style="fill:url(#SVGID_1_);" d="m39.001 48.84c-.655-.045-1.308-.101-1.953-.17l-.213 1.988c.671.072 1.349.13 2.031.177z"/>
<path style="fill:url(#SVGID_1_);" d="m31.279 47.665c-.64-.162-1.262-.339-1.863-.532l-.609 1.905c.641.205 1.302.394 1.982.565z"/>
<path style="fill:url(#SVGID_1_);" d="m42.993 34.997h.175c3.481 0 6.759-.312 9.246-.881 3.085-.706 4.587-1.718 4.591-3.093.012-3.902-12.556-4.053-13.988-4.057-3.501.008-6.892.302-9.421.88-3.085.706-4.587 1.718-4.591 3.093-.012 3.903 12.556 4.054 13.988 4.058zm.018-6.03c6.949.021 11.243 1.278 11.942 2.051-.697.762-4.933 1.979-11.78 1.979-.058 0-.116 0-.174 0-6.948-.021-11.243-1.279-11.942-2.051.703-.768 5.027-1.991 11.954-1.979z"/>
<path style="fill:url(#SVGID_1_);" d="m62.955 47.027.048-16c.007-2.319-2.195-4.417-6.201-5.907-3.692-1.373-8.584-2.138-13.774-2.153-2.964-.014-5.988.24-8.759.745.031-.1.068-.199.097-.3l2.634-.62v-7.584l-2.635-.62c-.332-1.159-.795-2.275-1.381-3.332l1.426-2.302-5.363-5.363-2.303 1.425c-1.056-.586-2.172-1.049-3.332-1.381l-.62-2.635h-7.584l-.62 2.634c-1.16.333-2.276.795-3.332 1.381l-2.303-1.424-5.363 5.363 1.426 2.302c-.586 1.057-1.049 2.173-1.381 3.332l-2.635.62v7.584l2.635.62c.332 1.159.795 2.275 1.381 3.332l-1.426 2.302 5.363 5.363 2.303-1.425c1.056.586 2.172 1.049 3.332 1.381l.62 2.635h7.777l-.006 1.906v.005l-.048 15.995c-.007 2.319 2.195 4.417 6.201 5.907 3.692 1.373 8.584 2.138 13.774 2.154h.152c9.65 0 19.856-2.771 19.872-7.94l.024-7.995c.001-.002.001-.003.001-.005zm-1.976-8.006c-.009 2.824-7.335 5.946-17.856 5.946-.054 0-.107 0-.161 0-10.605-.032-17.986-3.215-17.982-6.053l.013-4.417c1.032.868 2.433 1.654 4.212 2.316 3.693 1.373 8.585 2.138 13.775 2.153h.152c7.061 0 14.414-1.485 17.86-4.306zm-18.024 7.946h.152c7.061 0 14.414-1.485 17.86-4.306l-.013 4.362c-.012 2.823-7.338 5.944-17.857 5.944-.054 0-.107 0-.161 0-4.96-.015-9.606-.735-13.083-2.028-3.071-1.142-4.902-2.647-4.898-4.026l.013-4.36c3.454 2.861 10.879 4.392 17.987 4.414zm.066-22c4.96.015 9.606.735 13.083 2.028 3.071 1.142 4.902 2.647 4.898 4.026-.009 2.824-7.335 5.946-17.856 5.946-.054 0-.107 0-.161 0-4.96-.015-9.606-.735-13.084-2.028-3.071-1.142-4.902-2.647-4.898-4.026.009-2.824 7.336-5.946 17.857-5.946zm-24.021 4.033c-5.514 0-10-4.486-10-10s4.486-10 10-10 10 4.486 10 10-4.486 10-10 10zm-2.208 6-.535-2.272-.595-.146c-1.377-.337-2.69-.882-3.904-1.619l-.523-.318-1.986 1.229-3.123-3.123 1.229-1.986-.318-.524c-.736-1.215-1.281-2.528-1.617-3.904l-.146-.595-2.274-.534v-4.416l2.273-.535.146-.595c.336-1.375.881-2.689 1.617-3.904l.318-.524-1.229-1.986 3.123-3.123 1.986 1.229.523-.318c1.214-.737 2.527-1.281 3.904-1.619l.595-.146.536-2.271h4.416l.535 2.272.595.146c1.377.337 2.69.882 3.904 1.619l.523.318 1.986-1.229 3.123 3.123-1.229 1.986.318.524c.736 1.215 1.281 2.528 1.617 3.904l.146.595 2.274.534v4.416l-2.273.535-.146.596c-.155.635-.369 1.259-.613 1.868-.903.225-1.767.479-2.573.764 1.015-1.761 1.605-3.797 1.605-5.971 0-6.617-5.383-12-12-12s-12 5.383-12 12 5.383 12 12 12c1.428 0 2.792-.264 4.063-.723-.035.206-.06.415-.06.63l-.012 4.093zm26.281 25.967c-.054 0-.107 0-.161 0-4.96-.015-9.606-.735-13.083-2.028-3.071-1.142-4.902-2.647-4.898-4.026l.013-4.416c1.032.868 2.433 1.655 4.212 2.317 3.692 1.373 8.584 2.138 13.774 2.154h.152c7.061 0 14.414-1.485 17.861-4.306l-.013 4.36c-.008 2.823-7.335 5.945-17.857 5.945z"/>
<path style="fill:url(#SVGID_1_);" d="m61 11h2v2h-2z"/>
<path style="fill:url(#SVGID_1_);" d="m54.414 13h4.586v-2h-5.414l-8 8h-6.586v2h7.414z"/>
<path style="fill:url(#SVGID_1_);" d="m52.414 9h10.586v-2h-11.414l-8 8h-4.586v2h5.414z"/>
<path style="fill:url(#SVGID_1_);" d="m11 61h2v2h-2z"/>
<path style="fill:url(#SVGID_1_);" d="m19 45.586-8 8v5.414h2v-4.586l8-8v-7.414h-2z"/>
<path style="fill:url(#SVGID_1_);" d="m17 39h-2v4.586l-8 8v11.414h2v-10.586l8-8z"/>
</svg>