<svg width="1062" height="795" viewBox="0 0 1062 795" fill="none" xmlns="http://www.w3.org/2000/svg">
<g clip-path="url(#clip0)">
<path opacity="0.1" d="M605.87 111.4C541.15 109.16 479.51 88.26 420.65 65.4C361.79 42.54 303.49 17.18 240.32 5.10999C199.69 -2.69001 153.22 -3.79002 120.49 18C89 38.96 78.8 75.18 73.33 108.72C69.21 133.98 66.79 160.57 78.07 184.22C85.91 200.64 99.81 214.44 109.43 230.16C142.9 284.89 119.24 352.37 82.98 405.8C65.98 430.86 46.23 454.8 33.1 481.45C19.97 508.1 13.9 538.7 25.39 565.92C36.77 592.92 63.9 613.16 93.29 627.41C152.98 656.36 223.29 664.64 291.9 669.34C443.73 679.72 596.36 675.23 748.59 670.72C804.93 669.06 861.51 667.37 916.93 658.66C947.71 653.82 979.48 646.14 1001.83 627.6C1030.19 604.07 1037.22 564.23 1018.21 534.72C986.33 485.23 898.21 472.94 875.9 419.83C863.64 390.59 876.23 358.03 894.06 330.92C932.3 272.75 996.39 221.72 999.76 155.24C1002.08 109.58 971.27 63.85 923.63 42.24C873.7 19.59 804.45 22.44 767.63 59.92C729.68 98.53 663 113.39 605.87 111.4Z" fill="#00CCFF" fill-opacity="0.83"/>
<path d="M259.51 123.48H0V382.99H259.51V123.48Z" fill="#E8E9ED"/>
<path d="M1062 123.48H802.49V382.99H1062V123.48Z" fill="#E8E9ED"/>
<path opacity="0.5" d="M145.39 32.03L142.8 29.38C142.749 29.3224 142.685 29.2765 142.615 29.2455C142.544 29.2144 142.467 29.1989 142.39 29.2C142.313 29.1976 142.236 29.2125 142.165 29.2436C142.094 29.2747 142.031 29.3213 141.98 29.38L124.08 47.38L117.56 40.87C117.508 40.8137 117.444 40.7687 117.374 40.738C117.303 40.7073 117.227 40.6914 117.15 40.6914C117.073 40.6914 116.997 40.7073 116.926 40.738C116.856 40.7687 116.792 40.8137 116.74 40.87L114.13 43.48C114.073 43.5342 114.028 43.5993 113.997 43.6715C113.966 43.7437 113.95 43.8215 113.95 43.9C113.95 43.9785 113.966 44.0563 113.997 44.1285C114.028 44.2007 114.073 44.2658 114.13 44.32L122.35 52.53C122.791 53.0187 123.403 53.3194 124.06 53.37C124.709 53.3133 125.315 53.0259 125.77 52.56L145.4 32.87C145.503 32.7545 145.56 32.605 145.56 32.45C145.56 32.295 145.503 32.1455 145.4 32.03H145.39Z" fill="#3ACC6C"/>
<path opacity="0.5" d="M129.75 14.88C135.855 14.8844 141.769 17.005 146.485 20.8807C151.202 24.7563 154.429 30.1473 155.617 36.1353C156.805 42.1232 155.88 48.3378 153 53.7203C150.12 59.1028 145.462 63.3204 139.822 65.6546C134.181 67.9888 127.905 68.2953 122.064 66.5217C116.223 64.7482 111.177 61.0044 107.786 55.9281C104.396 50.8517 102.87 44.7568 103.468 38.6817C104.067 32.6065 106.754 26.9267 111.07 22.61C113.518 20.1508 116.43 18.2014 119.636 16.8746C122.842 15.5478 126.28 14.8698 129.75 14.88ZM129.75 10.77C123.711 10.77 117.808 12.5608 112.787 15.9159C107.767 19.271 103.853 24.0398 101.543 29.619C99.2325 35.1982 98.6285 41.3373 99.8073 47.2598C100.986 53.1823 103.895 58.6222 108.166 62.8915C112.436 67.1608 117.877 70.0677 123.8 71.2446C129.723 72.4215 135.862 71.8154 141.44 69.5032C147.019 67.1909 151.786 63.2762 155.14 58.2543C158.493 53.2323 160.282 47.3287 160.28 41.29C160.281 37.2808 159.492 33.3107 157.959 29.6066C156.425 25.9025 154.176 22.5371 151.34 19.7026C148.505 16.8682 145.139 14.6204 141.434 13.0876C137.73 11.5549 133.759 10.7674 129.75 10.77Z" fill="#90D8EA"/>
<path opacity="0.8" d="M345.82 117.36L342.56 114.02C342.495 113.949 342.416 113.893 342.328 113.856C342.241 113.818 342.146 113.799 342.05 113.8C341.952 113.796 341.855 113.814 341.765 113.852C341.675 113.89 341.595 113.947 341.53 114.02L319 136.72L310.79 128.52C310.725 128.45 310.645 128.395 310.558 128.357C310.47 128.319 310.376 128.3 310.28 128.3C310.183 128.3 310.087 128.319 309.998 128.357C309.908 128.395 309.827 128.45 309.76 128.52L306.47 131.81C306.398 131.877 306.341 131.959 306.302 132.049C306.263 132.139 306.243 132.237 306.243 132.335C306.243 132.433 306.263 132.531 306.302 132.621C306.341 132.711 306.398 132.793 306.47 132.86L316.81 143.18C317.369 143.794 318.142 144.17 318.97 144.23C319.779 144.161 320.538 143.806 321.11 143.23L345.81 118.39C345.925 118.249 345.988 118.072 345.988 117.89C345.988 117.708 345.925 117.531 345.81 117.39L345.82 117.36Z" fill="#3ACC6C"/>
<path opacity="0.8" d="M326.12 95.76C333.812 95.7617 341.266 98.4304 347.211 103.311C353.156 108.192 357.225 114.984 358.725 122.528C360.224 130.073 359.062 137.904 355.435 144.687C351.808 151.471 345.941 156.787 338.834 159.73C331.727 162.673 323.82 163.061 316.459 160.828C309.098 158.595 302.739 153.878 298.466 147.482C294.193 141.086 292.269 133.407 293.023 125.752C293.776 118.096 297.161 110.939 302.6 105.5C305.68 102.4 309.345 99.9427 313.383 98.2707C317.421 96.5987 321.75 95.7453 326.12 95.76ZM326.12 90.59C318.519 90.59 311.089 92.8439 304.769 97.0666C298.45 101.289 293.524 107.291 290.615 114.313C287.707 121.336 286.946 129.063 288.428 136.517C289.911 143.972 293.571 150.82 298.946 156.194C304.32 161.569 311.168 165.229 318.623 166.712C326.077 168.194 333.804 167.433 340.827 164.525C347.849 161.616 353.851 156.69 358.073 150.371C362.296 144.051 364.55 136.621 364.55 129.02C364.551 123.973 363.558 118.975 361.627 114.312C359.697 109.649 356.866 105.412 353.297 101.843C349.728 98.2741 345.491 95.4434 340.828 93.5126C336.165 91.5818 331.167 90.5887 326.12 90.59Z" fill="#90D8EA"/>
<path opacity="0.5" d="M932.24 14.88C938.345 14.8844 944.259 17.005 948.975 20.8807C953.692 24.7563 956.919 30.1473 958.107 36.1353C959.294 42.1232 958.37 48.3378 955.49 53.7203C952.61 59.1028 947.953 63.3204 942.312 65.6546C936.671 67.9888 930.396 68.2953 924.554 66.5217C918.713 64.7482 913.667 61.0044 910.276 55.9281C906.886 50.8517 905.36 44.7568 905.958 38.6817C906.557 32.6065 909.244 26.9267 913.56 22.61C916.008 20.1508 918.92 18.2014 922.126 16.8746C925.332 15.5478 928.77 14.8698 932.24 14.88ZM932.24 10.77C926.201 10.77 920.298 12.5608 915.277 15.9159C910.257 19.271 906.343 24.0398 904.033 29.619C901.723 35.1982 901.119 41.3373 902.297 47.2598C903.476 53.1823 906.385 58.6222 910.656 62.8915C914.926 67.1608 920.367 70.0677 926.29 71.2446C932.213 72.4215 938.352 71.8154 943.93 69.5032C949.509 67.1909 954.276 63.2762 957.63 58.2543C960.983 53.2323 962.772 47.3287 962.77 41.29C962.771 37.2808 961.982 33.3107 960.449 29.6066C958.915 25.9025 956.666 22.5371 953.83 19.7026C950.995 16.8682 947.629 14.6204 943.924 13.0876C940.22 11.5549 936.249 10.7674 932.24 10.77Z" fill="#90D8EA"/>
<path opacity="0.8" d="M734.47 95.76C742.164 95.7501 749.624 98.4091 755.577 103.284C761.53 108.158 765.609 114.946 767.117 122.491C768.626 130.036 767.471 137.871 763.849 144.66C760.228 151.449 754.364 156.771 747.257 159.72C740.151 162.67 732.241 163.063 724.877 160.833C717.513 158.603 711.15 153.889 706.873 147.493C702.596 141.097 700.669 133.415 701.422 125.758C702.175 118.1 705.56 110.941 711 105.5C714.082 102.403 717.748 99.9472 721.785 98.2754C725.822 96.6036 730.15 95.7486 734.52 95.76H734.47ZM734.52 90.59C726.919 90.59 719.489 92.8439 713.169 97.0666C706.85 101.289 701.924 107.291 699.015 114.313C696.107 121.336 695.346 129.063 696.828 136.517C698.311 143.972 701.971 150.82 707.346 156.194C712.72 161.569 719.568 165.229 727.023 166.712C734.477 168.194 742.204 167.433 749.226 164.525C756.249 161.616 762.251 156.69 766.473 150.371C770.696 144.051 772.95 136.621 772.95 129.02C772.951 123.969 771.957 118.967 770.023 114.3C768.089 109.634 765.253 105.395 761.679 101.825C758.105 98.2558 753.862 95.4262 749.193 93.4983C744.524 91.5704 739.521 90.5821 734.47 90.59H734.52Z" fill="#90D8EA"/>
<path d="M529.33 156.74C539.494 156.747 549.342 160.277 557.196 166.73C565.049 173.183 570.423 182.159 572.401 192.129C574.379 202.099 572.839 212.447 568.044 221.409C563.248 230.372 555.494 237.394 546.102 241.281C536.71 245.167 526.261 245.678 516.535 242.725C506.809 239.772 498.408 233.538 492.762 225.086C487.116 216.634 484.575 206.485 485.572 196.37C486.57 186.254 491.043 176.797 498.23 169.61C502.305 165.514 507.152 162.268 512.49 160.058C517.829 157.849 523.553 156.721 529.33 156.74ZM529.33 149.9C519.281 149.9 509.457 152.88 501.101 158.463C492.746 164.046 486.233 171.982 482.388 181.266C478.542 190.55 477.536 200.766 479.496 210.623C481.457 220.479 486.296 229.532 493.402 236.638C500.508 243.744 509.561 248.583 519.417 250.544C529.274 252.504 539.49 251.498 548.774 247.652C558.058 243.807 565.994 237.294 571.577 228.939C577.16 220.583 580.14 210.759 580.14 200.71C580.141 194.037 578.828 187.429 576.275 181.264C573.722 175.099 569.979 169.497 565.261 164.779C560.543 160.061 554.941 156.318 548.776 153.765C542.611 151.212 536.003 149.899 529.33 149.9Z" fill="#90D8EA"/>
<path d="M470.72 191.5H181.52V480.7H470.72V191.5Z" fill="#F3F5F7"/>
<path d="M879.07 191.5H589.87V480.7H879.07V191.5Z" fill="#F3F5F7"/>
<path opacity="0.1" d="M122.39 169.55H25.93V180.27H122.39V169.55Z" fill="black"/>
<path opacity="0.1" d="M945.65 169.55H849.19V180.27H945.65V169.55Z" fill="black"/>
<path d="M701.19 618.41C701.19 618.41 726.25 574.02 763.99 561.23C779.852 555.966 793.58 545.699 803.11 531.97C807.581 525.405 811.443 518.446 814.65 511.18" stroke="#535461" stroke-width="2" stroke-miterlimit="10"/>
<path d="M838.38 503.01C834.08 507.18 814.05 511.5 814.05 511.5C814.05 511.5 818.97 491.61 823.27 487.43C825.336 485.426 828.113 484.325 830.991 484.369C833.869 484.414 836.611 485.599 838.615 487.665C840.619 489.731 841.72 492.508 841.676 495.386C841.631 498.264 840.446 501.006 838.38 503.01Z" fill="#90D8EA"/>
<path d="M827.05 538.99C821.17 540.16 802.05 532.9 802.05 532.9C802.05 532.9 816.98 518.9 822.86 517.71C825.653 517.222 828.525 517.846 830.863 519.449C833.202 521.052 834.819 523.507 835.371 526.287C835.922 529.068 835.364 531.954 833.814 534.328C832.265 536.702 829.848 538.375 827.08 538.99H827.05Z" fill="#90D8EA"/>
<path d="M785.8 577.94C780.14 575.94 767.27 560.04 767.27 560.04C767.27 560.04 787.27 555.47 792.9 557.43C794.247 557.896 795.488 558.623 796.554 559.569C797.62 560.515 798.489 561.662 799.112 562.944C799.734 564.226 800.098 565.618 800.183 567.04C800.268 568.463 800.071 569.888 799.605 571.235C799.139 572.582 798.412 573.823 797.466 574.889C796.52 575.955 795.373 576.824 794.091 577.447C792.809 578.069 791.417 578.433 789.995 578.518C788.572 578.603 787.147 578.406 785.8 577.94Z" fill="#90D8EA"/>
<path d="M748 600.37C742.08 599.37 726.7 585.86 726.7 585.86C726.7 585.86 745.62 577.99 751.53 578.96C752.946 579.18 754.305 579.678 755.528 580.427C756.75 581.175 757.813 582.158 758.653 583.319C759.494 584.48 760.096 585.796 760.425 587.191C760.754 588.586 760.804 590.032 760.57 591.447C760.337 592.861 759.826 594.215 759.067 595.43C758.307 596.646 757.314 597.699 756.146 598.529C754.977 599.359 753.655 599.948 752.257 600.264C750.859 600.58 749.412 600.616 748 600.37Z" fill="#90D8EA"/>
<path d="M785.32 517.36C785.32 523.36 796.16 540.73 796.16 540.73C796.16 540.73 807 523.36 807 517.37C807 514.492 805.857 511.733 803.822 509.698C801.787 507.663 799.028 506.52 796.15 506.52C793.272 506.52 790.513 507.663 788.478 509.698C786.443 511.733 785.3 514.492 785.3 517.37L785.32 517.36Z" fill="#90D8EA"/>
<path d="M741.39 544.18C743.18 549.9 758.73 563.24 758.73 563.24C758.73 563.24 763.89 543.42 762.1 537.7C761.674 536.34 760.985 535.077 760.072 533.984C759.158 532.89 758.038 531.988 756.776 531.327C755.514 530.666 754.133 530.261 752.714 530.133C751.295 530.006 749.865 530.16 748.505 530.585C747.145 531.01 745.882 531.7 744.789 532.613C743.695 533.527 742.793 534.647 742.132 535.909C741.471 537.171 741.066 538.552 740.938 539.971C740.811 541.39 740.965 542.82 741.39 544.18Z" fill="#90D8EA"/>
<path d="M702.27 576.07C703.07 582.01 716.13 597.78 716.13 597.78C716.13 597.78 724.57 579.12 723.78 573.18C723.397 570.328 721.896 567.744 719.608 565.998C717.32 564.252 714.432 563.487 711.58 563.87C708.728 564.253 706.144 565.754 704.398 568.042C702.652 570.33 701.887 573.218 702.27 576.07Z" fill="#90D8EA"/>
<path opacity="0.25" d="M838.38 503.01C834.08 507.18 814.05 511.5 814.05 511.5C814.05 511.5 818.97 491.61 823.27 487.43C825.336 485.426 828.113 484.325 830.991 484.369C833.869 484.414 836.611 485.599 838.615 487.665C840.619 489.731 841.72 492.508 841.676 495.386C841.631 498.264 840.446 501.006 838.38 503.01Z" fill="black"/>
<path opacity="0.25" d="M827.05 538.99C821.17 540.16 802.05 532.9 802.05 532.9C802.05 532.9 816.98 518.9 822.86 517.71C825.653 517.222 828.525 517.846 830.863 519.449C833.202 521.052 834.819 523.507 835.371 526.287C835.922 529.068 835.364 531.954 833.814 534.328C832.265 536.702 829.848 538.375 827.08 538.99H827.05Z" fill="black"/>
<path opacity="0.25" d="M785.8 577.94C780.14 575.94 767.27 560.04 767.27 560.04C767.27 560.04 787.27 555.47 792.9 557.43C794.247 557.896 795.488 558.623 796.554 559.569C797.62 560.515 798.489 561.662 799.112 562.944C799.734 564.226 800.098 565.618 800.183 567.04C800.268 568.463 800.071 569.888 799.605 571.235C799.139 572.582 798.412 573.823 797.466 574.889C796.52 575.955 795.373 576.824 794.091 577.447C792.809 578.069 791.417 578.433 789.995 578.518C788.572 578.603 787.147 578.406 785.8 577.94Z" fill="black"/>
<path opacity="0.25" d="M748 600.37C742.08 599.37 726.7 585.86 726.7 585.86C726.7 585.86 745.62 577.99 751.53 578.96C752.946 579.18 754.305 579.678 755.528 580.427C756.75 581.175 757.813 582.158 758.653 583.319C759.494 584.48 760.096 585.796 760.425 587.191C760.754 588.586 760.804 590.032 760.57 591.447C760.337 592.861 759.826 594.215 759.067 595.43C758.307 596.646 757.314 597.699 756.146 598.529C754.977 599.359 753.655 599.948 752.257 600.264C750.859 600.58 749.412 600.616 748 600.37Z" fill="black"/>
<path opacity="0.25" d="M785.32 517.36C785.32 523.36 796.16 540.73 796.16 540.73C796.16 540.73 807 523.36 807 517.37C807 514.492 805.857 511.733 803.822 509.698C801.787 507.663 799.028 506.52 796.15 506.52C793.272 506.52 790.513 507.663 788.478 509.698C786.443 511.733 785.3 514.492 785.3 517.37L785.32 517.36Z" fill="black"/>
<path opacity="0.25" d="M741.39 544.18C743.18 549.9 758.73 563.24 758.73 563.24C758.73 563.24 763.89 543.42 762.1 537.7C761.674 536.34 760.985 535.077 760.072 533.984C759.158 532.89 758.038 531.988 756.776 531.327C755.514 530.666 754.133 530.261 752.714 530.133C751.295 530.006 749.865 530.16 748.505 530.585C747.145 531.01 745.882 531.7 744.789 532.613C743.695 533.527 742.793 534.647 742.132 535.909C741.471 537.171 741.066 538.552 740.938 539.971C740.811 541.39 740.965 542.82 741.39 544.18Z" fill="black"/>
<path opacity="0.25" d="M702.27 576.07C703.07 582.01 716.13 597.78 716.13 597.78C716.13 597.78 724.57 579.12 723.78 573.18C723.397 570.328 721.896 567.744 719.608 565.998C717.32 564.252 714.432 563.487 711.58 563.87C708.728 564.253 706.144 565.754 704.398 568.042C702.652 570.33 701.887 573.218 702.27 576.07Z" fill="black"/>
<path d="M702.63 617.53C702.63 617.53 707.56 566.8 736.87 539.81C749.24 528.559 757.629 513.602 760.78 497.18C762.209 489.375 762.922 481.455 762.91 473.52" stroke="#535461" stroke-width="2" stroke-miterlimit="10"/>
<path d="M781.29 456.43C779.05 461.99 762.49 474.05 762.49 474.05C762.49 474.05 758.92 453.88 761.16 448.32C761.692 446.998 762.48 445.794 763.478 444.777C764.476 443.76 765.664 442.949 766.975 442.391C768.286 441.833 769.695 441.538 771.12 441.524C772.545 441.511 773.958 441.777 775.28 442.31C776.602 442.843 777.806 443.63 778.823 444.628C779.84 445.626 780.651 446.814 781.209 448.125C781.767 449.436 782.062 450.845 782.076 452.27C782.089 453.695 781.822 455.108 781.29 456.43Z" fill="#90D8EA"/>
<path d="M785.51 493.92C780.61 497.37 760.16 498.5 760.16 498.5C760.16 498.5 768.16 479.62 773.03 476.18C775.385 474.628 778.252 474.053 781.023 474.579C783.795 475.105 786.252 476.689 787.875 478.996C789.498 481.303 790.159 484.152 789.717 486.937C789.276 489.723 787.767 492.228 785.51 493.92Z" fill="#90D8EA"/>
<path d="M763.58 546.24C757.58 546.74 739.39 537.39 739.39 537.39C739.39 537.39 755.79 525.12 761.76 524.62C763.194 524.473 764.643 524.614 766.021 525.033C767.4 525.452 768.682 526.142 769.791 527.062C770.901 527.982 771.816 529.114 772.483 530.392C773.15 531.669 773.556 533.067 773.677 534.503C773.798 535.94 773.631 537.386 773.187 538.757C772.743 540.128 772.03 541.397 771.09 542.49C770.15 543.582 769.002 544.477 767.712 545.121C766.423 545.764 765.018 546.145 763.58 546.24Z" fill="#90D8EA"/>
<path d="M738.08 582.09C732.27 583.59 712.73 577.45 712.73 577.45C712.73 577.45 726.83 562.59 732.63 561.08C735.393 560.422 738.304 560.873 740.737 562.336C743.171 563.8 744.934 566.16 745.648 568.909C746.361 571.658 745.968 574.577 744.553 577.04C743.138 579.502 740.814 581.312 738.08 582.08V582.09Z" fill="#90D8EA"/>
<path d="M738.59 491.06C741.02 496.54 757.97 508.06 757.97 508.06C757.97 508.06 760.86 487.78 758.44 482.3C757.274 479.668 755.111 477.606 752.425 476.569C749.74 475.532 746.752 475.604 744.12 476.77C741.488 477.936 739.426 480.099 738.389 482.785C737.352 485.47 737.424 488.458 738.59 491.09V491.06Z" fill="#90D8EA"/>
<path d="M709.29 533.36C713.29 537.86 732.87 543.76 732.87 543.76C732.87 543.76 729.55 523.54 725.6 519.04C723.701 516.877 721.021 515.557 718.149 515.371C715.276 515.184 712.448 516.146 710.285 518.045C708.122 519.944 706.802 522.624 706.616 525.496C706.429 528.369 707.391 531.197 709.29 533.36Z" fill="#90D8EA"/>
<path d="M686.46 578.38C689.59 583.49 707.93 592.62 707.93 592.62C707.93 592.62 708.09 572.13 704.93 567.02C703.424 564.568 701.005 562.815 698.206 562.146C695.407 561.478 692.457 561.949 690.005 563.455C687.553 564.961 685.8 567.38 685.131 570.179C684.463 572.978 684.934 575.928 686.44 578.38H686.46Z" fill="#90D8EA"/>
<path opacity="0.1" d="M315.31 253.23H218.85V263.95H315.31V253.23Z" fill="black"/>
<path opacity="0.1" d="M454.19 347.46H396.6V358.18H454.19V347.46Z" fill="black"/>
<path opacity="0.1" d="M481.88 419.4H396.6V430.12H481.88V419.4Z" fill="black"/>
<path opacity="0.1" d="M315.31 291.01H218.85V301.73H315.31V291.01Z" fill="black"/>
<path opacity="0.1" d="M749.38 253.23H652.92V263.95H749.38V253.23Z" fill="black"/>
<path opacity="0.1" d="M749.38 291.01H652.92V301.73H749.38V291.01Z" fill="black"/>
<path d="M515.66 215.65L518.36 212.11C520.958 214.655 524.443 216.09 528.08 216.11C532.64 216.11 536.02 213.88 536.02 210.27C536.02 206.35 532.78 203.77 523.8 203.77V199.7C531.8 199.7 534.8 197.07 534.8 193.6C534.8 190.46 532.11 188.5 528.12 188.5C525.011 188.592 522.041 189.807 519.76 191.92L516.89 188.5C520.043 185.681 524.111 184.1 528.34 184.05C535.25 184.05 540.34 187.37 540.34 193.19C540.34 197.29 537.34 199.97 533.02 201.45V201.67C537.65 202.67 541.53 205.74 541.53 210.53C541.53 216.85 535.53 220.64 528.45 220.64C522.43 220.63 518.3 218.34 515.66 215.65Z" fill="#90D8EA"/>
<g opacity="0.8">
<path opacity="0.8" d="M737.66 123.5C737.66 121.58 737.83 119.13 737.93 117.21H737.68C736.58 118.91 735.33 120.6 734.21 122.29L726.21 132.55H747.45V136.68H720.73V133.18L736.68 112.18H742.55V145.57H737.66V123.5Z" fill="#90D8EA"/>
</g>
<g opacity="0.5">
<path opacity="0.5" d="M921.85 51.88L923.66 49.41C925.41 51.1252 927.76 52.0903 930.21 52.1C933.43 52.1 935.96 50.18 935.96 47.03C935.96 43.88 933.73 42.18 930.42 42.18C928.744 42.166 927.101 42.6498 925.7 43.57L923.82 42.36L924.58 30.55H938.58V33.8H927.88L927.29 40.27C928.593 39.6784 930.009 39.3781 931.44 39.39C936.03 39.39 939.77 41.75 939.77 46.97C939.77 52.19 935.39 55.24 930.66 55.24C929.043 55.2874 927.432 55.0151 925.92 54.4385C924.408 53.8619 923.025 52.9924 921.85 51.88Z" fill="#00CCFF"/>
</g>
<path opacity="0.1" d="M704.65 283.32H347.16V640.81H704.65V283.32Z" fill="#90D8EA"/>
<path d="M716.65 266.32H359.16V623.81H716.65V266.32Z" fill="white"/>
<path opacity="0.5" d="M679.2 305.92H396.6V316.64H679.2V305.92Z" fill="#90D8EA"/>
<path opacity="0.1" d="M576.55 383.43H396.6V394.15H576.55V383.43Z" fill="black"/>
<path opacity="0.1" d="M571.2 455.38H396.6V466.1H571.2V455.38Z" fill="black"/>
<path opacity="0.1" d="M634.61 491.35H396.6V502.07H634.61V491.35Z" fill="black"/>
<path opacity="0.5" d="M627.52 384.38L626.29 383.11C626.236 383.059 626.164 383.031 626.09 383.03C626.019 383.03 625.95 383.059 625.9 383.11L617.37 391.71L614.26 388.6C614.205 388.551 614.134 388.523 614.06 388.52C613.989 388.522 613.921 388.551 613.87 388.6L612.62 389.85C612.593 389.876 612.572 389.907 612.558 389.942C612.543 389.976 612.536 390.013 612.536 390.05C612.536 390.087 612.543 390.124 612.558 390.158C612.572 390.193 612.593 390.224 612.62 390.25L616.54 394.16C616.753 394.392 617.046 394.535 617.36 394.56C617.669 394.534 617.957 394.395 618.17 394.17L627.52 384.78C627.565 384.723 627.59 384.653 627.59 384.58C627.59 384.507 627.565 384.437 627.52 384.38Z" fill="#3ACC6C"/>
<path opacity="0.5" d="M620.07 376.18C622.985 376.178 625.811 377.187 628.066 379.035C630.321 380.883 631.865 383.456 632.436 386.315C633.006 389.174 632.567 392.143 631.194 394.715C629.821 397.287 627.598 399.303 624.905 400.419C622.212 401.536 619.215 401.684 616.424 400.838C613.634 399.993 611.224 398.206 609.604 395.782C607.983 393.358 607.254 390.447 607.54 387.546C607.825 384.644 609.108 381.931 611.17 379.87C612.336 378.697 613.722 377.766 615.25 377.133C616.778 376.5 618.416 376.176 620.07 376.18ZM620.07 374.23C617.191 374.228 614.377 375.08 611.983 376.678C609.588 378.276 607.722 380.548 606.619 383.207C605.517 385.866 605.228 388.793 605.789 391.616C606.35 394.439 607.736 397.033 609.772 399.068C611.807 401.104 614.401 402.49 617.224 403.051C620.047 403.612 622.974 403.323 625.633 402.221C628.292 401.118 630.564 399.252 632.162 396.857C633.76 394.463 634.612 391.649 634.61 388.77C634.605 384.917 633.07 381.224 630.344 378.502C627.618 375.779 623.923 374.25 620.07 374.25V374.23Z" fill="#3ACC6C"/>
<path opacity="0.5" d="M627.52 456.32L626.29 455.06C626.264 455.033 626.233 455.012 626.199 454.998C626.164 454.985 626.127 454.978 626.09 454.98C626.054 454.978 626.019 454.985 625.986 454.999C625.953 455.012 625.924 455.033 625.9 455.06L617.37 463.65L614.26 460.55C614.234 460.522 614.204 460.5 614.169 460.485C614.135 460.469 614.098 460.461 614.06 460.46C614.024 460.461 613.988 460.469 613.956 460.485C613.923 460.5 613.894 460.523 613.87 460.55L612.62 461.79C612.593 461.816 612.572 461.847 612.558 461.882C612.543 461.916 612.536 461.953 612.536 461.99C612.536 462.027 612.543 462.064 612.558 462.098C612.572 462.133 612.593 462.164 612.62 462.19L616.54 466.11C616.753 466.342 617.046 466.485 617.36 466.51C617.668 466.48 617.954 466.341 618.17 466.12L627.52 456.72C627.565 456.663 627.59 456.593 627.59 456.52C627.59 456.447 627.565 456.377 627.52 456.32Z" fill="#3ACC6C"/>
<path opacity="0.5" d="M620.07 448.18C622.985 448.178 625.811 449.187 628.066 451.035C630.321 452.883 631.865 455.456 632.436 458.315C633.006 461.174 632.567 464.143 631.194 466.715C629.821 469.287 627.598 471.303 624.905 472.419C622.212 473.536 619.215 473.684 616.424 472.838C613.634 471.993 611.224 470.206 609.604 467.782C607.983 465.358 607.254 462.447 607.54 459.546C607.825 456.644 609.108 453.931 611.17 451.87C612.336 450.697 613.722 449.766 615.25 449.133C616.778 448.5 618.416 448.176 620.07 448.18ZM620.07 446.18C617.192 446.178 614.378 447.03 611.984 448.627C609.59 450.225 607.723 452.497 606.62 455.155C605.518 457.814 605.228 460.739 605.788 463.562C606.349 466.386 607.734 468.979 609.768 471.015C611.802 473.051 614.395 474.437 617.218 475C620.04 475.562 622.966 475.274 625.626 474.173C628.285 473.072 630.558 471.208 632.157 468.815C633.756 466.422 634.61 463.608 634.61 460.73C634.611 458.82 634.236 456.928 633.506 455.163C632.776 453.397 631.705 451.793 630.355 450.442C629.005 449.091 627.401 448.019 625.637 447.288C623.872 446.556 621.98 446.18 620.07 446.18Z" fill="#3ACC6C"/>
<path opacity="0.1" d="M512.51 794.36C551.949 794.36 583.92 788.996 583.92 782.38C583.92 775.764 551.949 770.4 512.51 770.4C473.071 770.4 441.1 775.764 441.1 782.38C441.1 788.996 473.071 794.36 512.51 794.36Z" fill="#90D8EA"/>
<path d="M130.91 693.37C130.91 693.37 134.63 698.24 129.19 705.6C123.75 712.96 119.25 719.16 121.07 723.75C121.07 723.75 129.28 710.09 135.97 709.9C142.66 709.71 138.26 701.59 130.91 693.37Z" fill="#90D8EA"/>
<path opacity="0.1" d="M130.91 693.37C131.234 693.842 131.49 694.357 131.67 694.9C138.19 702.57 141.67 709.72 135.4 709.9C129.56 710.07 122.55 720.51 120.87 723.15C120.923 723.354 120.99 723.555 121.07 723.75C121.07 723.75 129.28 710.09 135.97 709.9C142.66 709.71 138.26 701.59 130.91 693.37Z" fill="black"/>
<path d="M137.83 699.58C137.83 701.3 137.64 702.69 137.4 702.69C137.16 702.69 136.97 701.3 136.97 699.58C136.97 697.86 137.21 698.67 137.45 698.67C137.69 698.67 137.83 697.87 137.83 699.58Z" fill="#FFD037"/>
<path d="M140.21 701.63C138.7 702.45 137.39 702.95 137.28 702.74C137.17 702.53 138.28 701.74 139.8 700.87C141.32 700 140.71 700.65 140.8 700.87C140.89 701.09 141.71 700.81 140.21 701.63Z" fill="#FFD037"/>
<path d="M111.23 693.37C111.23 693.37 107.5 698.24 112.95 705.6C118.4 712.96 122.88 719.16 121.07 723.75C121.07 723.75 112.85 710.09 106.17 709.9C99.49 709.71 103.87 701.59 111.23 693.37Z" fill="#90D8EA"/>
<path opacity="0.1" d="M111.23 693.37C110.906 693.842 110.65 694.357 110.47 694.9C103.94 702.57 100.47 709.72 106.74 709.9C112.58 710.07 119.59 720.51 121.27 723.15C121.21 723.35 121.15 723.55 121.07 723.75C121.07 723.75 112.85 710.09 106.17 709.9C99.49 709.71 103.87 701.59 111.23 693.37Z" fill="black"/>
<path d="M104.3 699.58C104.3 701.3 104.49 702.69 104.73 702.69C104.97 702.69 105.16 701.3 105.16 699.58C105.16 697.86 104.92 698.67 104.68 698.67C104.44 698.67 104.3 697.87 104.3 699.58Z" fill="#FFD037"/>
<path d="M101.93 701.63C103.43 702.45 104.74 702.95 104.86 702.74C104.98 702.53 103.86 701.74 102.34 700.87C100.82 700 101.43 700.65 101.34 700.87C101.25 701.09 100.42 700.81 101.93 701.63Z" fill="#FFD037"/>
<path opacity="0.1" d="M121.07 761.02C142.581 761.02 160.02 758.343 160.02 755.04C160.02 751.737 142.581 749.06 121.07 749.06C99.5585 749.06 82.12 751.737 82.12 755.04C82.12 758.343 99.5585 761.02 121.07 761.02Z" fill="#90D8EA"/>
<path d="M141.12 717.18L140.93 718.71L140.67 720.85L140.56 721.75L140.3 723.9L140.19 724.8L139.92 726.94L136.92 751.38C136.66 753.56 133.09 755.26 128.79 755.26H113.32C109.02 755.26 105.46 753.56 105.2 751.38L102.2 726.94L101.94 724.8L101.83 723.9L101.57 721.75L101.46 720.85L101.2 718.71L101 717.18C100.85 715.95 102.78 714.91 105.21 714.91H136.89C139.34 714.91 141.27 715.95 141.12 717.18Z" fill="#65617D"/>
<path d="M140.93 718.7L140.67 720.85H101.47L101.2 718.7H140.93Z" fill="#9D9CB5"/>
<path d="M140.56 721.75L140.3 723.9H101.84L101.58 721.75H140.56Z" fill="#9D9CB5"/>
<path d="M140.19 724.79L139.92 726.94H102.21L101.95 724.79H140.19Z" fill="#9D9CB5"/>
<path opacity="0.1" d="M590.84 461.79C590.17 460.42 584.84 442.79 584.84 442.79L574.57 416.72C574.57 416.72 568.34 382.41 559.04 390.97C549.74 399.53 564.04 420.07 564.04 420.07C564.04 420.07 569.91 435.07 569.61 438.07C569.31 441.07 572.88 452.07 572.88 452.07L571.72 458.39C570.21 458.29 569.23 458.29 569.23 458.29C569.23 458.29 568.31 459.61 567.43 459.7C567.281 459.72 567.128 459.7 566.99 459.64C565.99 459.19 562.68 459.28 560.99 459.28C559.42 459.068 557.9 458.581 556.5 457.84C555.92 456.68 552.64 455.99 549.73 455.6C547.52 450.1 544.41 444.75 543.98 439.01C543.768 437.448 544.078 435.859 544.86 434.49C545.054 434.197 545.275 433.922 545.52 433.67C546.33 432.85 547.32 432.13 548.22 431.37C548.67 430.99 549.08 430.6 549.47 430.2C557.1 422.8 555.89 411.34 548.97 403.41C540.97 394.24 504.89 374.51 493.97 391.41C492.45 393.77 492.4 396.5 491.97 399.12C490.882 405.528 487.876 411.455 483.35 416.12C479.73 419.97 474.98 423.52 472.9 427.88L472.83 427.72C472.334 428.666 471.971 429.675 471.75 430.72C470.7 436.03 474.28 441.14 476.16 446.31C476.8 448.066 477.262 449.882 477.54 451.73L477.66 450.59C478.121 453.23 478.278 455.914 478.13 458.59C465.03 461.27 465.02 483.85 465.02 483.85C465.02 483.85 463.41 492.85 463.68 496.06C463.95 499.27 463.95 506.29 463.95 508C463.95 509.71 462.33 520.21 462.15 521.47C461.92 522.86 459.46 529.52 465.4 531.02C465.81 531.13 466.25 531.22 466.7 531.3C466.95 536.69 467.42 548 467.01 550.5C467.01 550.5 469.17 565.68 470.96 569.5C472.11 571.759 473.448 573.916 474.96 575.95C474.833 576.872 474.524 577.759 474.05 578.56C473.14 579.89 473.61 580.98 475.14 581.45C475.093 581.91 475.033 582.43 474.96 583.01C474.31 588.87 473.33 600.5 474.96 606.4C477.25 614.48 477.38 617.17 477.38 617.17C477.379 618.485 477.702 619.78 478.32 620.94C479.32 622.29 481.02 634.81 481.02 636.83C481.02 638.85 485.6 657.03 484.25 661.34C482.9 665.65 483.98 671.71 483.98 671.71C483.98 671.71 483.17 682.35 482.23 684.64C481.29 686.93 480.88 723.83 482.36 733.39C483.84 742.95 484.79 750.9 484.79 750.9C484.79 750.9 483.79 759.65 484.65 760.9C485.51 762.15 486.94 769.39 485.86 769.79C484.78 770.19 484.25 773.16 484.25 773.16C484.819 774.028 485.433 774.866 486.09 775.67C485.672 775.523 485.265 775.35 484.87 775.15C485.3 775.76 485.94 776.6 486.72 777.52L485.99 787.2C485.959 787.579 486.062 787.957 486.281 788.268C486.5 788.579 486.822 788.803 487.19 788.9C489.554 789.548 492.05 789.538 494.408 788.87C496.767 788.202 498.897 786.902 500.57 785.11C507.3 778.24 509.57 779.19 510.81 775.01C510.93 774.56 511.05 774.13 511.14 773.71C511.325 772.905 511.278 772.063 511.005 771.283C510.731 770.503 510.242 769.817 509.594 769.304C508.946 768.791 508.165 768.472 507.343 768.385C506.521 768.297 505.691 768.445 504.95 768.81C505.38 765.81 505.72 762.52 505.39 760.63C504.72 756.73 504.85 746.49 504.85 746.49L503.91 697.49C503.91 697.49 505.66 687.8 507.68 684.03C509.7 680.26 509.43 667.03 509.43 667.03L511.72 623.66L514 602.66C514 602.66 516.15 595.39 518.84 603.47C518.84 603.47 517.36 619.76 518.04 623.67C518.72 627.58 519.65 646.56 518.98 650.74C518.31 654.92 515.34 677.81 517.23 683.6C519.12 689.39 521.13 696.39 520.73 698.68C520.33 700.97 518.98 750.68 518.98 750.68C518.98 750.68 522.61 760.24 519.92 763.34C517.23 766.44 519.79 778.83 519.79 778.83C519.79 778.83 520.11 779.06 520.67 779.39L520.59 780.39L519.75 791.53C519.721 791.909 519.824 792.286 520.043 792.596C520.263 792.907 520.583 793.131 520.95 793.23C523.314 793.876 525.809 793.865 528.167 793.197C530.525 792.529 532.656 791.23 534.33 789.44C541.06 782.57 543.33 783.51 544.57 779.34C544.69 778.89 544.81 778.45 544.91 778.03C545.113 777.138 545.032 776.206 544.678 775.362C544.325 774.519 543.716 773.808 542.937 773.328C542.159 772.848 541.249 772.624 540.337 772.687C539.425 772.75 538.555 773.098 537.85 773.68C537.805 773.729 537.755 773.772 537.7 773.81C537.53 773.96 537.35 774.09 537.17 774.22L536.91 774.39C537.58 771.31 538.56 766.06 538.1 763.58C537.43 759.94 538.77 748.9 538.77 748.9C538.77 748.9 542.68 735.7 542.77 730.45C542.86 725.2 543.85 688.45 543.85 688.45C543.85 688.45 543.72 671.35 544.26 667.18C544.8 663.01 549.1 626.91 553.41 616.18C556.72 607.92 558.2 586.87 557.32 576.18C557.27 575.64 557.22 575.18 557.17 574.66C562.44 570.7 563 564.18 563 564.18C563 564.18 558.15 554.84 553.48 550.89C548.81 546.94 547.73 540.12 547.91 537.24C547.992 535.483 547.419 533.758 546.3 532.4C546.3 532.4 544.14 525.4 542.7 524.68C542.582 524.621 542.477 524.54 542.39 524.44C541.39 523.38 542.16 520.37 542.16 520.37V520.28C542.32 519.58 543.37 515.06 543.03 513.9C542.69 512.74 543.21 506.72 543.21 506.72C543.21 506.72 546.63 496.49 546.09 488.41C545.55 480.33 553.09 481.04 553.09 481.04L576.38 480.8H579.03C580.148 479.846 581.154 478.769 582.03 477.59C582.929 477.759 583.853 477.734 584.741 477.516C585.629 477.299 586.461 476.895 587.18 476.33C592.12 471.81 591.51 463.18 590.84 461.79ZM482.53 531.79L482.7 527.69L483.61 528.47C483.888 529.546 483.888 530.674 483.61 531.75C483.469 532.256 483.216 532.723 482.87 533.118C482.524 533.513 482.093 533.824 481.61 534.03C481.494 534.087 481.384 534.154 481.28 534.23L481.05 531.89C482 531.83 482.53 531.78 482.53 531.78V531.79Z" fill="black"/>
<path d="M569.9 469.74C569.9 469.74 583.16 478.27 588.18 473.74C593.2 469.21 592.58 460.47 591.9 459.09C591.22 457.71 585.82 439.96 585.82 439.96L575.39 413.68C575.39 413.68 569.05 379.09 559.59 387.68C550.13 396.27 564.69 417.01 564.69 417.01C564.69 417.01 570.69 432.14 570.35 435.17C570.01 438.2 573.67 449.3 573.67 449.3L569.9 469.74Z" fill="url(#paint0_linear)"/>
<path d="M545.17 777.91C545.07 778.34 544.96 778.78 544.82 779.23C543.59 783.44 541.26 782.49 534.42 789.41C532.712 791.219 530.544 792.53 528.149 793.203C525.754 793.876 523.22 793.885 520.82 793.23C520.449 793.133 520.123 792.908 519.9 792.596C519.677 792.284 519.571 791.903 519.6 791.52L520.46 780.29L520.87 774.88C520.87 774.88 531.76 777.94 537.31 774.07C537.49 773.94 537.67 773.81 537.84 773.66L538 773.53C538.714 772.945 539.592 772.597 540.513 772.533C541.434 772.469 542.352 772.694 543.14 773.175C543.927 773.656 544.546 774.37 544.91 775.219C545.274 776.067 545.364 777.008 545.17 777.91Z" fill="url(#paint1_linear)"/>
<path d="M511 773.67C510.91 774.1 510.79 774.54 510.66 774.99C509.43 779.2 507.1 778.25 500.26 785.17C498.551 786.977 496.383 788.288 493.989 788.962C491.594 789.637 489.061 789.65 486.66 789C486.286 788.904 485.958 788.679 485.734 788.364C485.511 788.049 485.407 787.665 485.44 787.28L486.29 776.05L486.71 770.64C486.71 770.64 497.6 773.7 503.14 769.83C503.33 769.7 503.5 769.57 503.68 769.42L503.84 769.29C504.553 768.703 505.431 768.352 506.353 768.287C507.274 768.223 508.193 768.447 508.981 768.929C509.768 769.411 510.386 770.127 510.748 770.976C511.11 771.826 511.198 772.768 511 773.67Z" fill="url(#paint2_linear)"/>
<g opacity="0.1">
<path opacity="0.1" d="M499.72 775.36L500.17 781.19C493.91 787.39 486.47 778.19 484.27 775.13C490 778.07 499.72 775.36 499.72 775.36Z" fill="url(#paint3_linear)"/>
</g>
<g opacity="0.1">
<path opacity="0.1" d="M536.47 777.73L537.3 777.19C531.58 785.81 523.1 781.83 520.46 780.29L520.87 774.88C520.87 774.88 531.76 777.94 537.31 774.07C536.87 776.18 536.47 777.73 536.47 777.73Z" fill="url(#paint4_linear)"/>
</g>
<path d="M553.86 614.67C549.48 625.53 545.1 661.92 544.55 666.13C544 670.34 544.14 687.58 544.14 687.58L543 729.94C542.87 735.24 538.9 748.54 538.9 748.54C538.9 748.54 537.53 759.68 538.21 763.34C538.89 767 536.43 776.65 536.43 776.65L537.26 776.11C530.41 786.42 519.6 778.68 519.6 778.68C519.6 778.68 517 766.19 519.73 763.07C522.46 759.95 518.78 750.31 518.78 750.31C518.78 750.31 520.14 700.21 520.56 697.9C520.98 695.59 519 688.53 517 682.69C515 676.85 518.09 653.77 518.78 649.56C519.47 645.35 518.5 626.21 517.78 622.27C517.06 618.33 518.6 601.9 518.6 601.9C515.86 593.76 513.67 601.09 513.67 601.09L511.48 622.41L509.23 666.18C509.23 666.18 509.51 679.48 507.45 683.28C505.39 687.08 503.62 696.86 503.62 696.86L504.62 746.28C504.62 746.28 504.48 756.6 505.17 760.54C505.86 764.48 503.66 774.66 503.66 774.66C496 792.58 483.66 773.17 483.66 773.17C483.66 773.17 484.2 770.17 485.3 769.77C486.4 769.37 484.89 762.03 484.07 760.77C483.25 759.51 484.2 750.77 484.2 750.77C484.2 750.77 483.25 742.77 481.74 733.11C480.23 723.45 480.65 686.27 481.6 683.96C482.55 681.65 483.38 670.96 483.38 670.96C483.38 670.96 482.29 664.85 483.66 660.5C485.03 656.15 480.37 637.83 480.37 635.79C480.37 633.75 478.59 621.13 477.63 619.79C476.986 618.626 476.642 617.32 476.63 615.99C476.63 615.99 476.49 613.27 474.16 605.13C472.46 599.13 473.46 587.45 474.16 581.55C474.4 579.36 474.6 577.97 474.6 577.97C474.6 577.97 553.17 565.34 556.32 568.2C557.06 568.86 557.55 571.2 557.83 574.46C558.72 585.12 557.21 606.35 553.86 614.67Z" fill="url(#paint5_linear)"/>
<g opacity="0.1">
<path opacity="0.1" d="M524.15 675.72C524.52 675.72 533.15 676.45 536.38 675.81C539.61 675.17 524.15 675.72 524.15 675.72Z" fill="url(#paint6_linear)"/>
</g>
<g opacity="0.1">
<path opacity="0.1" d="M524.79 680.79C524.79 680.79 536.79 682.87 537.39 681.79C537.99 680.71 524.79 680.79 524.79 680.79Z" fill="url(#paint7_linear)"/>
</g>
<g opacity="0.1">
<path opacity="0.1" d="M488.2 678.62C488.2 678.62 494.4 678.89 497.78 680.43C501.16 681.97 488.2 678.62 488.2 678.62Z" fill="url(#paint8_linear)"/>
</g>
<path d="M465.66 526.37C465.66 526.37 466.66 545.29 466.12 548.63C466.12 548.63 468.31 563.93 470.12 567.82C471.753 570.923 473.678 573.863 475.87 576.6L481.25 539.04L480 526.18L465.66 526.37Z" fill="url(#paint9_linear)"/>
<path d="M522.24 440.19C533.882 440.19 543.32 430.828 543.32 419.28C543.32 407.732 533.882 398.37 522.24 398.37C510.598 398.37 501.16 407.732 501.16 419.28C501.16 430.828 510.598 440.19 522.24 440.19Z" fill="url(#paint10_linear)"/>
<path d="M511.29 429.06C511.29 429.06 504.72 441.82 498.15 447.8C491.58 453.78 537.57 460.56 538.66 460.56C539.75 460.56 530.45 433.41 532.09 430.15C533.73 426.89 511.29 429.06 511.29 429.06Z" fill="url(#paint11_linear)"/>
<g opacity="0.1">
<path opacity="0.1" d="M557.83 574.36C556.798 575.144 555.66 575.777 554.45 576.24C546.06 579.5 536.93 584.03 530.72 582.24C524.51 580.45 511.38 582.24 511.38 582.24C511.38 582.24 484.91 580.06 479.62 581.33C477.846 581.869 475.959 581.918 474.16 581.47C474.4 579.28 474.6 577.89 474.6 577.89C474.6 577.89 553.17 565.26 556.32 568.12C557.06 568.76 557.55 571.07 557.83 574.36Z" fill="url(#paint12_linear)"/>
</g>
<path d="M563.58 562.3C563.58 562.3 562.85 571.3 554.45 574.61C546.05 577.92 536.93 582.4 530.72 580.61C524.51 578.82 511.38 580.61 511.38 580.61C511.38 580.61 484.91 578.43 479.62 579.7C474.33 580.97 471.62 579.34 473.23 576.98C474.84 574.62 474.7 566.85 474.7 563.59C474.7 560.33 472.87 547.11 474.51 544.76C476.15 542.41 477.61 533.36 480.9 531.91C481.393 531.705 481.833 531.392 482.188 530.994C482.542 530.596 482.803 530.123 482.95 529.61C483.237 528.525 483.237 527.385 482.95 526.3C482.95 526.3 482.4 525.85 481.63 525.17C479.7 523.46 476.42 520.28 477.47 519.24C478.93 517.79 477.47 508.37 477.47 508.37C477.47 508.37 474 501.13 475.28 498.42C476.56 495.71 464.15 481.42 464.15 481.42C464.15 481.42 464.15 456.8 479.15 455.71C479.15 455.71 489.73 456.08 491.01 451.37C492.29 446.66 500.68 443.94 500.68 443.94L519.84 448.11C519.84 448.11 536.84 451.73 539.92 449.56C543 447.39 545.4 452.45 545.4 452.45C545.4 452.45 555.98 453 557.08 455.17C558.18 457.34 553.61 478.52 553.61 478.52C553.61 478.52 545.94 477.8 546.49 485.95C547.04 494.1 543.57 504.41 543.57 504.41C543.57 504.41 543.02 510.41 543.39 511.65C543.76 512.89 542.67 517.37 542.5 518.08V518.17C542.5 518.17 541.74 521.17 542.73 522.28C542.825 522.374 542.933 522.455 543.05 522.52C544.51 523.24 546.7 530.3 546.7 530.3C547.841 531.667 548.43 533.411 548.35 535.19C548.17 538.09 549.26 544.96 554 548.95C558.74 552.94 563.58 562.3 563.58 562.3Z" fill="url(#paint13_linear)"/>
<path d="M482.17 520.39V521.16L481.83 529.63C481.83 529.63 470.61 530.53 464.49 528.99C458.37 527.45 460.96 520.76 461.2 519.36C461.38 518.09 463.02 507.5 463.02 505.78C463.02 504.06 463.02 497 462.75 493.78C462.48 490.56 464.12 481.47 464.12 481.47L465.3 480.02L478.17 484.91L482.17 520.39Z" fill="url(#paint14_linear)"/>
<g opacity="0.1">
<path opacity="0.1" d="M482.15 521.18L481.81 529.65C481.81 529.65 470.59 530.55 464.47 529.01C458.35 527.47 460.94 520.78 461.18 519.38L482.15 521.18Z" fill="url(#paint15_linear)"/>
</g>
<g opacity="0.1">
<path opacity="0.1" d="M483 529.59C483.287 528.505 483.287 527.365 483 526.28C483 526.28 482.45 525.83 481.68 525.15C491.35 523.82 529.62 518.6 542.52 518.04V518.13C542.52 518.13 541.76 521.13 542.75 522.24L483 529.59Z" fill="url(#paint16_linear)"/>
</g>
<g opacity="0.1">
<path opacity="0.1" d="M543.87 536.18C543.87 536.18 546.24 549.49 537.39 554.18C537.39 554.18 542.41 547.55 543.87 536.18Z" fill="url(#paint17_linear)"/>
</g>
<g opacity="0.1">
<path opacity="0.1" d="M485.92 554.52C485.92 554.52 507.27 550.9 511.47 553.7C515.67 556.5 485.92 554.52 485.92 554.52Z" fill="url(#paint18_linear)"/>
</g>
<g opacity="0.1">
<path opacity="0.1" d="M536.47 472.06C536.47 472.06 533.19 485.45 535.65 488.53C538.11 491.61 536.47 472.06 536.47 472.06Z" fill="url(#paint19_linear)"/>
</g>
<g opacity="0.1">
<path opacity="0.1" d="M474.6 461.1C474.6 461.1 477.6 466.1 475.79 471.24C473.98 476.38 474.6 461.1 474.6 461.1Z" fill="url(#paint20_linear)"/>
</g>
<path d="M468.4 504.73C468.4 504.73 472.23 507 470.95 510.53C469.67 514.06 468.4 504.73 468.4 504.73Z" fill="url(#paint21_linear)"/>
<g opacity="0.1">
<path opacity="0.1" d="M468 494.41C468 494.41 471.56 496.32 472 499.12C472.44 501.92 468 494.41 468 494.41Z" fill="url(#paint22_linear)"/>
</g>
<g opacity="0.1">
<path opacity="0.1" d="M520.78 602.67C520.78 602.67 543.14 604.94 547.61 599.67C547.61 599.69 527.44 603.67 520.78 602.67Z" fill="url(#paint23_linear)"/>
</g>
<g opacity="0.1">
<path opacity="0.1" d="M482.18 601.41C482.18 601.41 506.18 607.02 510.92 602.58C510.92 602.58 490.3 604.12 482.18 601.41Z" fill="url(#paint24_linear)"/>
</g>
<g opacity="0.1">
<path opacity="0.1" d="M522.51 610.01C522.51 610.01 532.51 610.01 537.2 610.28C541.89 610.55 522.51 610.01 522.51 610.01Z" fill="url(#paint25_linear)"/>
</g>
<g opacity="0.1">
<path opacity="0.1" d="M483.82 614.26C483.82 614.26 488.75 619.78 494.31 618.79C499.87 617.8 483.82 614.26 483.82 614.26Z" fill="url(#paint26_linear)"/>
</g>
<path d="M493.5 388.18C491.95 390.56 491.9 393.31 491.5 395.95C490.398 402.438 487.342 408.435 482.74 413.14C478.36 417.76 472.35 421.94 471.22 427.58C470.15 432.94 473.79 438.09 475.7 443.3C480.7 457.05 473.7 471.46 471.65 485.65C471.09 489.57 471.77 494.58 476.65 495.88C478.17 496.29 479.91 496.24 481.27 496.88C483.11 497.75 483.67 499.56 484.01 501.19C485.228 507.016 485.649 512.981 485.26 518.92C485.04 522.26 484.8 526.09 487.97 528.38C489.587 529.378 491.368 530.082 493.23 530.46C498.23 531.8 504.7 532.87 508.07 529.74C509.49 528.43 510.07 526.57 511.78 525.53C514.42 523.98 518.17 525.03 521.5 525.19C524.647 525.325 527.772 524.615 530.552 523.135C533.333 521.654 535.666 519.456 537.31 516.77C540 511.96 539.77 506.48 538.77 501.3C537.77 496.12 536.05 491 535.92 485.76C535.765 483.924 536.176 482.084 537.1 480.49C539.1 477.37 543.87 475.95 547.1 473.49C553.16 468.89 553.1 461.35 550.94 455.04C548.78 448.73 544.78 442.7 544.29 436.18C544.075 434.602 544.391 432.998 545.19 431.62C546.249 430.312 547.488 429.16 548.87 428.2C557.72 420.79 556.68 408.61 549.36 400.28C541.24 391.01 504.55 371.11 493.5 388.18Z" fill="url(#paint27_linear)"/>
<g opacity="0.1">
<path opacity="0.1" d="M476.82 448.99C477.691 443.518 477.214 437.916 475.43 432.67C474.43 430.04 473.06 427.42 472.05 424.79C471.542 425.732 471.171 426.743 470.95 427.79C469.87 433.14 473.52 438.29 475.43 443.51C476.074 445.286 476.54 447.122 476.82 448.99Z" fill="url(#paint28_linear)"/>
<path opacity="0.1" d="M485 508.29C485.39 502.35 484.966 496.385 483.74 490.56C483.4 488.93 482.84 487.12 481.01 486.25C479.64 485.6 477.9 485.65 476.38 485.25C475.451 485.027 474.585 484.596 473.848 483.99C473.11 483.384 472.519 482.618 472.12 481.75C471.85 483.13 471.6 484.51 471.4 485.88C470.83 489.8 471.51 494.81 476.4 496.11C477.92 496.52 479.66 496.47 481.03 497.11C482.86 497.98 483.42 499.79 483.76 501.42C484.327 504.122 484.721 506.858 484.94 509.61C484.92 509.18 485 508.73 485 508.29Z" fill="url(#paint29_linear)"/>
<path opacity="0.1" d="M537 506.18C535.357 508.866 533.026 511.063 530.248 512.543C527.469 514.024 524.345 514.734 521.2 514.6C517.87 514.44 514.12 513.39 511.48 514.94C509.72 515.94 509.18 517.84 507.77 519.15C504.4 522.28 497.93 521.21 492.93 519.87C491.067 519.495 489.286 518.79 487.67 517.79C486.289 516.793 485.359 515.29 485.08 513.61C485.08 515.47 485.08 517.34 484.96 519.2C484.74 522.53 484.5 526.36 487.67 528.65C489.286 529.65 491.067 530.355 492.93 530.73C497.93 532.08 504.4 533.14 507.77 530.01C509.18 528.7 509.77 526.85 511.48 525.81C514.12 524.25 517.87 525.3 521.2 525.47C524.347 525.605 527.472 524.895 530.251 523.412C533.03 521.929 535.36 519.729 537 517.04C539.59 512.42 539.48 507.18 538.58 502.18C538.234 503.578 537.702 504.923 537 506.18Z" fill="url(#paint30_linear)"/>
<path opacity="0.1" d="M548.59 417.58C547.205 418.54 545.962 419.691 544.9 421C544.105 422.379 543.792 423.983 544.01 425.56C544.18 427.542 544.6 429.494 545.26 431.37C546.281 430.297 547.395 429.316 548.59 428.44C554.59 423.44 556.03 416.24 554.09 409.53C553.063 412.683 551.154 415.477 548.59 417.58Z" fill="url(#paint31_linear)"/>
<path opacity="0.1" d="M546.82 462.87C543.58 465.32 538.82 466.74 536.82 469.87C535.892 471.463 535.48 473.304 535.64 475.14C535.716 477.259 535.976 479.367 536.42 481.44C536.54 481.196 536.673 480.959 536.82 480.73C538.82 477.62 543.58 476.19 546.82 473.73C552.35 469.53 552.82 462.88 551.18 456.95C550.344 459.311 548.827 461.371 546.82 462.87Z" fill="url(#paint32_linear)"/>
</g>
<path d="M588.49 465.09C584.75 474.5 579.91 478.21 579.91 478.21H577.22L553.54 478.45L550.8 471.03L554.64 455.03L557 455.18C558.423 455.927 559.967 456.418 561.56 456.63C563.29 456.63 566.67 456.54 567.67 456.99C567.811 457.054 567.967 457.074 568.12 457.05C569.01 456.96 569.96 455.63 569.96 455.63C569.96 455.63 592.23 455.67 588.49 465.09Z" fill="url(#paint33_linear)"/>
<g opacity="0.1">
<path opacity="0.1" d="M588.49 465.09C584.75 474.5 579.91 478.21 579.91 478.21H577.22C578.62 474.48 581.58 466.82 582.74 465.06C583.9 463.3 573.93 459.22 568.13 456.97C569.02 456.88 569.97 455.55 569.97 455.55C569.97 455.55 592.23 455.67 588.49 465.09Z" fill="url(#paint34_linear)"/>
</g>
<path d="M569.2 472.38C569.2 472.38 582.2 480.84 587.2 476.32C592.2 471.8 591.53 463.16 590.86 461.79C590.19 460.42 584.86 442.79 584.86 442.79L574.59 416.72C574.59 416.72 568.36 382.41 559.06 390.97C549.76 399.53 564.06 420.07 564.06 420.07C564.06 420.07 569.93 435.07 569.63 438.07C569.33 441.07 572.9 452.07 572.9 452.07L569.2 472.38Z" fill="#EFB7B9"/>
<path d="M544.87 778.04C544.77 778.46 544.65 778.9 544.53 779.35C543.31 783.52 541.02 782.58 534.29 789.45C532.616 791.24 530.485 792.539 528.127 793.207C525.77 793.875 523.274 793.886 520.91 793.24C520.543 793.141 520.223 792.917 520.003 792.606C519.784 792.296 519.681 791.919 519.71 791.54L520.55 780.4L520.96 775.04C520.96 775.04 531.68 778.04 537.13 774.23C537.31 774.1 537.49 773.97 537.66 773.82C537.714 773.782 537.765 773.739 537.81 773.69C538.515 773.108 539.385 772.76 540.297 772.697C541.209 772.634 542.119 772.858 542.897 773.338C543.676 773.818 544.285 774.529 544.638 775.372C544.992 776.216 545.073 777.148 544.87 778.04Z" fill="#90D8EA"/>
<path d="M511.22 773.84C511.13 774.26 511.01 774.69 510.89 775.14C509.67 779.32 507.38 778.37 500.65 785.24C498.977 787.032 496.847 788.332 494.488 789C492.13 789.668 489.634 789.678 487.27 789.03C486.902 788.933 486.58 788.709 486.361 788.398C486.142 788.087 486.039 787.709 486.07 787.33L486.91 776.19L487.32 770.83C487.32 770.83 498.04 773.83 503.49 770.02C503.674 769.896 503.851 769.763 504.02 769.62L504.17 769.48C504.876 768.9 505.746 768.556 506.657 768.495C507.569 768.433 508.477 768.659 509.254 769.14C510.031 769.62 510.638 770.332 510.991 771.174C511.343 772.017 511.423 772.949 511.22 773.84Z" fill="#90D8EA"/>
<path opacity="0.1" d="M500.15 775.51L500.59 781.3C494.44 787.44 487.11 778.3 484.95 775.3C490.61 778.18 500.15 775.51 500.15 775.51Z" fill="black"/>
<path opacity="0.1" d="M536.31 777.86L537.12 777.33C531.5 785.87 523.12 781.93 520.55 780.4L520.96 775.04C520.96 775.04 531.68 778.04 537.13 774.23C536.7 776.32 536.31 777.86 536.31 777.86Z" fill="black"/>
<path d="M553.41 616.18C549.1 626.95 544.79 663.04 544.26 667.18C543.73 671.32 543.85 688.45 543.85 688.45L542.77 730.45C542.64 735.7 538.77 748.9 538.77 748.9C538.77 748.9 537.43 759.9 538.1 763.58C538.77 767.26 536.35 776.78 536.35 776.78L537.16 776.24C530.43 786.47 519.79 778.8 519.79 778.8C519.79 778.8 517.23 766.41 519.92 763.31C522.61 760.21 518.98 750.65 518.98 750.65C518.98 750.65 520.33 700.96 520.73 698.65C521.13 696.34 519.11 689.36 517.23 683.57C515.35 677.78 518.31 654.88 518.98 650.71C519.65 646.54 518.71 627.54 518.04 623.64C517.37 619.74 518.84 603.44 518.84 603.44C516.15 595.36 514 602.63 514 602.63L511.84 623.77L509.51 667.18C509.51 667.18 509.78 680.37 507.76 684.18C505.74 687.99 504 697.6 504 697.6L504.94 746.6C504.94 746.6 504.81 756.84 505.48 760.74C506.15 764.64 504 774.74 504 774.74C496.46 792.51 484.34 773.26 484.34 773.26C484.34 773.26 484.88 770.26 485.95 769.89C487.02 769.52 485.55 762.21 484.74 761C483.93 759.79 484.88 751 484.88 751C484.88 751 483.88 743.05 482.45 733.49C481.02 723.93 481.38 687.03 482.32 684.74C483.26 682.45 484.07 671.81 484.07 671.81C484.07 671.81 482.99 665.75 484.34 661.44C485.69 657.13 481.11 638.95 481.11 636.93C481.11 634.91 479.36 622.39 478.41 621.04C477.792 619.88 477.469 618.585 477.47 617.27C477.47 617.27 477.34 614.58 475.05 606.5C473.38 600.6 474.36 588.97 475.05 583.11C475.29 580.94 475.49 579.56 475.49 579.56C475.49 579.56 552.79 567.04 555.89 569.87C556.61 570.53 557.1 572.87 557.37 576.08C558.2 586.82 556.72 607.87 553.41 616.18Z" fill="#444053"/>
<path opacity="0.1" d="M524.19 676.68C524.55 676.68 533.08 677.4 536.19 676.77C539.3 676.14 524.19 676.68 524.19 676.68Z" fill="black"/>
<path opacity="0.1" d="M524.82 681.71C524.82 681.71 536.58 683.78 537.21 682.71C537.84 681.64 524.82 681.71 524.82 681.71Z" fill="black"/>
<path opacity="0.1" d="M488.82 679.56C488.82 679.56 494.92 679.83 498.24 681.35C501.56 682.87 488.82 679.56 488.82 679.56Z" fill="black"/>
<path d="M466.64 528.55C466.64 528.55 467.64 547.31 467.09 550.63C467.09 550.63 469.25 565.81 471.04 569.63C472.648 572.705 474.543 575.621 476.7 578.34L482 541.12L480.75 528.37L466.64 528.55Z" fill="#EFB7B9"/>
<path d="M522.31 443.08C533.764 443.08 543.05 433.794 543.05 422.34C543.05 410.886 533.764 401.6 522.31 401.6C510.856 401.6 501.57 410.886 501.57 422.34C501.57 433.794 510.856 443.08 522.31 443.08Z" fill="#EFB7B9"/>
<path d="M511.53 432.04C511.53 432.04 505.07 444.69 498.6 450.62C492.13 456.55 537.39 463.28 538.47 463.28C539.55 463.28 530.39 436.34 532 433.11C533.61 429.88 511.53 432.04 511.53 432.04Z" fill="#EFB7B9"/>
<path opacity="0.1" d="M557.32 576.18C556.307 576.957 555.189 577.586 554 578.05C545.74 581.28 536.76 585.77 530.65 583.97C524.54 582.17 511.65 583.97 511.65 583.97C511.65 583.97 485.65 581.82 480.41 583.07C478.65 583.6 476.78 583.638 475 583.18C475.24 581.01 475.44 579.63 475.44 579.63C475.44 579.63 552.74 567.11 555.84 569.94C556.56 570.6 557.05 572.89 557.32 576.18Z" fill="black"/>
<path d="M563 564.18C563 564.18 562.28 573.18 554 576.39C545.72 579.6 536.76 584.11 530.65 582.32C524.54 580.53 511.65 582.32 511.65 582.32C511.65 582.32 485.65 580.16 480.41 581.42C475.17 582.68 472.51 581.06 474.12 578.72C475.73 576.38 475.56 568.72 475.56 565.44C475.56 562.16 473.76 549.1 475.38 546.76C477 544.42 478.38 535.45 481.67 534.01C482.153 533.804 482.584 533.493 482.93 533.098C483.276 532.703 483.529 532.236 483.67 531.73C483.948 530.654 483.948 529.526 483.67 528.45C483.67 528.45 483.13 528 482.37 527.33C480.47 525.63 477.25 522.48 478.29 521.45C479.72 520.01 478.29 510.67 478.29 510.67C478.29 510.67 474.87 503.49 476.13 500.8C477.39 498.11 465.13 483.92 465.13 483.92C465.13 483.92 465.13 459.5 479.86 458.42C479.86 458.42 490.27 458.78 491.53 454.11C492.79 449.44 501.05 446.75 501.05 446.75L519.9 450.88C519.9 450.88 536.6 454.47 539.65 452.32C542.7 450.17 545 455.18 545 455.18C545 455.18 555.41 455.72 556.49 457.87C557.57 460.02 553.08 481.03 553.08 481.03C553.08 481.03 545.54 480.32 546.08 488.4C546.62 496.48 543.2 506.71 543.2 506.71C543.2 506.71 542.66 512.64 543.02 513.89C543.38 515.14 542.31 519.57 542.15 520.27V520.36C542.15 520.36 541.41 523.36 542.38 524.43C542.466 524.53 542.572 524.611 542.69 524.67C544.13 525.38 546.29 532.39 546.29 532.39C547.408 533.748 547.982 535.473 547.9 537.23C547.72 540.11 548.8 546.93 553.47 550.88C558.14 554.83 563 564.18 563 564.18Z" fill="#90D8EA"/>
<path d="M482.89 522.62V523.38L482.56 531.78C482.56 531.78 471.56 532.68 465.56 531.15C459.56 529.62 462.08 522.99 462.31 521.6C462.49 520.34 464.11 509.83 464.11 508.13C464.11 506.43 464.11 499.42 463.84 496.19C463.57 492.96 465.18 483.98 465.18 483.98L466.35 482.54L479.01 487.39L482.89 522.62Z" fill="#90D8EA"/>
<path opacity="0.1" d="M482.86 523.38L482.53 531.78C482.53 531.78 471.53 532.68 465.53 531.15C459.53 529.62 462.05 522.99 462.28 521.6L482.86 523.38Z" fill="black"/>
<path opacity="0.1" d="M483.66 531.74C483.938 530.664 483.938 529.536 483.66 528.46C483.66 528.46 483.12 528.01 482.36 527.34C491.88 526.02 529.53 520.85 542.22 520.34V520.43C542.22 520.43 541.48 523.43 542.45 524.5L483.66 531.74Z" fill="black"/>
<path opacity="0.1" d="M543.58 538.24C543.58 538.24 545.92 551.44 537.21 556.11C537.21 556.11 542.15 549.56 543.58 538.24Z" fill="black"/>
<path opacity="0.1" d="M486.57 556.47C486.57 556.47 507.57 552.88 511.71 555.66C515.85 558.44 486.57 556.47 486.57 556.47Z" fill="black"/>
<path opacity="0.1" d="M536.31 474.68C536.31 474.68 533.08 487.97 535.5 491.02C537.92 494.07 536.31 474.68 536.31 474.68Z" fill="black"/>
<path opacity="0.1" d="M475.44 463.82C475.44 463.82 478.44 468.75 476.61 473.87C474.78 478.99 475.44 463.82 475.44 463.82Z" fill="black"/>
<path d="M469.34 507.09C469.34 507.09 473.11 509.34 471.85 512.84C470.59 516.34 469.34 507.09 469.34 507.09Z" fill="#90D8EA"/>
<path opacity="0.1" d="M469 496.86C469 496.86 472.5 498.74 472.95 501.52C473.4 504.3 469 496.86 469 496.86Z" fill="black"/>
<path opacity="0.1" d="M520.87 604.23C520.87 604.23 542.87 606.48 547.26 601.23C547.26 601.27 527.42 605.18 520.87 604.23Z" fill="black"/>
<path opacity="0.1" d="M482.89 602.97C482.89 602.97 506.5 608.54 511.17 604.14C511.17 604.18 490.88 605.67 482.89 602.97Z" fill="black"/>
<path opacity="0.1" d="M522.57 611.5C522.57 611.5 532.45 611.5 537.03 611.77C541.61 612.04 522.57 611.5 522.57 611.5Z" fill="black"/>
<path opacity="0.1" d="M484.51 615.72C484.51 615.72 489.36 621.2 494.83 620.21C500.3 619.22 484.51 615.72 484.51 615.72Z" fill="black"/>
<path d="M494 391.44C492.48 393.8 492.43 396.53 492 399.15C490.912 405.558 487.906 411.485 483.38 416.15C479.08 420.73 473.17 424.88 472.05 430.47C471 435.78 474.58 440.89 476.46 446.06C481.46 459.69 474.46 473.99 472.46 488.06C471.9 491.95 472.57 496.92 477.36 498.21C478.86 498.61 480.57 498.56 481.92 499.21C483.72 500.07 484.27 501.87 484.6 503.48C485.805 509.261 486.222 515.178 485.84 521.07C485.62 524.38 485.38 528.18 488.5 530.46C490.094 531.443 491.847 532.14 493.68 532.52C498.6 533.85 504.96 534.9 508.28 531.8C509.67 530.5 510.19 528.66 511.93 527.63C514.53 526.09 518.22 527.13 521.49 527.29C524.592 527.419 527.672 526.712 530.408 525.243C533.143 523.774 535.434 521.597 537.04 518.94C539.69 514.16 539.46 508.74 538.48 503.6C537.5 498.46 535.8 493.38 535.68 488.18C535.523 486.362 535.928 484.54 536.84 482.96C538.84 479.86 543.49 478.45 546.68 476.02C552.68 471.46 552.62 464.02 550.46 457.72C548.3 451.42 544.39 445.48 543.91 439.01C543.698 437.448 544.008 435.859 544.79 434.49C545.869 433.222 547.118 432.108 548.5 431.18C557.21 423.83 556.18 411.75 548.98 403.49C541 394.29 504.9 374.56 494 391.44Z" fill="#E3787D"/>
<g opacity="0.1">
<path opacity="0.1" d="M477.63 451.8C478.478 446.371 478.005 440.817 476.25 435.61C475.31 433 473.93 430.41 472.92 427.8C472.424 428.746 472.061 429.755 471.84 430.8C470.79 436.11 474.37 441.22 476.25 446.39C476.889 448.143 477.351 449.955 477.63 451.8Z" fill="black"/>
<path opacity="0.1" d="M485.65 510.62C486.032 504.728 485.615 498.811 484.41 493.03C484.08 491.42 483.53 489.62 481.73 488.76C480.38 488.11 478.67 488.16 477.17 487.76C476.255 487.534 475.404 487.105 474.678 486.504C473.953 485.903 473.372 485.146 472.98 484.29C472.71 485.65 472.47 487.02 472.27 488.38C471.71 492.27 472.38 497.24 477.17 498.53C478.67 498.93 480.38 498.88 481.73 499.53C483.53 500.4 484.08 502.19 484.41 503.81C484.965 506.49 485.352 509.202 485.57 511.93C485.59 511.49 485.62 511.05 485.65 510.62Z" fill="black"/>
<path opacity="0.1" d="M536.85 508.49C535.245 511.148 532.954 513.325 530.218 514.794C527.483 516.263 524.402 516.97 521.3 516.84C518.03 516.68 514.3 515.64 511.74 517.18C510.01 518.18 509.48 520.05 508.09 521.35C504.77 524.45 498.41 523.4 493.49 522.07C491.657 521.693 489.907 520.992 488.32 520C486.964 519.002 486.047 517.519 485.76 515.86C485.76 517.7 485.76 519.55 485.65 521.39C485.43 524.7 485.19 528.5 488.32 530.78C489.91 531.763 491.66 532.461 493.49 532.84C498.41 534.17 504.77 535.22 508.09 532.13C509.48 530.82 510.01 528.98 511.74 527.95C514.34 526.41 518.03 527.45 521.3 527.61C524.402 527.74 527.483 527.033 530.218 525.564C532.954 524.095 535.245 521.918 536.85 519.26C539.4 514.67 539.29 509.48 538.4 504.52C538.06 505.906 537.538 507.24 536.85 508.49Z" fill="black"/>
<path opacity="0.1" d="M548.23 420.65C546.866 421.603 545.644 422.744 544.6 424.04C543.818 425.409 543.508 426.998 543.72 428.56C543.896 430.527 544.313 432.465 544.96 434.33C545.958 433.261 547.052 432.287 548.23 431.42C554.12 426.42 555.55 419.32 553.64 412.67C552.635 415.792 550.758 418.561 548.23 420.65Z" fill="black"/>
<path opacity="0.1" d="M546.49 465.57C543.3 468 538.65 469.41 536.65 472.5C535.741 474.085 535.337 475.909 535.49 477.73C535.567 479.832 535.825 481.923 536.26 483.98C536.37 483.736 536.501 483.502 536.65 483.28C538.65 480.18 543.3 478.77 546.49 476.34C551.93 472.17 552.39 465.58 550.78 459.7C549.956 462.035 548.464 464.076 546.49 465.57Z" fill="black"/>
</g>
<path d="M587.49 467.77C583.81 477.11 579.04 480.77 579.04 480.77H576.39L553.1 481.01L550.41 473.65L554.18 457.76L556.51 457.85C557.91 458.591 559.43 459.078 561 459.29C562.71 459.29 566 459.2 567 459.65C567.138 459.71 567.291 459.73 567.44 459.71C568.32 459.62 569.24 458.3 569.24 458.3C569.24 458.3 591.16 458.43 587.49 467.77Z" fill="#90D8EA"/>
<path opacity="0.1" d="M587.49 467.77C583.81 477.11 579.04 480.77 579.04 480.77H576.39C577.78 477.07 580.69 469.48 581.83 467.77C582.97 466.06 573.16 461.98 567.46 459.77C568.34 459.68 569.26 458.36 569.26 458.36C569.26 458.36 591.16 458.43 587.49 467.77Z" fill="black"/>
<path d="M126.88 262.672C127.614 262.672 128.208 262.077 128.208 261.344C128.208 260.61 127.614 260.016 126.88 260.016C126.147 260.016 125.552 260.61 125.552 261.344C125.552 262.077 126.147 262.672 126.88 262.672Z" fill="url(#paint35_linear)"/>
<path d="M127.108 267.034C126.383 266.927 125.707 267.428 125.6 268.154C125.237 270.605 123.165 272.638 120.058 273.592C116.736 274.612 112.126 274.27 109.314 271.207C108.818 270.667 107.978 270.631 107.437 271.127C106.897 271.623 106.861 272.464 107.357 273.004C108.986 274.777 111.197 275.985 113.752 276.498C114.654 276.679 115.59 276.769 116.533 276.769C117.988 276.769 119.458 276.555 120.837 276.131C124.948 274.869 127.71 272.032 128.227 268.543C128.335 267.817 127.834 267.142 127.108 267.034Z" fill="url(#paint36_linear)"/>
<path d="M145.568 255.289C143.154 252.49 139.822 250.676 135.811 249.947C139.651 247.356 142.963 244.777 145.324 242.527C148.925 239.097 150.132 236.686 149.124 234.941C148.002 232.997 144.764 233.011 138.933 234.983C134.006 236.65 127.868 239.545 121.65 243.135C120.576 243.755 119.512 244.39 118.471 245.03C117.699 242.849 118.208 240.359 119.912 238.199C121.188 236.581 121.473 234.527 120.655 232.837C119.799 231.065 117.919 230.005 115.623 230H115.561C107.458 230 99.5332 233.197 93.2455 239.002C86.9499 244.814 83.0957 252.508 82.3929 260.667C81.5472 270.492 84.688 279.833 91.2363 286.97C97.669 293.98 106.789 298 116.257 298C121.354 298 126.139 297.067 130.479 295.228C134.448 293.546 137.972 291.144 140.953 288.089C143.718 285.256 145.898 281.995 147.432 278.396C148.893 274.972 149.69 271.343 149.74 267.902C149.812 262.898 148.369 258.536 145.568 255.289ZM118.627 248.061C120.032 247.174 121.496 246.291 122.978 245.435C128.727 242.116 134.452 239.382 139.098 237.737C144.213 235.926 146.307 236.044 146.795 236.278C146.753 236.587 146.369 237.962 143.013 241.053C140.21 243.634 136.117 246.669 131.489 249.599C130.026 250.526 128.503 251.447 126.963 252.336C124.84 253.562 122.718 254.707 120.636 255.756C120.221 254.544 119.688 253.367 119.04 252.245C118.412 251.157 117.684 250.136 116.87 249.191C117.446 248.813 118.032 248.435 118.627 248.061ZM118.23 256.935C114.48 258.713 111.039 260.069 108.291 260.856C108.147 260.168 107.896 259.504 107.539 258.886C107.201 258.299 106.776 257.775 106.286 257.323C108.343 255.338 111.239 253.037 114.648 250.684C115.44 251.569 116.142 252.536 116.74 253.573C117.359 254.645 117.857 255.772 118.23 256.935ZM147.084 267.864C146.894 281.08 135.054 295.344 116.257 295.344C107.531 295.344 99.1244 291.637 93.1936 285.174C87.1542 278.592 84.2585 269.97 85.0394 260.895C86.3807 245.324 100.072 232.656 115.561 232.656H115.62C116.891 232.659 117.855 233.146 118.264 233.993C118.641 234.772 118.477 235.729 117.826 236.554C115.432 239.589 114.832 243.321 116.185 246.468C115.473 246.927 114.773 247.388 114.097 247.845C114.093 247.847 114.09 247.849 114.087 247.851C109.864 250.701 106.298 253.535 103.925 255.921C102.125 255.306 100.148 255.485 98.4673 256.455C95.708 258.049 92.0849 265.476 91.3867 266.949C91.1997 267.343 91.2184 267.804 91.4365 268.182C91.6547 268.56 92.0445 268.807 92.4793 268.842C93.2134 268.902 95.2979 269.052 97.618 269.052C100.433 269.052 103.595 268.83 105.108 267.957C106.747 267.011 107.883 265.43 108.276 263.613C111.533 262.758 115.788 261.086 120.397 258.84C122.979 257.584 125.635 256.169 128.291 254.637C129.638 253.859 130.97 253.057 132.264 252.248C132.272 252.248 132.28 252.249 132.287 252.25C143.357 252.567 147.189 260.524 147.084 267.864ZM105.766 262.455C105.681 263.791 104.939 264.987 103.78 265.656C102.524 266.382 98.2091 266.48 94.6663 266.318C96.2966 263.169 98.5383 259.482 99.7957 258.755C100.983 258.07 102.418 258.04 103.636 258.675C104.305 259.024 104.859 259.556 105.238 260.213C105.633 260.897 105.815 261.672 105.766 262.455Z" fill="url(#paint37_linear)"/>
<path d="M105.63 238.213C102.701 238.213 100.318 240.596 100.318 243.526C100.318 246.455 102.701 248.838 105.63 248.838C108.56 248.838 110.943 246.455 110.943 243.526C110.943 240.596 108.56 238.213 105.63 238.213ZM105.63 246.182C104.166 246.182 102.974 244.99 102.974 243.526C102.974 242.061 104.166 240.869 105.63 240.869C107.095 240.869 108.287 242.061 108.287 243.526C108.287 244.99 107.095 246.182 105.63 246.182Z" fill="url(#paint38_linear)"/>
<path d="M98.9897 273.901C96.0604 273.901 93.6772 276.284 93.6772 279.214C93.6772 282.143 96.0604 284.526 98.9897 284.526C101.919 284.526 104.302 282.143 104.302 279.214C104.302 276.284 101.919 273.901 98.9897 273.901ZM98.9897 281.87C97.525 281.87 96.3334 280.678 96.3334 279.214C96.3334 277.749 97.525 276.557 98.9897 276.557C100.454 276.557 101.646 277.749 101.646 279.214C101.646 280.678 100.454 281.87 98.9897 281.87Z" fill="url(#paint39_linear)"/>
<path d="M112.271 281.87C109.342 281.87 106.958 284.253 106.958 287.182C106.958 290.112 109.342 292.495 112.271 292.495C115.2 292.495 117.583 290.112 117.583 287.182C117.583 284.253 115.2 281.87 112.271 281.87ZM112.271 289.839C110.806 289.839 109.615 288.647 109.615 287.182C109.615 285.718 110.806 284.526 112.271 284.526C113.736 284.526 114.927 285.718 114.927 287.182C114.927 288.647 113.736 289.839 112.271 289.839Z" fill="url(#paint40_linear)"/>
<path d="M128.208 279.214C125.279 279.214 122.896 281.597 122.896 284.526C122.896 287.455 125.279 289.839 128.208 289.839C131.138 289.839 133.521 287.455 133.521 284.526C133.521 281.597 131.138 279.214 128.208 279.214ZM128.208 287.182C126.744 287.182 125.552 285.991 125.552 284.526C125.552 283.062 126.744 281.87 128.208 281.87C129.673 281.87 130.865 283.062 130.865 284.526C130.865 285.991 129.673 287.182 128.208 287.182Z" fill="url(#paint41_linear)"/>
<path d="M138.833 265.932C135.904 265.932 133.521 268.316 133.521 271.245C133.521 274.174 135.904 276.557 138.833 276.557C141.763 276.557 144.146 274.174 144.146 271.245C144.146 268.316 141.763 265.932 138.833 265.932ZM138.833 273.901C137.369 273.901 136.177 272.71 136.177 271.245C136.177 269.78 137.369 268.589 138.833 268.589C140.298 268.589 141.49 269.78 141.49 271.245C141.49 272.71 140.298 273.901 138.833 273.901Z" fill="url(#paint42_linear)"/>
<g clip-path="url(#clip1)">
<path d="M339.364 367.296C339.045 364.894 339 360.758 341.23 359.369C341.27 359.344 341.3 359.307 341.335 359.275C343.158 358.692 344.42 357.873 343.43 356.772L316.528 348.666L272.969 354.722C272.969 354.722 267.981 355.435 268.427 363.185C268.669 367.403 269.991 369.474 271.148 370.494L267.574 371.571C266.582 372.672 267.844 373.491 269.668 374.074C269.702 374.106 269.731 374.143 269.772 374.168C272.001 375.558 271.958 379.694 271.638 382.096C263.629 384.37 266.504 385.111 266.504 385.111L268.261 385.536C267.025 386.653 265.798 388.77 266.028 392.786C266.474 400.534 270.571 401.069 270.571 401.069L299.076 410.334L342.1 399.912C342.1 399.912 344.976 399.17 336.966 396.896C336.644 394.498 336.599 390.363 338.833 388.969C338.874 388.944 338.904 388.907 338.937 388.876C340.761 388.292 342.022 387.474 341.031 386.373L339.161 385.808C340.408 385.056 342.282 383.091 342.575 377.985C342.778 374.473 341.861 372.416 340.801 371.205L344.497 370.311C344.498 370.312 347.373 369.57 339.364 367.296ZM303.376 367.196L310.612 365.709L335.062 360.685L338.705 359.936C337.541 362.066 337.59 364.981 337.783 366.855C337.825 367.279 337.873 367.666 337.92 367.961L333.933 368.952L303.072 376.629L303.376 367.196ZM272.297 374.737L275.94 375.486L299.421 380.313L301.472 380.733L307.624 381.998L307.928 391.431L276.209 383.539L273.082 382.762C273.128 382.468 273.177 382.081 273.221 381.656C273.412 379.784 273.462 376.867 272.297 374.737ZM270.882 362.812C270.838 360.751 271.205 359.26 271.948 358.502C272.42 358.018 272.978 357.918 273.36 357.918C273.562 357.918 273.708 357.946 273.718 357.946L292.486 364.065L301.85 367.117L301.543 376.616L275.274 369.251L273.887 368.863C273.836 368.849 273.767 368.839 273.714 368.836C273.606 368.829 271.009 368.59 270.882 362.812ZM299.144 406.218L271.489 398.465C271.437 398.45 271.369 398.44 271.316 398.438C271.206 398.43 268.607 398.192 268.482 392.415C268.437 390.351 268.806 388.862 269.547 388.104C270.021 387.62 270.579 387.519 270.96 387.519C271.163 387.519 271.308 387.546 271.318 387.546C271.318 387.546 271.32 387.546 271.318 387.546L299.449 396.719L299.144 406.218ZM335.382 396.456C335.425 396.881 335.474 397.268 335.521 397.563L300.672 406.232L300.977 396.799L308.427 395.267L309.528 395.533L313.652 394.193L332.661 390.287L336.306 389.537C335.141 391.667 335.189 394.584 335.382 396.456ZM337.301 383.636C337.238 383.638 337.174 383.646 337.115 383.665L334.487 384.401L309.461 391.418L309.155 381.92L317.365 379.241L337.247 372.758C337.249 372.757 338.292 372.525 339.058 373.304C339.799 374.061 340.167 375.552 340.124 377.613C339.994 383.389 337.396 383.629 337.301 383.636Z" fill="url(#paint43_linear)"/>
</g>
</g>
<defs>
<linearGradient id="paint0_linear" x1="574.38" y1="475.05" x2="574.38" y2="386.31" gradientUnits="userSpaceOnUse">
<stop stop-color="#808080" stop-opacity="0.25"/>
<stop offset="0.54" stop-color="#808080" stop-opacity="0.12"/>
<stop offset="1" stop-color="#808080" stop-opacity="0.1"/>
</linearGradient>
<linearGradient id="paint1_linear" x1="15961.3" y1="18712.4" x2="15961.3" y2="18262.9" gradientUnits="userSpaceOnUse">
<stop stop-color="#808080" stop-opacity="0.25"/>
<stop offset="0.54" stop-color="#808080" stop-opacity="0.12"/>
<stop offset="1" stop-color="#808080" stop-opacity="0.1"/>
</linearGradient>
<linearGradient id="paint2_linear" x1="15046.6" y1="18626" x2="15046.6" y2="18176.3" gradientUnits="userSpaceOnUse">
<stop stop-color="#808080" stop-opacity="0.25"/>
<stop offset="0.54" stop-color="#808080" stop-opacity="0.12"/>
<stop offset="1" stop-color="#808080" stop-opacity="0.1"/>
</linearGradient>
<linearGradient id="paint3_linear" x1="9407.65" y1="7598.47" x2="9407.65" y2="7531.88" gradientUnits="userSpaceOnUse">
<stop stop-color="#808080" stop-opacity="0.25"/>
<stop offset="0.54" stop-color="#808080" stop-opacity="0.12"/>
<stop offset="1" stop-color="#808080" stop-opacity="0.1"/>
</linearGradient>
<linearGradient id="paint4_linear" x1="10594.7" y1="7863.93" x2="10594.7" y2="7791.87" gradientUnits="userSpaceOnUse">
<stop stop-color="#808080" stop-opacity="0.25"/>
<stop offset="0.54" stop-color="#808080" stop-opacity="0.12"/>
<stop offset="1" stop-color="#808080" stop-opacity="0.1"/>
</linearGradient>
<linearGradient id="paint5_linear" x1="50086.8" y1="179663" x2="50086.8" y2="133651" gradientUnits="userSpaceOnUse">
<stop stop-color="#808080" stop-opacity="0.25"/>
<stop offset="0.54" stop-color="#808080" stop-opacity="0.12"/>
<stop offset="1" stop-color="#808080" stop-opacity="0.1"/>
</linearGradient>
<linearGradient id="paint6_linear" x1="8121.96" y1="1092.91" x2="8121.96" y2="1092.58" gradientUnits="userSpaceOnUse">
<stop stop-color="#808080" stop-opacity="0.25"/>
<stop offset="0.54" stop-color="#808080" stop-opacity="0.12"/>
<stop offset="1" stop-color="#808080" stop-opacity="0.1"/>
</linearGradient>
<linearGradient id="paint7_linear" x1="8097.99" y1="1645.21" x2="8097.99" y2="1643.49" gradientUnits="userSpaceOnUse">
<stop stop-color="#808080" stop-opacity="0.25"/>
<stop offset="0.54" stop-color="#808080" stop-opacity="0.12"/>
<stop offset="1" stop-color="#808080" stop-opacity="0.1"/>
</linearGradient>
<linearGradient id="paint8_linear" x1="6190.96" y1="2303.53" x2="6190.96" y2="2298.63" gradientUnits="userSpaceOnUse">
<stop stop-color="#808080" stop-opacity="0.25"/>
<stop offset="0.54" stop-color="#808080" stop-opacity="0.12"/>
<stop offset="1" stop-color="#808080" stop-opacity="0.1"/>
</linearGradient>
<linearGradient id="paint9_linear" x1="8922.63" y1="32261.5" x2="8922.63" y2="29719.9" gradientUnits="userSpaceOnUse">
<stop stop-color="#808080" stop-opacity="0.25"/>
<stop offset="0.54" stop-color="#808080" stop-opacity="0.12"/>
<stop offset="1" stop-color="#808080" stop-opacity="0.1"/>
</linearGradient>
<linearGradient id="paint10_linear" x1="22518.8" y1="18807.1" x2="22518.8" y2="17058.2" gradientUnits="userSpaceOnUse">
<stop stop-color="#808080" stop-opacity="0.25"/>
<stop offset="0.54" stop-color="#808080" stop-opacity="0.12"/>
<stop offset="1" stop-color="#808080" stop-opacity="0.1"/>
</linearGradient>
<linearGradient id="paint11_linear" x1="24711.4" y1="16963.1" x2="24711.4" y2="15925.7" gradientUnits="userSpaceOnUse">
<stop stop-color="#808080" stop-opacity="0.25"/>
<stop offset="0.54" stop-color="#808080" stop-opacity="0.12"/>
<stop offset="1" stop-color="#808080" stop-opacity="0.1"/>
</linearGradient>
<linearGradient id="paint12_linear" x1="49420.3" y1="10065.5" x2="49420.3" y2="9842.1" gradientUnits="userSpaceOnUse">
<stop stop-color="#808080" stop-opacity="0.25"/>
<stop offset="0.54" stop-color="#808080" stop-opacity="0.12"/>
<stop offset="1" stop-color="#808080" stop-opacity="0.1"/>
</linearGradient>
<linearGradient id="paint13_linear" x1="58415.9" y1="87326.9" x2="58415.9" y2="68533.4" gradientUnits="userSpaceOnUse">
<stop stop-color="#808080" stop-opacity="0.25"/>
<stop offset="0.54" stop-color="#808080" stop-opacity="0.12"/>
<stop offset="1" stop-color="#808080" stop-opacity="0.1"/>
</linearGradient>
<linearGradient id="paint14_linear" x1="12194.8" y1="29540.6" x2="12194.8" y2="27049" gradientUnits="userSpaceOnUse">
<stop stop-color="#808080" stop-opacity="0.25"/>
<stop offset="0.54" stop-color="#808080" stop-opacity="0.12"/>
<stop offset="1" stop-color="#808080" stop-opacity="0.1"/>
</linearGradient>
<linearGradient id="paint15_linear" x1="12194.4" y1="6656.12" x2="12194.4" y2="6545.22" gradientUnits="userSpaceOnUse">
<stop stop-color="#808080" stop-opacity="0.25"/>
<stop offset="0.54" stop-color="#808080" stop-opacity="0.12"/>
<stop offset="1" stop-color="#808080" stop-opacity="0.1"/>
</linearGradient>
<linearGradient id="paint16_linear" x1="35970.1" y1="7244.87" x2="35970.1" y2="7111.47" gradientUnits="userSpaceOnUse">
<stop stop-color="#808080" stop-opacity="0.25"/>
<stop offset="0.54" stop-color="#808080" stop-opacity="0.12"/>
<stop offset="1" stop-color="#808080" stop-opacity="0.1"/>
</linearGradient>
<linearGradient id="paint17_linear" x1="4664.5" y1="11461.8" x2="4664.5" y2="11137.5" gradientUnits="userSpaceOnUse">
<stop stop-color="#808080" stop-opacity="0.25"/>
<stop offset="0.54" stop-color="#808080" stop-opacity="0.12"/>
<stop offset="1" stop-color="#808080" stop-opacity="0.1"/>
</linearGradient>
<linearGradient id="paint18_linear" x1="15226.5" y1="2110.32" x2="15226.5" y2="2103.76" gradientUnits="userSpaceOnUse">
<stop stop-color="#808080" stop-opacity="0.25"/>
<stop offset="0.54" stop-color="#808080" stop-opacity="0.12"/>
<stop offset="1" stop-color="#808080" stop-opacity="0.1"/>
</linearGradient>
<linearGradient id="paint19_linear" x1="1908.02" y1="9571.8" x2="1908.02" y2="9289.58" gradientUnits="userSpaceOnUse">
<stop stop-color="#808080" stop-opacity="0.25"/>
<stop offset="0.54" stop-color="#808080" stop-opacity="0.12"/>
<stop offset="1" stop-color="#808080" stop-opacity="0.1"/>
</linearGradient>
<linearGradient id="paint20_linear" x1="1494.26" y1="6340.88" x2="1494.26" y2="6215.36" gradientUnits="userSpaceOnUse">
<stop stop-color="#808080" stop-opacity="0.25"/>
<stop offset="0.54" stop-color="#808080" stop-opacity="0.12"/>
<stop offset="1" stop-color="#808080" stop-opacity="0.1"/>
</linearGradient>
<linearGradient id="paint21_linear" x1="1983.38" y1="4226.8" x2="1983.38" y2="4183.25" gradientUnits="userSpaceOnUse">
<stop stop-color="#808080" stop-opacity="0.25"/>
<stop offset="0.54" stop-color="#808080" stop-opacity="0.12"/>
<stop offset="1" stop-color="#808080" stop-opacity="0.1"/>
</linearGradient>
<linearGradient id="paint22_linear" x1="2640.77" y1="3442.59" x2="2640.77" y2="3414.09" gradientUnits="userSpaceOnUse">
<stop stop-color="#808080" stop-opacity="0.25"/>
<stop offset="0.54" stop-color="#808080" stop-opacity="0.12"/>
<stop offset="1" stop-color="#808080" stop-opacity="0.1"/>
</linearGradient>
<linearGradient id="paint23_linear" x1="16704.3" y1="2886.54" x2="16704.3" y2="2874.44" gradientUnits="userSpaceOnUse">
<stop stop-color="#808080" stop-opacity="0.25"/>
<stop offset="0.54" stop-color="#808080" stop-opacity="0.12"/>
<stop offset="1" stop-color="#808080" stop-opacity="0.1"/>
</linearGradient>
<linearGradient id="paint24_linear" x1="16736.1" y1="2493.79" x2="16736.1" y2="2485.5" gradientUnits="userSpaceOnUse">
<stop stop-color="#808080" stop-opacity="0.25"/>
<stop offset="0.54" stop-color="#808080" stop-opacity="0.12"/>
<stop offset="1" stop-color="#808080" stop-opacity="0.1"/>
</linearGradient>
<linearGradient id="paint25_linear" x1="9763.7" y1="839.177" x2="9763.7" y2="839.059" gradientUnits="userSpaceOnUse">
<stop stop-color="#808080" stop-opacity="0.25"/>
<stop offset="0.54" stop-color="#808080" stop-opacity="0.12"/>
<stop offset="1" stop-color="#808080" stop-opacity="0.1"/>
</linearGradient>
<linearGradient id="paint26_linear" x1="6998.06" y1="3737.01" x2="6998.06" y2="3715.4" gradientUnits="userSpaceOnUse">
<stop stop-color="#808080" stop-opacity="0.25"/>
<stop offset="0.54" stop-color="#808080" stop-opacity="0.12"/>
<stop offset="1" stop-color="#808080" stop-opacity="0.1"/>
</linearGradient>
<linearGradient id="paint27_linear" x1="49456.8" y1="88233.5" x2="49456.8" y2="65649.8" gradientUnits="userSpaceOnUse">
<stop stop-color="#808080" stop-opacity="0.25"/>
<stop offset="0.54" stop-color="#808080" stop-opacity="0.12"/>
<stop offset="1" stop-color="#808080" stop-opacity="0.1"/>
</linearGradient>
<linearGradient id="paint28_linear" x1="3994.23" y1="12568.6" x2="3994.23" y2="11983" gradientUnits="userSpaceOnUse">
<stop stop-color="#808080" stop-opacity="0.25"/>
<stop offset="0.54" stop-color="#808080" stop-opacity="0.12"/>
<stop offset="1" stop-color="#808080" stop-opacity="0.1"/>
</linearGradient>
<linearGradient id="paint29_linear" x1="8082.15" y1="16151" x2="8082.15" y2="15374.6" gradientUnits="userSpaceOnUse">
<stop stop-color="#808080" stop-opacity="0.25"/>
<stop offset="0.54" stop-color="#808080" stop-opacity="0.12"/>
<stop offset="1" stop-color="#808080" stop-opacity="0.1"/>
</linearGradient>
<linearGradient id="paint30_linear" x1="32042.7" y1="17972.5" x2="32042.7" y2="17080.2" gradientUnits="userSpaceOnUse">
<stop stop-color="#808080" stop-opacity="0.25"/>
<stop offset="0.54" stop-color="#808080" stop-opacity="0.12"/>
<stop offset="1" stop-color="#808080" stop-opacity="0.1"/>
</linearGradient>
<linearGradient id="paint31_linear" x1="7319.79" y1="10984.2" x2="7319.79" y2="10507.3" gradientUnits="userSpaceOnUse">
<stop stop-color="#808080" stop-opacity="0.25"/>
<stop offset="0.54" stop-color="#808080" stop-opacity="0.12"/>
<stop offset="1" stop-color="#808080" stop-opacity="0.1"/>
</linearGradient>
<linearGradient id="paint32_linear" x1="10587.9" y1="13540.7" x2="10587.9" y2="12941.2" gradientUnits="userSpaceOnUse">
<stop stop-color="#808080" stop-opacity="0.25"/>
<stop offset="0.54" stop-color="#808080" stop-opacity="0.12"/>
<stop offset="1" stop-color="#808080" stop-opacity="0.1"/>
</linearGradient>
<linearGradient id="paint33_linear" x1="24899.9" y1="12898.1" x2="24899.9" y2="12349.1" gradientUnits="userSpaceOnUse">
<stop stop-color="#808080" stop-opacity="0.25"/>
<stop offset="0.54" stop-color="#808080" stop-opacity="0.12"/>
<stop offset="1" stop-color="#808080" stop-opacity="0.1"/>
</linearGradient>
<linearGradient id="paint34_linear" x1="14025.9" y1="12489.4" x2="14025.9" y2="11975.9" gradientUnits="userSpaceOnUse">
<stop stop-color="#808080" stop-opacity="0.25"/>
<stop offset="0.54" stop-color="#808080" stop-opacity="0.12"/>
<stop offset="1" stop-color="#808080" stop-opacity="0.1"/>
</linearGradient>
<linearGradient id="paint35_linear" x1="114.937" y1="283.125" x2="114.937" y2="230" gradientUnits="userSpaceOnUse">
<stop stop-color="#DE1111"/>
<stop offset="1" stop-color="#11A6DE"/>
</linearGradient>
<linearGradient id="paint36_linear" x1="114.937" y1="283.125" x2="114.937" y2="230" gradientUnits="userSpaceOnUse">
<stop stop-color="#DE1111"/>
<stop offset="1" stop-color="#11A6DE"/>
</linearGradient>
<linearGradient id="paint37_linear" x1="114.938" y1="283.125" x2="114.938" y2="230" gradientUnits="userSpaceOnUse">
<stop stop-color="#DE1111"/>
<stop offset="1" stop-color="#11A6DE"/>
</linearGradient>
<linearGradient id="paint38_linear" x1="114.938" y1="283.125" x2="114.938" y2="230" gradientUnits="userSpaceOnUse">
<stop stop-color="#DE1111"/>
<stop offset="1" stop-color="#11A6DE"/>
</linearGradient>
<linearGradient id="paint39_linear" x1="114.938" y1="283.125" x2="114.938" y2="230" gradientUnits="userSpaceOnUse">
<stop stop-color="#DE1111"/>
<stop offset="1" stop-color="#11A6DE"/>
</linearGradient>
<linearGradient id="paint40_linear" x1="114.938" y1="283.125" x2="114.938" y2="230" gradientUnits="userSpaceOnUse">
<stop stop-color="#DE1111"/>
<stop offset="1" stop-color="#11A6DE"/>
</linearGradient>
<linearGradient id="paint41_linear" x1="114.937" y1="283.125" x2="114.937" y2="230" gradientUnits="userSpaceOnUse">
<stop stop-color="#DE1111"/>
<stop offset="1" stop-color="#11A6DE"/>
</linearGradient>
<linearGradient id="paint42_linear" x1="114.937" y1="283.125" x2="114.937" y2="230" gradientUnits="userSpaceOnUse">
<stop stop-color="#DE1111"/>
<stop offset="1" stop-color="#11A6DE"/>
</linearGradient>
<linearGradient id="paint43_linear" x1="324.47" y1="456.94" x2="324.47" y2="340" gradientUnits="userSpaceOnUse">
<stop stop-color="#E5127F"/>
<stop offset="1" stop-color="#11A6DE"/>
</linearGradient>
<clipPath id="clip0">
<rect width="1062" height="794.36" fill="white"/>
</clipPath>
<clipPath id="clip1">
<rect width="79" height="79" fill="white" transform="translate(266 340)"/>
</clipPath>
</defs>
</svg>
