<svg width="1053" height="276" viewBox="0 0 1053 276" fill="none" xmlns="http://www.w3.org/2000/svg">
<path d="M135.125 4.23438C131.844 9.67188 126.594 14.3125 119.375 18.1562C112.156 21.9063 105.219 23.7812 98.5625 23.7812C92 23.7812 82.7656 21.8594 70.8594 18.0156C59.0469 14.1719 51.4062 12.25 47.9375 12.25C41.4688 12.25 35.8906 14.7344 31.2031 19.7031C26.6094 24.6719 24.3125 30.6719 24.3125 37.7031C24.3125 44.5469 26.4219 50.1719 30.6406 54.5781C34.9531 58.8906 40.25 62.3125 46.5312 64.8438C52.9062 67.2812 62.7969 70.375 76.2031 74.125C89.6094 77.7812 100.391 81.3906 108.547 84.9531C116.703 88.4219 123.594 93.6719 129.219 100.703C134.938 107.641 137.797 116.781 137.797 128.125C137.797 145.094 130.812 160.188 116.844 173.406C102.969 186.625 85.7656 193.234 65.2344 193.234C46.4844 193.234 30.9219 188.312 18.5469 178.469C6.26562 168.625 0.125 156.906 0.125 143.312C0.125 133.281 3.73438 124.938 10.9531 118.281C18.1719 111.531 27.5 108.156 38.9375 108.156C50.9375 108.156 61.0625 111.484 69.3125 118.141C77.6562 124.703 81.8281 132.531 81.8281 141.625C81.8281 147.812 79.6719 152.922 75.3594 156.953C71.1406 160.891 66.0312 162.859 60.0312 162.859C50.0938 162.859 42.6875 158.266 37.8125 149.078L41.3281 147.109C44.8906 150.766 48.8281 152.594 53.1406 152.594C57.7344 152.594 61.5312 151 64.5312 147.812C67.625 144.531 69.1719 140.453 69.1719 135.578C69.1719 129.484 66.5938 124.422 61.4375 120.391C56.375 116.266 50.2344 114.203 43.0156 114.203C34.5781 114.203 27.5469 117.297 21.9219 123.484C16.3906 129.672 13.625 137.078 13.625 145.703C13.625 157.047 18.5938 166.797 28.5312 174.953C38.5625 183.109 51.1719 187.188 66.3594 187.188C82.5781 187.188 96.0781 182.125 106.859 172C117.641 161.781 123.031 149.828 123.031 136.141C123.031 126.766 120.5 119.172 115.438 113.359C110.469 107.547 104.469 103.188 97.4375 100.281C90.5 97.375 80.7969 94.1406 68.3281 90.5781C55.8594 87.0156 46.1094 83.7812 39.0781 80.875C32.1406 77.9688 26.2812 73.75 21.5 68.2188C16.8125 62.6875 14.4688 55.4688 14.4688 46.5625C14.4688 34.375 19.2969 23.9219 28.9531 15.2031C38.6094 6.39062 49.8125 1.98438 62.5625 1.98438C68.4688 1.98438 76.9062 3.53125 87.875 6.625C98.9375 9.625 106.906 11.125 111.781 11.125C119.75 11.125 126.688 7.98438 132.594 1.70312L135.125 4.23438ZM261.688 165.25C251.656 181.656 242.141 190.562 233.141 191.969V236.688C233.141 247.75 229.672 257.031 222.734 264.531C215.891 272.031 207.359 275.781 197.141 275.781C191.328 275.781 185.562 274.281 179.844 271.281C174.125 268.281 169.719 264.109 166.625 258.766L178.438 245.547L180.406 247.375C180.031 249.719 179.844 251.5 179.844 252.719C179.844 257.125 181.719 261.062 185.469 264.531C189.312 268 193.953 269.734 199.391 269.734C205.297 269.734 209.891 267.438 213.172 262.844C216.547 258.344 218.234 252.016 218.234 243.859V165.25C210.547 176.125 204.453 183.578 199.953 187.609C195.453 191.547 191.047 193.516 186.734 193.516C177.734 193.516 173.234 188.594 173.234 178.75V145.703C169.672 153.859 165.078 161.828 159.453 169.609L155.375 165.812C164.469 151.562 170.422 139.656 173.234 130.094L188.281 122.641V178.188C188.281 181.469 189.594 183.109 192.219 183.109H193.625C197.094 183.109 205.297 173.312 218.234 153.719V130.094L233.141 122.641V183.672C239.516 183.109 247.484 175.797 257.047 161.734L261.688 165.25ZM286.859 122.078C294.172 125.828 300.031 131.312 304.438 138.531C308.844 145.75 311.047 153.016 311.047 160.328C311.047 169.047 308.469 176.641 303.312 183.109C298.25 189.578 291.734 192.812 283.766 192.812C279.828 192.812 275.562 191.5 270.969 188.875C266.375 186.25 262.391 182.406 259.016 177.344C261.922 172.844 266.141 169 271.672 165.812L272.797 167.219C272.609 168.156 272.516 169.516 272.516 171.297C272.516 175.328 273.922 178.938 276.734 182.125C279.547 185.219 282.734 186.766 286.297 186.766C290.703 186.766 294.312 184.938 297.125 181.281C299.938 177.531 301.344 172.844 301.344 167.219C301.344 155.594 294.406 145.234 280.531 136.141L268.578 154.984C263.797 162.672 260.328 167.828 258.172 170.453L253.812 166.938C263.375 152.781 272.891 135.531 282.359 115.188L285.734 115.469L286.859 122.078ZM334.953 167.781C324.922 184.281 312.266 193.234 296.984 194.641L296.141 191.969C302.891 190.375 308.609 187.75 313.297 184.094C318.078 180.344 323.891 173.781 330.734 164.406L334.953 167.781ZM397.672 167.5C387.078 184.375 375.875 192.812 364.062 192.812C358.438 192.812 354.922 191.5 353.516 188.875C352.109 186.156 351.406 181.844 351.406 175.938V141.906C345.125 152.688 338.984 162.109 332.984 170.172L328.344 166.938C331.812 161.781 334.766 157.281 337.203 153.438C339.641 149.594 342.594 144.578 346.062 138.391C349.625 132.109 351.406 128.594 351.406 127.844V70.1875L365.469 56.4062V109.984L387.125 75.9531L392.609 80.0312L365.469 122.922V166.094C365.469 172.656 365.75 177.062 366.312 179.312C366.875 181.469 368.422 182.547 370.953 182.547C377.328 182.547 384.922 176.312 393.734 163.844L397.672 167.5ZM473.047 167.781C467.516 176.781 461.469 183.344 454.906 187.469C448.344 191.5 439.719 193.516 429.031 193.516C421.25 193.516 415.062 191.219 410.469 186.625C405.969 181.938 403.719 175.375 403.719 166.938C403.719 164.688 403.906 162.297 404.281 159.766C400.906 164.078 398.328 167.547 396.547 170.172L391.906 166.938C404.094 149.688 413.469 138.391 420.031 133.047C426.594 127.609 433.344 124.891 440.281 124.891C444.125 124.891 447.266 126.016 449.703 128.266C452.234 130.516 453.5 133.422 453.5 136.984C453.5 149.172 442.766 161.172 421.297 172.984C424.203 179.734 430.25 183.109 439.438 183.109C443.844 183.109 448.719 181.516 454.062 178.328C459.5 175.141 464.422 170.5 468.828 164.406L473.047 167.781ZM418.625 167.5C434.188 159.906 441.969 151.469 441.969 142.188C441.969 139.375 441.172 137.078 439.578 135.297C438.078 133.516 436.016 132.625 433.391 132.625C428.609 132.625 424.578 134.828 421.297 139.234C418.016 143.641 416.375 148.938 416.375 155.125C416.375 158.5 416.75 161.359 417.5 163.703C418.25 165.953 418.625 167.219 418.625 167.5ZM611 167.781C600.031 184.469 588.969 192.812 577.812 192.812C574.625 192.812 572.141 191.781 570.359 189.719C568.672 187.562 567.828 182.453 567.828 174.391V141.625C567.828 138.156 566.469 136.422 563.75 136.422C562.156 136.422 560.469 137.078 558.688 138.391C556.906 139.609 554.984 141.484 552.922 144.016C550.953 146.547 548.281 150.719 544.906 156.531C541.531 162.25 539.844 165.531 539.844 166.375V188.594L525.781 195.484V144.156C525.781 139.938 524.328 137.828 521.422 137.828C518.984 137.828 516.312 139.141 513.406 141.766C510.5 144.391 507.172 148.938 503.422 155.406C499.672 161.875 497.797 165.531 497.797 166.375V188.594L483.734 195.484V148.797C480.828 156.203 476.609 163.422 471.078 170.453L466.719 166.938C474.969 155.781 480.641 143.781 483.734 130.938L497.797 124.328V153.438C508.484 135.156 518.562 126.016 528.031 126.016C531.969 126.016 534.922 127.562 536.891 130.656C538.859 133.75 539.844 141.344 539.844 153.438C545.75 143.219 550.953 136.094 555.453 132.062C560.047 128.031 564.828 126.016 569.797 126.016C577.859 126.016 581.891 131.5 581.891 142.469V168.344C581.891 174.906 582.219 178.938 582.875 180.438C583.531 181.844 584.656 182.547 586.25 182.547C590.469 182.547 597.266 176.406 606.641 164.125L611 167.781ZM822.5 4.23438C819.219 9.67188 813.969 14.3125 806.75 18.1562C799.531 21.9063 792.594 23.7812 785.938 23.7812C779.375 23.7812 770.141 21.8594 758.234 18.0156C746.422 14.1719 738.781 12.25 735.312 12.25C728.844 12.25 723.266 14.7344 718.578 19.7031C713.984 24.6719 711.688 30.6719 711.688 37.7031C711.688 44.5469 713.797 50.1719 718.016 54.5781C722.328 58.8906 727.625 62.3125 733.906 64.8438C740.281 67.2812 750.172 70.375 763.578 74.125C776.984 77.7812 787.766 81.3906 795.922 84.9531C804.078 88.4219 810.969 93.6719 816.594 100.703C822.312 107.641 825.172 116.781 825.172 128.125C825.172 145.094 818.188 160.188 804.219 173.406C790.344 186.625 773.141 193.234 752.609 193.234C733.859 193.234 718.297 188.312 705.922 178.469C693.641 168.625 687.5 156.906 687.5 143.312C687.5 133.281 691.109 124.938 698.328 118.281C705.547 111.531 714.875 108.156 726.312 108.156C738.312 108.156 748.438 111.484 756.688 118.141C765.031 124.703 769.203 132.531 769.203 141.625C769.203 147.812 767.047 152.922 762.734 156.953C758.516 160.891 753.406 162.859 747.406 162.859C737.469 162.859 730.062 158.266 725.188 149.078L728.703 147.109C732.266 150.766 736.203 152.594 740.516 152.594C745.109 152.594 748.906 151 751.906 147.812C755 144.531 756.547 140.453 756.547 135.578C756.547 129.484 753.969 124.422 748.812 120.391C743.75 116.266 737.609 114.203 730.391 114.203C721.953 114.203 714.922 117.297 709.297 123.484C703.766 129.672 701 137.078 701 145.703C701 157.047 705.969 166.797 715.906 174.953C725.938 183.109 738.547 187.188 753.734 187.188C769.953 187.188 783.453 182.125 794.234 172C805.016 161.781 810.406 149.828 810.406 136.141C810.406 126.766 807.875 119.172 802.812 113.359C797.844 107.547 791.844 103.188 784.812 100.281C777.875 97.375 768.172 94.1406 755.703 90.5781C743.234 87.0156 733.484 83.7812 726.453 80.875C719.516 77.9688 713.656 73.75 708.875 68.2188C704.188 62.6875 701.844 55.4688 701.844 46.5625C701.844 34.375 706.672 23.9219 716.328 15.2031C725.984 6.39062 737.188 1.98438 749.938 1.98438C755.844 1.98438 764.281 3.53125 775.25 6.625C786.312 9.625 794.281 11.125 799.156 11.125C807.125 11.125 814.062 7.98438 819.969 1.70312L822.5 4.23438ZM868.766 183.391L856.109 196.891L843.453 183.953L856.109 169.891L868.766 183.391ZM959.328 100.141C952.297 113.547 942.406 120.25 929.656 120.25C921.031 120.25 913.953 116.875 908.422 110.125C902.984 103.375 900.266 94.4688 900.266 83.4062C900.266 61.9375 909.5 42.7188 927.969 25.75C946.438 8.6875 968.984 0.15625 995.609 0.15625C1012.95 0.15625 1026.78 4.46875 1037.09 13.0938C1047.41 21.7187 1052.56 32.9687 1052.56 46.8438C1052.56 58.8438 1048.62 70.1406 1040.75 80.7344C1032.88 91.3281 1021.86 98.6406 1007.7 102.672L1006.58 98.4531C1026.17 90.8594 1035.97 76.1406 1035.97 54.2969C1035.97 40.4219 1031.52 29.2656 1022.61 20.8281C1013.7 12.2969 1001.8 8.03125 986.891 8.03125C967.016 8.03125 949.719 14.6406 935 27.8594C920.281 40.9844 912.922 56.7344 912.922 75.1094C912.922 84.8594 915.406 92.7344 920.375 98.7344C925.344 104.641 931.109 107.594 937.672 107.594C946.016 107.594 951.875 104.547 955.25 98.4531L959.328 100.141ZM1007.7 24.0625C999.828 33.25 995.891 45.8594 995.891 61.8906C995.891 66.3906 996.969 75.3438 999.125 88.75C1001.38 102.156 1002.5 113.547 1002.5 122.922C1002.5 143.828 997.156 160.656 986.469 173.406C975.875 186.156 962.516 192.531 946.391 192.531C934.766 192.531 925.203 189.25 917.703 182.688C910.297 176.125 906.594 168.203 906.594 158.922V155.125L925.578 150.766L926.422 152.594C924.359 155.875 923.328 159.625 923.328 163.844C923.328 170.031 925.719 175.375 930.5 179.875C935.375 184.281 941.422 186.484 948.641 186.484C959.422 186.484 968.141 181.984 974.797 172.984C981.547 163.891 984.922 151.328 984.922 135.297C984.922 126.859 984.125 115.703 982.531 101.828C981.031 87.9531 980.281 78.7656 980.281 74.2656C980.281 64.4219 982.109 55.4219 985.766 47.2656C989.422 39.1094 995.562 30.5312 1004.19 21.5312L1007.7 24.0625Z" fill="white"/>
</svg>
