<svg width="255" height="466" viewBox="0 0 255 466" fill="none" xmlns="http://www.w3.org/2000/svg">
<path d="M152.708 282.49C152.343 282.82 151.856 283.369 151.613 283.699C151.735 283.809 151.735 283.919 151.856 284.029C151.978 283.919 152.221 283.809 152.221 283.699C152.465 283.259 152.465 282.82 152.708 282.49Z" fill="url(#paint0_linear)"/>
<path d="M189.942 267.865L179.964 258.848C179.356 258.298 178.382 257.968 177.531 257.968H74.468C73.6162 257.968 72.7645 258.298 72.0344 258.848L62.0567 267.865C60.7182 269.074 60.7182 270.944 62.0567 272.153L98.9256 305.911L115.109 324.825L104.158 396.409C103.914 398.059 105.253 399.598 107.078 399.818C107.322 399.818 107.443 399.818 107.565 399.818C109.268 399.818 110.729 398.718 110.85 397.179L121.558 326.914H130.197L133.361 347.037C133.604 348.686 135.308 349.896 137.133 349.676C138.958 349.456 140.297 347.916 140.053 346.267L136.768 324.825L152.951 305.911L189.82 272.153C191.159 270.944 191.159 269.074 189.942 267.865ZM131.779 320.866H120.585L105.74 303.492L110.242 294.255H142.122L146.624 303.492L131.779 320.866ZM151.613 298.654L148.328 291.946L148.936 291.397C148.449 291.506 147.841 291.396 147.354 291.067C145.772 290.077 144.677 288.647 143.947 287.108L142.852 288.098H109.755C109.39 288.757 108.782 289.197 107.808 289.197C107.687 289.197 107.565 289.197 107.443 289.197C107.078 289.747 106.47 290.297 105.983 290.847C105.618 291.287 104.888 291.506 104.28 291.397C104.158 291.506 104.036 291.726 103.914 291.726L100.629 298.434L69.3574 269.844L73.6162 265.996C73.7379 265.006 74.468 264.346 75.8065 264.346C76.1715 264.346 76.4149 264.456 76.6582 264.566C79.3352 263.576 82.1338 263.027 84.6891 264.016H169.378L169.256 264.126C171.812 263.356 175.097 264.346 177.044 265.666L177.531 265.226L182.763 269.954L151.613 298.654Z" fill="url(#paint1_linear)"/>
<path d="M142.365 360.342C142.122 358.693 140.418 357.483 138.593 357.703C136.768 357.923 135.429 359.462 135.673 361.112L147.841 440.284L126.06 457.877L104.279 440.284L108.782 411.254C109.025 409.605 107.687 408.065 105.861 407.845C104.036 407.625 102.333 408.835 102.089 410.484L97.3437 441.163C97.2221 442.153 97.5871 443.143 98.4389 443.912L123.748 464.255C124.357 464.695 125.208 465.025 126.06 465.025C126.912 465.025 127.642 464.695 128.372 464.255L153.681 443.912C154.533 443.253 154.898 442.263 154.777 441.163L142.365 360.342Z" fill="url(#paint2_linear)"/>
<path d="M167.553 175.388L162.199 178.247C160.739 177.257 159.157 176.487 157.575 175.828V170.22H143.095V175.828C141.392 176.487 139.932 177.257 138.471 178.247L138.228 178.137V165.821C138.228 159.883 124.478 157.134 111.702 157.134C98.9256 157.134 85.1758 159.883 85.1758 165.821V204.967C85.1758 210.905 98.9256 213.654 111.702 213.654C123.87 213.654 136.89 211.125 138.106 205.847L138.471 205.627C139.932 206.617 141.513 207.386 143.095 208.046V213.654H157.575V208.046C159.279 207.386 160.739 206.617 162.199 205.627L167.553 208.486L174.854 197.16L169.5 194.301C169.865 192.762 169.865 191.112 169.5 189.463L174.854 186.604L167.553 175.388ZM132.996 175.388L129.467 180.996C123.748 182.535 117.786 183.305 111.824 183.195C97.7088 183.195 90.5297 180.006 90.043 178.797V170.989H90.1647C90.7731 171.319 91.3814 171.429 91.9898 171.759C92.2332 171.869 92.3549 171.869 92.4766 171.979C92.9633 172.199 93.5717 172.309 94.0584 172.419C94.4234 172.529 94.5451 172.529 94.9101 172.639C95.3969 172.749 96.0053 172.969 96.6137 172.969C96.9787 173.079 97.1004 173.079 97.4654 173.188C98.1955 173.298 98.8039 173.518 99.534 173.518L99.899 173.628C100.751 173.738 101.603 173.958 102.454 173.958L103.184 174.068C103.793 174.178 104.523 174.178 105.131 174.288C105.496 174.288 105.74 174.288 106.105 174.398C106.713 174.398 107.443 174.508 108.052 174.508H108.903C109.877 174.508 110.729 174.508 111.702 174.508C112.675 174.508 113.527 174.508 114.501 174.508H115.352C115.961 174.508 116.691 174.398 117.299 174.398C117.664 174.398 117.908 174.398 118.273 174.288C118.881 174.178 119.611 174.178 120.22 174.068L120.95 173.958C121.923 173.848 122.653 173.738 123.505 173.628L123.87 173.518C124.6 173.408 125.33 173.188 125.938 173.188C126.303 173.079 126.425 173.079 126.79 172.969C127.277 172.859 127.885 172.639 128.494 172.639C128.859 172.529 128.98 172.529 129.345 172.419C129.832 172.199 130.441 172.089 130.927 171.979C131.171 171.869 131.292 171.869 131.414 171.759C132.022 171.539 132.631 171.319 133.239 170.989H133.361V175.498L132.996 175.388ZM111.702 161.423C112.554 161.423 113.405 161.423 114.257 161.423C114.622 161.423 114.744 161.423 115.109 161.423C115.596 161.423 116.204 161.423 116.691 161.533C117.056 161.533 117.543 161.643 117.786 161.643C118.151 161.643 118.516 161.753 118.881 161.753C119.368 161.753 119.854 161.863 120.22 161.863C120.463 161.863 120.706 161.863 120.95 161.972C121.558 162.082 122.045 162.192 122.653 162.192H122.896C129.589 163.182 133.118 164.941 133.483 165.711C133.483 165.711 133.483 165.821 133.361 165.821C133.361 165.931 133.239 165.931 133.239 165.931L133.118 166.041C133.118 166.041 132.996 166.151 132.874 166.261C132.753 166.371 132.753 166.371 132.631 166.371C132.509 166.371 132.387 166.481 132.266 166.591C132.144 166.591 132.022 166.701 132.022 166.701C131.901 166.811 131.779 166.811 131.657 166.921C131.536 166.921 131.414 167.031 131.292 167.031C131.049 167.141 130.927 167.251 130.806 167.251L130.441 167.361C130.197 167.471 130.076 167.58 129.832 167.58C129.711 167.58 129.467 167.69 129.467 167.69C129.224 167.8 129.102 167.91 128.737 167.91C128.615 167.91 128.372 168.02 128.25 168.02C127.885 168.13 127.764 168.24 127.399 168.24C127.155 168.35 127.034 168.35 126.912 168.35C126.547 168.46 126.425 168.46 126.06 168.57C125.817 168.68 125.695 168.68 125.33 168.68C124.965 168.79 124.722 168.79 124.357 168.9C124.113 169.01 123.87 169.01 123.505 169.01C123.14 169.12 122.896 169.12 122.531 169.23C122.166 169.34 121.923 169.34 121.558 169.34C121.193 169.34 120.95 169.45 120.585 169.45C120.22 169.45 119.854 169.56 119.489 169.56C119.124 169.56 118.881 169.67 118.516 169.67C118.151 169.67 117.664 169.78 117.299 169.78C116.934 169.78 116.691 169.89 116.326 169.89C115.839 169.89 115.231 170 114.622 170C114.379 170 114.136 170 113.892 170C113.04 170 112.189 170 111.337 170C109.633 170 107.93 169.89 106.348 169.89C95.6402 169.23 90.043 166.701 89.5563 165.711C90.408 164.612 97.7088 161.423 111.702 161.423ZM90.043 184.185C95.2752 186.494 103.549 187.593 111.824 187.593C116.569 187.593 121.436 187.263 126.06 186.384L125.817 186.714L131.171 189.573C131.049 190.452 130.927 191.112 130.927 191.992C130.927 192.432 131.049 192.981 131.049 193.531C124.843 195.73 118.273 196.61 111.702 196.39C97.5871 196.39 90.408 193.201 89.9213 191.992L90.043 184.185ZM90.043 205.077V197.27C95.2752 199.579 103.671 200.679 111.824 200.679C117.056 200.679 122.166 200.239 127.277 199.139L131.779 206.287C128.737 207.716 122.166 209.366 111.945 209.366C97.5871 209.476 90.2863 206.287 90.043 205.077ZM164.268 188.913C164.754 190.892 164.754 192.981 164.268 194.961L163.902 196.5L168.161 198.699L165.728 202.438L161.469 200.239L160.13 201.338C158.427 202.768 156.48 203.758 154.29 204.307L152.586 204.747V209.256H147.719V204.747L146.016 204.307C143.825 203.758 141.878 202.768 140.175 201.338L138.836 200.239L134.578 202.438L132.144 198.699L136.403 196.5L136.038 194.961C135.551 192.981 135.551 190.892 136.038 188.913L136.403 187.373L132.144 185.174L134.578 181.436L138.836 183.635L140.175 182.535C141.878 181.106 143.825 180.116 146.016 179.566L147.719 179.126V174.618H152.586V179.126L154.29 179.566C156.48 180.116 158.427 181.106 160.13 182.535L161.469 183.635L165.728 181.436L168.161 185.174L163.902 187.373L164.268 188.913Z" fill="url(#paint3_linear)"/>
<path d="M150.274 183.195C145.042 183.195 140.662 187.154 140.662 191.882C140.662 196.61 145.042 200.569 150.274 200.569C155.507 200.569 159.887 196.61 159.887 191.882C159.887 187.154 155.507 183.195 150.274 183.195ZM150.274 196.39C147.597 196.39 145.407 194.411 145.407 191.992C145.407 189.573 147.597 187.593 150.274 187.593C152.951 187.593 155.142 189.573 155.142 191.992C155.142 194.411 152.951 196.39 150.274 196.39Z" fill="url(#paint4_linear)"/>
<path d="M142.974 83.1305H114.135V126.675H142.974V83.1305ZM138.228 87.419V113.48H119.003V87.419H138.228ZM128.494 122.277H118.881V117.878H138.228V122.277H128.494Z" fill="url(#paint5_linear)"/>
<path d="M131.049 120.187C131.049 119.638 130.806 119.088 130.319 118.648C129.711 118.208 128.859 117.878 128.129 118.098C128.007 118.098 127.764 118.208 127.764 118.208C127.642 118.318 127.399 118.318 127.399 118.428C127.277 118.538 127.155 118.648 127.034 118.758C126.669 119.088 126.303 119.747 126.303 120.297C126.303 121.507 127.399 122.496 128.737 122.496C129.954 122.277 131.049 121.397 131.049 120.187Z" fill="url(#paint6_linear)"/>
<path d="M82.7422 130.964H77.875V144.049H126.182V152.736H131.049V144.049H179.234V130.964H174.367V139.65H131.049V130.964H126.182V139.65H82.7422V130.964Z" fill="url(#paint7_linear)"/>
<path d="M70.6959 122.277H65.8288V126.675H94.7885V122.277H89.9213V117.878H104.401V83.1305H56.2161V117.988H70.6959V122.277ZM85.1758 122.277H75.5631V117.878H85.1758V122.277ZM61.0833 87.419H99.6557V104.793H61.0833V87.419ZM61.0833 113.59V109.191H99.6557V113.59H61.0833Z" fill="url(#paint8_linear)"/>
<path d="M152.586 126.675H200.771V83.1305H152.586V126.675ZM196.026 122.277H157.453V100.504H196.026V122.277ZM157.453 87.419H196.026V96.1059H157.453V87.419Z" fill="url(#paint9_linear)"/>
<path d="M163.538 90.058C163.416 89.9481 163.172 89.8381 163.172 89.8381C163.051 89.7281 162.807 89.7281 162.807 89.7281C161.956 89.5082 161.226 89.8381 160.617 90.2779C160.374 90.4979 160.252 90.7178 160.13 91.0477C159.765 91.9274 159.887 92.807 160.617 93.3568C160.861 93.5768 161.104 93.6867 161.469 93.7967C162.077 94.0166 162.686 94.0166 163.294 93.7967C163.659 93.6867 163.781 93.4668 164.146 93.3568C164.511 93.027 164.876 92.3672 164.876 91.8174C164.876 91.2676 164.633 90.7178 164.146 90.2779C163.903 90.168 163.781 90.168 163.538 90.058Z" fill="url(#paint10_linear)"/>
<path d="M171.203 90.168C170.23 89.2883 168.77 89.2883 167.796 90.168C167.553 90.3879 167.431 90.6079 167.31 90.9377C167.188 91.2676 167.066 91.4875 167.066 91.8174C167.066 92.1473 167.188 92.3672 167.31 92.6971C167.431 93.027 167.675 93.1369 167.796 93.4668C168.526 94.1266 169.5 94.3465 170.352 93.9067C170.717 93.7967 170.838 93.5768 171.203 93.4668C171.447 93.2469 171.568 93.027 171.69 92.6971C171.933 92.1473 171.933 91.5975 171.69 91.0477C171.69 90.7178 171.447 90.4979 171.203 90.168Z" fill="url(#paint11_linear)"/>
<path d="M178.504 90.168C178.261 89.9481 178.017 89.8381 177.652 89.7282C177.287 89.5082 176.679 89.5082 176.192 89.6182C176.071 89.6182 175.827 89.7282 175.827 89.7282C175.705 89.8381 175.462 89.8381 175.462 89.9481C175.462 90.058 175.219 90.168 175.097 90.278C174.854 90.4979 174.732 90.7178 174.61 91.0477C174.367 91.5975 174.367 92.1473 174.61 92.6971C174.732 93.027 174.975 93.1369 175.097 93.4668C175.34 93.6867 175.584 93.7967 175.949 93.9067C176.314 94.0166 176.557 94.1266 176.922 94.1266C177.531 94.1266 178.139 93.9067 178.626 93.4668C178.869 93.2469 178.991 93.027 179.112 92.6971C179.356 92.1473 179.356 91.5975 179.112 91.0477C178.869 90.7178 178.747 90.4979 178.504 90.168Z" fill="url(#paint12_linear)"/>
<path d="M230.583 47.723C228.758 45.4139 225.229 44.8641 222.674 46.6234C220.119 48.2728 219.51 51.4617 221.457 53.7709C235.815 71.6945 243.481 93.027 243.481 115.239C243.481 136.681 236.424 157.574 223.282 175.938C203.692 203.098 190.672 223.001 187.752 251.811C187.387 255.219 184.71 257.968 181.303 258.958C181.059 258.958 180.938 259.068 180.573 259.178C180.086 259.288 179.478 259.398 178.869 259.398H76.1715C75.5631 259.398 75.0764 259.288 74.468 259.178C74.2246 259.068 74.1029 259.068 73.7379 258.958C70.2092 258.078 67.6539 255.329 67.2889 251.811C64.2469 222.891 51.2272 202.988 31.7584 175.938C18.4953 157.574 11.5596 136.681 11.5596 115.239C11.5596 57.5096 63.6385 10.3363 127.642 10.3363C157.089 10.3363 185.318 20.3428 206.855 38.5963C209.167 40.5756 212.696 40.4656 214.886 38.2664C217.077 36.1771 216.955 32.9883 214.521 31.009C190.794 10.9961 159.887 0 127.52 0C57.3111 0 0 51.6816 0 115.239C0 138.661 7.66583 161.533 22.024 181.546C40.641 207.386 53.0524 226.19 55.851 252.8C56.5811 259.398 60.9615 264.896 67.0455 267.535V316.028C67.0455 322.515 71.5477 327.903 77.7533 330.103C78.2401 342.748 89.7996 352.865 103.914 352.865H150.883C164.998 352.865 176.557 342.748 177.044 330.103C183.371 327.903 187.752 322.405 187.752 316.028V267.535C193.836 264.676 198.216 259.288 198.946 252.8C201.745 226.3 214.156 207.386 232.773 181.546C247.253 161.533 254.797 138.661 254.797 115.239C254.797 90.8277 246.401 67.516 230.583 47.723ZM114.136 289.637H176.314V299.094H78.3617V289.637H91.2598C94.4234 289.637 96.9787 287.328 96.9787 284.469C96.9787 281.61 94.4234 279.301 91.2598 279.301H78.3617V269.624H176.314V279.301H114.136C110.972 279.301 108.417 281.61 108.417 284.469C108.417 287.328 110.972 289.637 114.136 289.637ZM171.447 320.756C171.325 320.756 171.325 320.756 171.447 320.756C171.325 320.756 171.325 320.756 171.203 320.756C171.082 320.756 170.96 320.756 170.96 320.756H83.594C83.4723 320.756 83.3506 320.756 83.3506 320.756C83.2289 320.756 83.2289 320.756 83.1072 320.756C80.4303 320.646 78.1184 318.557 78.1184 316.028V309.32H176.071V316.028C176.314 318.667 174.124 320.646 171.447 320.756ZM150.883 342.528H103.914C96.492 342.528 90.408 337.58 89.3129 331.092H165.606C164.389 337.58 158.184 342.528 150.883 342.528Z" fill="url(#paint13_linear)"/>
<defs>
<linearGradient id="paint0_linear" x1="139.445" y1="551.785" x2="139.445" y2="-11.2172" gradientUnits="userSpaceOnUse">
<stop stop-color="white"/>
<stop offset="1" stop-color="white"/>
</linearGradient>
<linearGradient id="paint1_linear" x1="139.445" y1="551.784" x2="139.445" y2="-11.2159" gradientUnits="userSpaceOnUse">
<stop stop-color="white"/>
<stop offset="1" stop-color="white"/>
</linearGradient>
<linearGradient id="paint2_linear" x1="139.445" y1="551.784" x2="139.445" y2="-11.216" gradientUnits="userSpaceOnUse">
<stop stop-color="white"/>
<stop offset="1" stop-color="white"/>
</linearGradient>
<linearGradient id="paint3_linear" x1="-118.516" y1="230.698" x2="-82.5705" y2="-12.3782" gradientUnits="userSpaceOnUse">
<stop stop-color="white"/>
<stop offset="1" stop-color="white"/>
</linearGradient>
<linearGradient id="paint4_linear" x1="-118.516" y1="230.698" x2="-82.5702" y2="-12.3787" gradientUnits="userSpaceOnUse">
<stop stop-color="white"/>
<stop offset="1" stop-color="white"/>
</linearGradient>
<linearGradient id="paint5_linear" x1="-118.516" y1="230.698" x2="-82.5706" y2="-12.3782" gradientUnits="userSpaceOnUse">
<stop stop-color="white"/>
<stop offset="1" stop-color="white"/>
</linearGradient>
<linearGradient id="paint6_linear" x1="-118.518" y1="230.698" x2="-82.5727" y2="-12.3785" gradientUnits="userSpaceOnUse">
<stop stop-color="white"/>
<stop offset="1" stop-color="white"/>
</linearGradient>
<linearGradient id="paint7_linear" x1="-118.516" y1="230.698" x2="-82.5707" y2="-12.3781" gradientUnits="userSpaceOnUse">
<stop stop-color="white"/>
<stop offset="1" stop-color="white"/>
</linearGradient>
<linearGradient id="paint8_linear" x1="-118.516" y1="230.698" x2="-82.5706" y2="-12.3782" gradientUnits="userSpaceOnUse">
<stop stop-color="white"/>
<stop offset="1" stop-color="white"/>
</linearGradient>
<linearGradient id="paint9_linear" x1="-118.516" y1="230.698" x2="-82.5711" y2="-12.3782" gradientUnits="userSpaceOnUse">
<stop stop-color="white"/>
<stop offset="1" stop-color="white"/>
</linearGradient>
<linearGradient id="paint10_linear" x1="-118.517" y1="230.698" x2="-82.5719" y2="-12.3779" gradientUnits="userSpaceOnUse">
<stop stop-color="white"/>
<stop offset="1" stop-color="white"/>
</linearGradient>
<linearGradient id="paint11_linear" x1="-118.513" y1="230.698" x2="-82.5679" y2="-12.378" gradientUnits="userSpaceOnUse">
<stop stop-color="white"/>
<stop offset="1" stop-color="white"/>
</linearGradient>
<linearGradient id="paint12_linear" x1="-118.514" y1="230.698" x2="-82.5686" y2="-12.3782" gradientUnits="userSpaceOnUse">
<stop stop-color="white"/>
<stop offset="1" stop-color="white"/>
</linearGradient>
<linearGradient id="paint13_linear" x1="-140.418" y1="560.581" x2="-140.418" y2="-11.216" gradientUnits="userSpaceOnUse">
<stop stop-color="white"/>
<stop offset="1" stop-color="white"/>
</linearGradient>
</defs>
</svg>
