<svg id="Capa_1" enable-background="new 0 0 512 512" height="512" viewBox="0 0 512 512" width="512" xmlns="http://www.w3.org/2000/svg">
      <linearGradient id="imageColor" gradientUnits="userSpaceOnUse" x1="248" x2="248" y1="496" y2="0">
			  <stop offset="0" stop-color="#E31D1D"/>
			  <stop offset="1" stop-color="#11A6DE"/>
  </linearGradient>
  <g>
    <path  fill="url(#imageColor)"  d="m305.7 173.95c-58.945 0-106.9 47.955-106.9 106.9s47.956 106.9 106.9 106.9 106.899-47.955 106.899-106.9-47.954-106.9-106.899-106.9zm0 198.8c-50.674 0-91.9-41.226-91.9-91.9s41.227-91.9 91.9-91.9 91.899 41.226 91.899 91.9-41.225 91.9-91.899 91.9z"/><path  fill="url(#imageColor)"  d="m305.7 240.217c-22.405 0-40.634 18.228-40.634 40.633s18.228 40.633 40.634 40.633c22.405 0 40.633-18.228 40.633-40.633s-18.228-40.633-40.633-40.633zm0 66.266c-14.135 0-25.634-11.499-25.634-25.633s11.499-25.633 25.634-25.633c14.134 0 25.633 11.499 25.633 25.633s-11.499 25.633-25.633 25.633z"/><path  fill="url(#imageColor)"  d="m471.366 140.817h-27.268c-10.542 0-19.884-6.325-23.799-16.114l-16.472-41.177c-6.206-15.517-21.015-25.542-37.728-25.542h-137.367c-16.712 0-31.52 10.026-37.727 25.542l-16.471 41.177c-3.916 9.789-13.258 16.114-23.8 16.114h-36.334v-17.634c0-8.547-6.953-15.5-15.5-15.5h-33.7c-8.547 0-15.5 6.953-15.5 15.5v17.634h-9.067c-22.405 0-40.633 18.228-40.633 40.633v231.933c0 22.405 18.228 40.633 40.633 40.633h66.267 66.267 21.353c4.142 0 7.5-3.358 7.5-7.5s-3.358-7.5-7.5-7.5h-13.853v-17.633c0-8.547-6.953-15.5-15.5-15.5h-17.633v-183.8h31.08c-8.301 17.881-12.946 37.79-12.946 58.767 0 77.214 62.819 140.033 140.034 140.033 69.01 0 126.514-50.18 137.957-115.967h11.141c13.271 0 24.066-10.796 24.066-24.066 0-13.271-10.796-24.067-24.066-24.067h-11.143c-2.118-12.175-5.815-23.813-10.87-34.7h64.213v47.517c0 4.142 3.357 7.5 7.5 7.5s7.5-3.358 7.5-7.5v-88.15c0-22.405-18.228-40.633-40.634-40.633zm-406.666-17.634c0-.276.224-.5.5-.5h33.7c.276 0 .5.224.5.5v17.634h-34.7zm-24.067 32.634h16.567 49.7 25.633v51.267h-117.533v-25.634c0-14.134 11.499-25.633 25.633-25.633zm125.033 265.566v17.633h-51.266v-17.633c0-.276.224-.5.5-.5h50.267c.275 0 .499.224.499.5zm-33.133-15.5h-17.633c-8.547 0-15.5 6.953-15.5 15.5v17.633h-58.767c-14.134.001-25.633-11.498-25.633-25.633v-75.333h25.633c4.142 0 7.5-3.358 7.5-7.5s-3.358-7.5-7.5-7.5h-25.633v-18.133h25.633c4.142 0 7.5-3.358 7.5-7.5s-3.358-7.5-7.5-7.5h-25.633v-18.133h25.633c4.142 0 7.5-3.358 7.5-7.5s-3.358-7.5-7.5-7.5h-25.633v-34.7h117.533zm173.167 0c-68.944 0-125.034-56.09-125.034-125.033s56.09-125.033 125.034-125.033c68.943 0 125.033 56.09 125.033 125.033s-56.089 125.033-125.033 125.033zm149.1-134.1c4.999 0 9.066 4.067 9.066 9.067 0 4.999-4.067 9.066-9.066 9.066h-9.368c.193-2.999.302-6.02.302-9.066 0-3.047-.109-6.068-.302-9.067zm-30.124-64.7c-24.734-39.748-68.813-66.267-118.976-66.267s-94.242 26.518-118.976 66.267h-39.191v-51.267h3.201c16.711 0 31.521-10.026 37.727-25.543l16.471-41.177c3.916-9.789 13.258-16.113 23.8-16.113h137.368c10.543 0 19.885 6.325 23.8 16.113l16.472 41.177c6.206 15.517 21.015 25.543 37.727 25.543h27.268c14.135 0 25.634 11.499 25.634 25.633v25.633h-72.325z"/><path  fill="url(#imageColor)"  d="m504.5 292.1c-4.143 0-7.5 3.358-7.5 7.5v113.784c0 14.134-11.499 25.633-25.634 25.633h-246.847c-4.142 0-7.5 3.358-7.5 7.5s3.358 7.5 7.5 7.5h246.848c22.405 0 40.634-18.228 40.634-40.633v-113.784c-.001-4.143-3.358-7.5-7.501-7.5z"/><path  fill="url(#imageColor)"  d="m355.4 107.683h-115.967c-4.142 0-7.5 3.358-7.5 7.5s3.358 7.5 7.5 7.5h115.967c4.143 0 7.5-3.358 7.5-7.5s-3.357-7.5-7.5-7.5z"/><path  fill="url(#imageColor)"  d="m471.366 420.883c4.143 0 7.5-3.358 7.5-7.5v-33.133c0-4.142-3.357-7.5-7.5-7.5h-33.133c-4.143 0-7.5 3.358-7.5 7.5v33.133c0 4.142 3.357 7.5 7.5 7.5zm-25.633-33.133h18.133v18.133h-18.133z"/></g></svg>