<svg id="Capa_1" enable-background="new 0 0 512 512" height="512" viewBox="0 0 512 512" width="512" xmlns="http://www.w3.org/2000/svg">
    <linearGradient id="imageColor" gradientUnits="userSpaceOnUse" x1="248" x2="248" y1="496" y2="0">
      <stop offset="0" stop-color="#FC6EF4"/>
      <stop offset="1" stop-color="#11A6DE"/>
  </linearGradient>
  <g>
    <path  fill="url(#imageColor)"  d="m242.442 145.812-15.191-7.707-7.704-15.185c-2.459-4.858-5.883-5.878-8.322-5.878s-5.863 1.02-8.319 5.872l-7.707 15.191-15.216 7.72c-4.834 2.476-5.842 5.896-5.836 8.331.006 2.434 1.029 5.849 5.861 8.293l15.191 7.707 7.704 15.185c2.449 4.839 5.864 5.861 8.298 5.867h.021c2.432 0 5.84-1.016 8.322-5.861l7.707-15.191 15.184-7.704c4.859-2.458 5.879-5.882 5.879-8.322s-1.021-5.862-5.872-8.318zm-24.165 12.077c-1.42.721-2.574 1.875-3.295 3.295l-3.757 7.407-3.758-7.407c-.721-1.42-1.875-2.575-3.295-3.295l-7.407-3.758 7.407-3.758c1.42-.721 2.574-1.875 3.295-3.295l3.758-7.407 3.757 7.407c.721 1.42 1.875 2.575 3.295 3.295l7.407 3.758z"/><path  fill="url(#imageColor)"  d="m491.306 70.461v-15.32h8.176c6.903 0 12.518-5.603 12.518-12.489v-30.163c0-6.886-5.615-12.489-12.518-12.489h-486.992c-6.887 0-12.49 5.603-12.49 12.489v30.163c0 6.887 5.603 12.489 12.49 12.489h8.176v15.32c0 9.073 5.728 16.815 13.749 19.856v55.189l-16.39 9.465c-3.1 1.798-5.321 4.704-6.253 8.182-.934 3.485-.459 7.114 1.337 10.22l20.114 34.861 13.08 63.898c1.059 5.166 2.058 10.045 6.961 12.253 1.322.595 2.628.848 3.922.848 3.7 0 7.287-2.067 10.789-4.084l6.509-3.757 13.301 58.291c.793 3.477 3.884 5.833 7.305 5.833.553 0 1.114-.061 1.675-.189 4.038-.921 6.565-4.942 5.644-8.98l-10.212-44.755c2.695 1.337 5.541 2.418 8.513 3.215 3.925 1.052 7.908 1.573 11.868 1.573 7.898 0 15.697-2.072 22.728-6.129 13.718-7.928 21.758-21.951 22.689-36.682l86.975 80.728-118.01 109.522-16.727-73.312c-.921-4.038-4.939-6.562-8.981-5.644-4.038.921-6.565 4.942-5.644 8.98l17.525 76.812h-99.595c-7.465-.001-13.538 6.276-13.538 13.991v37.363c0 7.714 6.073 13.991 13.538 13.991h484.895c7.481 0 13.567-6.277 13.567-13.992v-37.363c0-7.715-6.086-13.992-13.567-13.992h-99.593l17.552-76.867c.922-4.038-1.605-8.059-5.643-8.981-4.036-.918-8.059 1.604-8.982 5.643l-16.753 73.371-117.995-109.523 86.98-80.724c.926 14.732 8.958 28.755 22.673 36.68 7.029 4.056 14.824 6.126 22.722 6.126 3.959 0 7.945-.521 11.869-1.573 2.973-.797 5.821-1.879 8.517-3.217l-10.529 46.176c-.92 4.039 1.607 8.059 5.645 8.98.562.128 1.122.189 1.674.189 3.421 0 6.513-2.357 7.306-5.834l13.614-59.706 6.512 3.759c3.498 2.015 7.084 4.081 10.783 4.081 1.293 0 2.6-.252 3.922-.848 4.903-2.208 5.902-7.087 6.961-12.254l13.08-63.897 20.114-34.861c1.802-3.114 2.279-6.749 1.344-10.236-.935-3.485-3.168-6.391-6.27-8.172l-16.351-9.447v-55.204c8.006-3.044 13.721-10.783 13.721-19.853zm-448.232 124.831-16.214-28.102 59.544-34.386 16.222 28.093zm-1.159-118.582c-3.445 0-6.249-2.803-6.249-6.249v-15.32h44.985v15.32c0 3.387-2.861 6.249-6.249 6.249zm24.987 15v35.031l-17.487 10.102v-45.133zm60.902 181.55c-7.082 4.086-15.326 5.171-23.211 3.058-5.411-1.451-10.213-4.29-14.014-8.216l51.371-29.652c3.717 13.14-1.782 27.665-14.146 34.81zm-52.193-13.839-14.844 8.569-12.008-58.658 63.181-36.491 44.823 39.737s-81.043 46.777-81.152 46.843zm421.389 237.579h-482v-35.346h482zm-126.671-50.346h-228.686l114.35-106.125zm37.05-170.337c-7.885 2.113-16.129 1.028-23.206-3.055-12.354-7.139-17.844-21.658-14.128-34.8l51.348 29.639c-3.801 3.926-8.603 6.766-14.014 8.216zm43.826-8.327-95.997-55.412 44.824-39.738 63.181 36.491zm33.907-100.8-16.214 28.102-59.552-34.395 16.228-28.105zm-47.542-90.48c-3.43 0-6.22-2.803-6.22-6.249v-15.32h44.956v15.32c0 3.445-2.791 6.249-6.22 6.249zm25.015 15v45.138l-17.515-10.115v-35.023zm-189.085-51.569c-4.142 0-7.5 3.358-7.5 7.5s3.358 7.5 7.5 7.5h142.849v15.32c0 9.07 5.715 16.809 13.721 19.852v27.923c-6.149-2.483-13.358-.126-16.741 5.766l-20.114 34.835-48.823 43.284c-3.934 3.502-7.649 6.811-7.106 12.16.565 5.575 5.437 8.398 10.158 11.134l6.494 3.749-97.943 90.899-97.943-90.909 6.488-3.745c4.719-2.735 9.6-5.563 10.159-11.143.538-5.358-3.187-8.66-7.131-12.155l-48.811-43.274-20.106-34.819c-1.797-3.131-4.713-5.371-8.209-6.309-2.879-.772-5.85-.566-8.541.533v-27.925c8.021-3.041 13.749-10.782 13.749-19.856v-15.32h142.85c4.142 0 7.5-3.358 7.5-7.5s-3.358-7.5-7.5-7.5h-223.5v-25.141h482v25.141z"/><path  fill="url(#imageColor)"  d="m280.19 120.409 15.191 7.707 7.704 15.185c2.459 4.858 5.883 5.878 8.322 5.878 2.44 0 5.863-1.02 8.319-5.872l7.705-15.187 15.22-7.697c4.833-2.476 5.84-5.896 5.834-8.33s-1.029-5.848-5.861-8.294l-15.191-7.707-7.704-15.185c-2.459-4.858-5.883-5.878-8.323-5.878-2.439 0-5.863 1.02-8.319 5.872l-7.705 15.186-15.187 7.68c-4.859 2.459-5.878 5.883-5.878 8.322.001 2.441 1.02 5.865 5.873 8.32zm24.155-12.044c1.424-.72 2.582-1.876 3.304-3.3l3.757-7.406 3.758 7.406c.721 1.42 1.875 2.575 3.295 3.295l7.391 3.75-7.383 3.733c-1.424.72-2.582 1.876-3.304 3.3l-3.757 7.407-3.758-7.407c-.721-1.42-1.875-2.575-3.296-3.295l-7.391-3.75z"/></g></svg>