<svg xmlns="http://www.w3.org/2000/svg" viewBox="0 0 105.19 135.26">
    <linearGradient id="imageColor" gradientUnits="userSpaceOnUse" x1="248" x2="248" y1="110" y2="0">
			<stop offset="0" stop-color="#EA16A6"/>
			<stop offset="1" stop-color="#11A6DE"/>
  </linearGradient>
<g id="Capa_2" data-name="Capa 2">
  <g id="Capa_1-2" data-name="Capa 1">
    <path fill="url(#imageColor)"  d="M41.4,81.35A4.74,4.74,0,0,0,39.08,77c-6.86-4.09-14-7.5-19.42-12.58-10.2-9.6-18.2-21.2-19.5-35.9-.7-7.7.8-15,6-21,5.6-6.4,12.6-8.7,20.9-6.5,3.3.9,6.7,1.7,9.9,2.8,2.2.8,3.5,2.5,2.2,5s-3.4,2.5-5.7,1.2a20.27,20.27,0,0,1-3.4-2.3c-6.1-5.1-13.1-5-19.1.4-7.2,6.5-8,15-6.4,23.8s5.3,17.2,12.1,22.8c8.2,6.7,16.6,13.5,27.1,16.6a6.84,6.84,0,0,0,4.2-.5c8-3.1,14.7-8.2,21.7-13.2,9.3-6.7,13.7-15.8,16-26.3a25.31,25.31,0,0,0-2-17.5c-3.7-7.2-11-11.1-18.2-9.4a13.87,13.87,0,0,0-4.4,2.5c-1.8,1.1-3.4,2.9-5.3,3.4a5.32,5.32,0,0,1-4.6-1.5c-1.5-1.6-.8-3.7,1.3-4.7,7.7-3.5,15.8-5.9,24.1-2.3,8,3.4,12.1,10.2,13.2,18.7,1.8,13.7-4.1,24.7-11.7,35.7-7.2,10.4-17.2,16-28.2,20.9a3.91,3.91,0,0,0-2.1,2.6c-1.8,11.3-2.5,22.6.8,33.8,1.9,6.5,5.2,11.9,11.9,14.5s13.4.9,18.5-4.4a28.84,28.84,0,0,0,6.86-13.93,4.77,4.77,0,0,0-2.23-5.06h0a14.28,14.28,0,0,1,8.9-26.5c6.5.6,11.6,5.7,12.6,12.5a13.93,13.93,0,0,1-9.2,15.1c-2.6.9-3.4,2.2-4.3,4.7-1.9,5.4-3.7,11.1-7.1,15.5-10.6,13.9-30.2,12-38.6-3.4-4.2-7.5-5.4-15.8-5.4-24.3C40.55,92.42,41.06,86.73,41.4,81.35ZM91,102.18a10,10,0,1,0-10-10.1A10,10,0,0,0,91,102.18Z"/>
<path fill="url(#imageColor)"  d="M45.36,34.18c7.4.1,15,8.6,14.4,15.91-.5,5.5-5.2,8.09-10.8,5.5-2.7-1.3-4.8-1.1-7.6-.1a11.89,11.89,0,0,1-8.1-.3c-2.9-1.3-3-4.7-2.5-7.6C31.76,40.49,38.76,34.09,45.36,34.18Z"/>
<path fill="url(#imageColor)"  d="M38.56,31.79c-2.8.1-5.3-2.9-5.5-6.5s2-6.5,4.8-6.5,5.3,2.9,5.4,6.5S41.36,31.79,38.56,31.79Z"/>
<path fill="url(#imageColor)"  d="M47.06,25.59c0-3.91,2.4-6.91,5.5-6.8,2.7.1,4.6,2.7,4.7,6.2,0,3.9-2.4,6.9-5.5,6.8C49,31.68,47.06,29.18,47.06,25.59Z"/>
<path fill="url(#imageColor)"  d="M67.54,33.06a4.73,4.73,0,0,1,0,.65c-.23,3.84-2.66,6.68-5.29,6.68s-4.4-2.5-4.4-5.5c0-3.6,2.7-7,5.6-6.71C66.42,28.66,67.37,30.87,67.54,33.06Z"/>
<path fill="url(#imageColor)"  d="M22.86,33.68c0-3.09,1.9-5.5,4.4-5.5,2.8,0,5.3,3,5.3,6.6.1,3.3-2,5.8-4.6,5.7C25.16,40.29,22.76,37.18,22.86,33.68Z"/>
<path fill="url(#imageColor)"  d="M90.46,98.29a6.3,6.3,0,0,1-5.6-6.7,6.18,6.18,0,0,1,6.8-5.41,6.11,6.11,0,0,1,5.4,6.5A6,6,0,0,1,90.46,98.29Z"/>
</g>
</g>
</svg>