<svg height="496pt" viewBox="0 0 496 496" width="496pt" xmlns="http://www.w3.org/2000/svg">
	 <linearGradient id="SVGID_1_" gradientUnits="userSpaceOnUse" x1="-48.73" y1="565.77" x2="10.969" y2="625.469" gradientTransform="matrix(8 0 0 -8 399 5013)">
		<stop  offset="0" style="stop-color:#000"/>
		<stop  offset="0.518" style="stop-color:#000"/>
		<stop  offset="1" style="stop-color:#000"/>
	</linearGradient>
  <path style="fill:url(#SVGID_1_);" d="m48 32h16v16h-16zm0 0"/>
  <path style="fill:url(#SVGID_1_);" d="m80 32h224v16h-224zm0 0"/>
  <path style="fill:url(#SVGID_1_);" d="m496 128v-16h-16v-72h-16v72h-16v-88h-16v88h-16v-40h-16v40h-32v-48h-32v-64h-280c-22.054688 0-40 17.945312-40 40v88c-8.824219 0-16 7.175781-16 16v16c0 8.824219 7.175781 16 16 16v32c-8.824219 0-16 7.175781-16 16v16c0 8.824219 7.175781 16 16 16v32c-8.824219 0-16 7.175781-16 16v16c0 8.824219 7.175781 16 16 16v32c-8.824219 0-16 7.175781-16 16v16c0 8.824219 7.175781 16 16 16v40c0 22.054688 17.945312 40 40 40h312v-208h88c22.054688 0 40-17.945312 40-40s-17.945312-40-40-40h-88v-80zm-440-112h264v48h-264c-13.230469 0-24-10.769531-24-24s10.769531-24 24-24zm-24 55.792969c6.703125 5.078125 14.960938 8.207031 24 8.207031h8v48h-32zm-16 72.207031h64l.007812 16h-64.007812zm16 32h32v32h-32zm-16 48h64l.007812 16h-64.007812zm16 32h32v32h-32zm-16 48h64l.015625 16h-64.015625zm16 32h32v32h-32zm-16 48h64l.015625 16h-64.015625zm16 72v-40h32v64h-8c-13.230469 0-24-10.769531-24-24zm368-232h16v48h-16zm-16 16h-128v-16h128zm-144 28.457031-45.695312-17.128906c-1.375-.519531-2.304688-1.855469-2.304688-3.328125s.921875-2.800781 2.304688-3.320312l45.695312-17.136719zm16-12.457031h128v16h-128zm224-8c0 13.230469-10.769531 24-24 24h-24v-48h24c13.230469 0 24 10.769531 24 24zm-128-40h-105.457031l-57.855469 21.695312c-7.582031 2.839844-12.6875 10.199219-12.6875 18.304688 0 8.097656 5.097656 15.449219 12.679688 18.304688l57.863281 21.695312h105.457031v192h-272v-64c8.824219 0 16-7.175781 16-16v-16c0-8.824219-7.175781-16-16-16v-32c8.824219 0 16-7.175781 16-16v-16c0-8.824219-7.175781-16-16-16v-32c8.824219 0 16-7.175781 16-16v-16c0-8.824219-7.175781-16-16-16v-32c8.824219 0 16-7.175781 16-16v-16c0-8.824219-7.175781-16-16-16v-48h272v32h-107.3125l-64.175781 64.175781c-38.078125 1.839844-68.511719 33.304688-68.511719 71.824219 0 34.433594 24.304688 63.257812 56.648438 70.3125l-15.488282 65.808594c-.390625-.015625-.761718-.121094-1.160156-.121094-22.054688 0-40 17.945312-40 40s17.945312 40 40 40 40-17.945312 40-40c0-16.054688-9.566406-29.847656-23.257812-36.207031l15.960937-67.839844c3.433594-.03125 6.832031-.351563 10.199219-.863281l36.296875 60.925781c-4.429688 5.496094-7.199219 12.382813-7.199219 19.984375 0 17.648438 14.351562 32 32 32s32-14.351562 32-32-14.351562-32-32-32c-4.214844 0-8.230469.863281-11.921875 2.351562l-33.132813-55.625c3.109376-1.253906 6.152344-2.6875 9.0625-4.375l-8.015624-13.839843c-8.472657 4.902343-18.152344 7.488281-27.992188 7.488281-30.871094 0-56-25.128906-56-56 0-30.878906 25.128906-56 56-56 9.839844 0 19.519531 2.59375 27.992188 7.488281l8.015624-13.847656c-5.894531-3.410156-12.265624-5.863281-18.847656-7.480469l50.152344-50.160156h100.6875zm-200 192c13.230469 0 24 10.769531 24 24s-10.769531 24-24 24-24-10.769531-24-24 10.769531-24 24-24zm104-16c8.824219 0 16 7.175781 16 16s-7.175781 16-16 16-16-7.175781-16-16 7.175781-16 16-16zm0 0"/>
</svg>