<svg id="_x33_0" enable-background="new 0 0 64 64" height="512" viewBox="0 0 64 64" width="512" xmlns="http://www.w3.org/2000/svg">
  <linearGradient id="SVGID_1_" gradientUnits="userSpaceOnUse" x1="-48.73" y1="565.77" x2="10.969" y2="625.469" gradientTransform="matrix(8 0 0 -8 399 5013)">
    <stop  offset="0" style="stop-color:#003F8A"/>
    <stop  offset="0.518" style="stop-color:#00D7DF"/>
    <stop  offset="1" style="stop-color:#006DF0"/>
  </linearGradient>
  <g>
    <path style="fill:url(#SVGID_1_);" d="m18 43c1.654 0 3-1.346 3-3s-1.346-3-3-3-3 1.346-3 3 1.346 3 3 3zm0-4c.552 0 1 .449 1 1s-.448 1-1 1-1-.449-1-1 .448-1 1-1z"/>
    <path style="fill:url(#SVGID_1_);" d="m17 35h2c1.103 0 2-.897 2-2v-10c0-1.103-.897-2-2-2h-2c-1.103 0-2 .897-2 2v10c0 1.103.897 2 2 2zm0-12h2l.001 10h-2.001z"/>
    <path style="fill:url(#SVGID_1_);" d="m55 15v-10c0-2.206-1.794-4-4-4h-39c-2.757 0-5 2.243-5 5v11h-2c-2.206 0-4 1.794-4 4v22c0 2.206 1.794 4 4 4h2v11c0 2.757 2.243 5 5 5h46c2.757 0 5-2.243 5-5v-43zm-52 28v-22c0-1.103.897-2 2-2h26c1.103 0 2 .897 2 2v22c0 1.103-.897 2-2 2h-10.78l-1.947 7.787c-.062.251-.482.251-.545 0l-1.948-7.787h-10.78c-1.103 0-2-.897-2-2zm26 4h2c1.474 0 2.75-.81 3.444-2h12.556v10h-18zm2-30h-4v-8h20v12h-12c0-2.206-1.794-4-4-4zm-22 41v-11h5.22l1.568 6.272c.254 1.018 1.164 1.728 2.212 1.728s1.958-.71 2.212-1.728l1.568-6.272h5.22v10h22v-14h-14v-2h6v-2h-6v-2h14v-2h-14v-2h6v-2h-6v-2h14v-2h-14v-4h14v-16h-24v10h-16v-11c0-1.654 1.346-3 3-3h39c1.103 0 2 .897 2 2v53c0 1.13.391 2.162 1.026 3h-42.026c-1.654 0-3-1.346-3-3zm52 0c0 1.654-1.346 3-3 3s-3-1.346-3-3v-41h2v38h2v-38h2z"/>
    <path style="fill:url(#SVGID_1_);" d="m43 31h6v2h-6z"/>
    <path style="fill:url(#SVGID_1_);" d="m43 39h6v2h-6z"/>
  </g>
</svg>