<svg id="Layer_1" height="512" viewBox="0 0 512 512" width="512" xmlns="http://www.w3.org/2000/svg" data-name="Layer 1">
	 <linearGradient id="SVGID_1_" gradientUnits="userSpaceOnUse" x1="-48.73" y1="565.77" x2="10.969" y2="625.469" gradientTransform="matrix(8 0 0 -8 399 5013)">
		<stop  offset="0" style="stop-color:#FFF"/>
		<stop  offset="0.518" style="stop-color:#FFF"/>
		<stop  offset="1" style="stop-color:#FFF"/>
	</linearGradient>
<path style="fill:url(#SVGID_1_);" d="m341.218 38.732c-91.413 0-165.783 74.37-165.783 165.783a166.805 166.805 0 0 0 3.53 34.152l-11.52 4.066a6 6 0 0 0 -3.661 7.655l.915 2.592-80.885 28.546a6 6 0 0 0 -3.661 7.655l1.629 4.616-47.275 16.684-.332-.942a6 6 0 0 0 -7.655-3.661l-17.52 6.182a6 6 0 0 0 -3.661 7.654l16.637 47.144a6 6 0 0 0 7.656 3.662l17.516-6.182a6 6 0 0 0 3.661-7.654l-.332-.943 47.276-16.684 1.629 4.615a5.993 5.993 0 0 0 7.655 3.661l47.792-16.866a41.832 41.832 0 0 0 17.386 22.74l-60.636 111.193a6 6 0 1 0 10.535 5.745l61.07-111.979a41.442 41.442 0 0 0 22.871 0l61.068 111.979a6 6 0 1 0 10.535-5.745l-60.637-111.19a41.865 41.865 0 0 0 17.168-22.089 164.857 164.857 0 0 0 107.029 39.179c91.413 0 165.782-74.373 165.782-165.785s-74.369-165.783-165.782-165.783zm-309.918 318.475-12.646-35.828 6.2-2.189 12.646 35.829zm15.187-12.782-7.987-22.625 47.275-16.684 7.986 22.627zm106.482-26.025-44.269 15.621-15.233-43.176 75.226-26.545 6.072 17.2a41.69 41.69 0 0 0 -21.8 36.613c-.003.096.004.187.004.287zm41.65 29.372a29.486 29.486 0 0 1 -11.823-2.466c-.046-.02-.091-.043-.138-.063a29.637 29.637 0 1 1 11.961 2.529zm37.394-47.991a41.639 41.639 0 0 0 -45.986-22.427l-8.929-25.3 135.602-47.86 21.061 59.676zm138.569-35.56-21.313 7.522-29.437-83.407 21.314-7.523zm-12.152-70.495a46.738 46.738 0 0 1 17.735 50.255zm-17.212 164.574a152.982 152.982 0 0 1 -104.969-41.408 42.011 42.011 0 0 0 -.557-5.682l102.067-36.021 2.19 6.208a6 6 0 0 0 7.655 3.661l32.63-11.516a6 6 0 0 0 3.662-7.655l-1.81-5.126a58.7 58.7 0 0 0 -29.572-83.8l-2.048-5.8a6 6 0 0 0 -7.655-3.661l-32.63 11.516a6 6 0 0 0 -3.661 7.654l2.19 6.208-118.31 41.754a154.891 154.891 0 0 1 -2.965-30.117c0-84.8 68.987-153.783 153.783-153.783s153.782 68.987 153.782 153.783-68.986 153.785-153.782 153.785z"/>
<path style="fill:url(#SVGID_1_);" d="m376.8 73.564a6 6 0 0 0 -6.5-2.635 22.993 22.993 0 0 1 -19.927-4.556 6 6 0 0 0 -9.633 6.073 22.887 22.887 0 0 1 -4.488 19.9 6 6 0 0 0 6.06 9.634 22.994 22.994 0 0 1 19.927 4.556 6 6 0 0 0 9.632-6.074 22.887 22.887 0 0 1 4.488-19.9 6 6 0 0 0 .441-6.998zm-17.385 17.806a35.206 35.206 0 0 0 -8.025-1.829 35.141 35.141 0 0 0 1.811-8 35.247 35.247 0 0 0 8.025 1.829 35.088 35.088 0 0 0 -1.811 8z"/>
<path style="fill:url(#SVGID_1_);" d="m433.194 243.342a6 6 0 0 0 -1.1 6.934 22.893 22.893 0 0 1 .084 20.4 6 6 0 0 0 8.064 8.031 22.991 22.991 0 0 1 20.441-.024 6 6 0 0 0 8.026-8.078 22.889 22.889 0 0 1 -.084-20.4 6 6 0 0 0 -8.064-8.031 22.987 22.987 0 0 1 -20.442.024 6 6 0 0 0 -6.925 1.144zm21.31 12.986a35.084 35.084 0 0 0 .028 8.206 35.179 35.179 0 0 0 -8.23.015 35.138 35.138 0 0 0 -.03-8.206 35.415 35.415 0 0 0 8.228-.015z"/>
<path style="fill:url(#SVGID_1_);" d="m225.818 163.007a10.439 10.439 0 1 0 10.439 10.439 10.45 10.45 0 0 0 -10.439-10.439zm0 12a1.562 1.562 0 1 1 1.563-1.561 1.562 1.562 0 0 1 -1.563 1.561z"/>
<path style="fill:url(#SVGID_1_);" d="m476.145 221.167a11.326 11.326 0 1 0 -11.327-11.326 11.339 11.339 0 0 0 11.327 11.326zm0-12a.674.674 0 1 1 -.674.674.674.674 0 0 1 .674-.674z"/>
<path style="fill:url(#SVGID_1_);" d="m398.7 148.591a11.326 11.326 0 1 0 -11.326 11.342 11.347 11.347 0 0 0 11.326-11.342zm-11.326.658a.658.658 0 1 1 .674-.658.667.667 0 0 1 -.671.658z"/>
<circle style="fill:url(#SVGID_1_);" cx="323.464" cy="318.138" r="7.775"/>
<path style="fill:url(#SVGID_1_);" d="m221.381 190.082a6.444 6.444 0 1 0 6.443 6.443 6.45 6.45 0 0 0 -6.443-6.443z"/>
<path style="fill:url(#SVGID_1_);" d="m413.119 155.478a6.888 6.888 0 1 0 -6.888-6.887 6.9 6.9 0 0 0 6.888 6.887z"/>
<path style="fill:url(#SVGID_1_);" d="m316.034 110.757a6 6 0 1 0 -6.935-9.792l-29.618 20.978a6 6 0 1 0 6.936 9.792z"/>
<path style="fill:url(#SVGID_1_);" d="m323.409 104.185a5.968 5.968 0 0 0 3.475-1.113l.237-.169a6 6 0 1 0 -6.959-9.775l-.237.169a6 6 0 0 0 3.484 10.888z"/>
<path style="fill:url(#SVGID_1_);" d="m288.535 134.736-.03.021a6.058 6.058 0 1 0 .03-.021z"/>
<path style="fill:url(#SVGID_1_);" d="m329.233 105.909-29.885 21.169a6 6 0 1 0 6.935 9.792l29.886-21.17a6 6 0 1 0 -6.936-9.792z"/>
<path style="fill:url(#SVGID_1_);" d="m398.455 290.726a6 6 0 0 0 -8.364-1.428l-15.628 11.07a6 6 0 1 0 6.935 9.792l15.628-11.07a6 6 0 0 0 1.429-8.364z"/>
<path style="fill:url(#SVGID_1_);" d="m404.732 292.283a5.967 5.967 0 0 0 3.463-1.1l2.822-2a6 6 0 0 0 -6.936-9.793l-2.821 2a6 6 0 0 0 3.472 10.9z"/>
<path style="fill:url(#SVGID_1_);" d="m398.769 302.357-4.44 3.145a6 6 0 1 0 6.936 9.792l4.439-3.145a6 6 0 1 0 -6.935-9.792z"/>
<path style="fill:url(#SVGID_1_);" d="m424.215 284.333-11.067 7.838a6 6 0 1 0 6.938 9.792l11.064-7.838a6 6 0 1 0 -6.935-9.792z"/>
<path style="fill:url(#SVGID_1_);" d="m297.442 218.538-21.111 7.45a6 6 0 1 0 3.994 11.317l21.112-7.451a6 6 0 1 0 -4-11.316z"/>
<path style="fill:url(#SVGID_1_);" d="m260.015 231.747-47.944 16.92a6 6 0 1 0 3.994 11.316l47.944-16.92a6 6 0 1 0 -3.994-11.316z"/>
<path style="fill:url(#SVGID_1_);" d="m194.619 297.078a21.036 21.036 0 1 0 21.035 21.036 21.06 21.06 0 0 0 -21.035-21.036zm0 30.071a9.036 9.036 0 1 1 9.035-9.035 9.046 9.046 0 0 1 -9.035 9.035z"/>
</svg>