<svg id="Layer_3" enable-background="new 0 0 64 64" height="512" viewBox="0 0 64 64" width="512" xmlns="http://www.w3.org/2000/svg">
  <linearGradient xmlns="http://www.w3.org/2000/svg" id="imgStyle">
    <stop offset="0" stop-color="#000"/>
    <stop offset="1" stop-color="#000"/>
  </linearGradient>
  <g><path fill="url(#imgStyle)" d="m50 14h-2v-2c0-.351-.185-.677-.485-.857l-.713-.428c-1.2-.72-2.476-1.305-3.802-1.745v-6.97c0-.369-.203-.708-.528-.882-.324-.174-.72-.154-1.026.05l-14.474 9.649-.17-.102c-2.96-1.776-6.349-2.715-9.802-2.715s-6.842.939-9.802 2.715l-.713.428c-.3.18-.485.506-.485.857v2h-2c-1.654 0-3 1.346-3 3v37c0 1.654 1.346 3 3 3h46c1.654 0 3-1.346 3-3v-37c0-1.654-1.346-3-3-3zm-7.445 28.832c.278-.186.445-.498.445-.832v-30.91c.962.362 1.89.81 2.772 1.339l.228.137v37.694c-2.763-1.481-5.855-2.26-9-2.26-.815 0-1.627.052-2.431.156zm-14.555-30.297 13-8.667v37.596l-13 8.667zm-20 .031.228-.137c2.648-1.589 5.682-2.429 8.772-2.429s6.124.84 8.772 2.43l.228.136v37.694c-2.763-1.481-5.855-2.26-9-2.26s-6.237.779-9 2.26zm43 41.434c0 .551-.448 1-1 1h-46c-.552 0-1-.449-1-1v-37c0-.551.448-1 1-1h2v36c0 .36.193.693.507.87.313.178.698.174 1.008-.013l.713-.428c2.648-1.589 5.682-2.429 8.772-2.429s6.124.84 8.772 2.43l.711.426c.005.003.01.006.015.009h.001c.003.005.002.002.003.002.067.039.138.069.21.09h.001.001.001c-.001 0 .002.001.002 0h.001.001c.096.028.173.035.294.04h.002s.001 0 .002 0 .002 0 .002 0h.001.001.001.001c.109-.002.218-.022.321-.061h.002.001.001.001.001.001.001c.057-.021.112-.048.165-.08l.711-.427c2.648-1.589 5.682-2.429 8.772-2.429s6.124.84 8.772 2.43l.713.428c.159.095.337.142.515.142.17 0 .34-.043.493-.13.314-.177.507-.51.507-.87v-36h2c.552 0 1 .449 1 1z"/><path fill="url(#imgStyle)" d="m10 19h14v2h-14z"/><path fill="url(#imgStyle)" d="m10 35h14v2h-14z"/><path fill="url(#imgStyle)" d="m10 23h14v2h-14z"/><path fill="url(#imgStyle)" d="m10 27h5v2h-5z"/><path fill="url(#imgStyle)" d="m19 27h5v2h-5z"/><path fill="url(#imgStyle)" d="m10 31h5v2h-5z"/><path fill="url(#imgStyle)" d="m19 31h5v2h-5z"/><path fill="url(#imgStyle)" d="m30.469 14h8.062v2h-8.062z" transform="matrix(.868 -.496 .496 .868 -2.897 19.093)"/><path fill="url(#imgStyle)" d="m30.469 19h8.062v2h-8.062z" transform="matrix(.868 -.496 .496 .868 -5.377 19.752)"/><path fill="url(#imgStyle)" d="m30.469 24h8.062v2h-8.062z" transform="matrix(.868 -.496 .496 .868 -7.858 20.411)"/><path fill="url(#imgStyle)" d="m63 5c0-2.206-1.794-4-4-4-1.892 0-3.471 1.323-3.886 3.09-2.334.42-4.114 2.457-4.114 4.91v3h2v-3c0-1.302.839-2.402 2-2.816v47.816c0 .111.03.213.063.313l-.011.004 2 6c.136.408.517.683.948.683v2h2v-2c.431 0 .812-.275.948-.684l2-6-.011-.004c.033-.099.063-.201.063-.312zm-6 0c0-1.103.897-2 2-2s2 .897 2 2v48h-4zm.387 50h3.226l-1.334 4h-.559z"/></g></svg>