<?xml version="1.0"?>
<svg xmlns="http://www.w3.org/2000/svg" viewBox="0 0 64 64" width="512" height="512">
  <linearGradient xmlns="http://www.w3.org/2000/svg" id="imgStyle">
    <stop offset="0" stop-color="#000"/>
    <stop offset="1" stop-color="#000"/>
  </linearGradient>
  <g id="Outline">
  <g><path fill="url(#imgStyle)" d="M61.591,49.5A2.969,2.969,0,0,0,62,48a2.993,2.993,0,0,0-5.3-1.917,2.988,2.988,0,0,0-3.68,2.7l-2.643-2.643a20.917,20.917,0,0,0,.314-19.687,21.133,21.133,0,0,0-1.857-2.961,4.992,4.992,0,0,0,4.286.032A3.911,3.911,0,0,0,55,24a4,4,0,0,0,0-8h-.022a4.867,4.867,0,0,0-4.492-1.97,5.988,5.988,0,0,0-10.162,2.027A4,4,0,0,0,41,24a3.954,3.954,0,0,0,2.232-.682,5.986,5.986,0,0,0,3.425.634,19.2,19.2,0,0,1,2.258,3.412A18.719,18.719,0,0,1,51,36,19.016,19.016,0,0,1,38.3,53.9l-.239-1.553,3.642-3.642A1,1,0,0,0,42,48V43.5l3.6-2.7a1,1,0,0,0-.313-1.758l-8.7-2.611,5.94-8.912a1,1,0,1,0-1.664-1.109l-6.69,10.035a1,1,0,0,0,.545,1.513l8.1,2.431L40.4,42.2a1,1,0,0,0-.4.8v4.586l-3.707,3.707a1,1,0,0,0-.281.859l.357,2.321A18.953,18.953,0,0,1,32,55a19.2,19.2,0,0,1-3.429-.307L27.135,48.47l7.4-4.622a1,1,0,0,0,.051-1.662l-4-2.857a1,1,0,1,0-1.162,1.628L32.2,42.945,25.47,47.152a1,1,0,0,0-.445,1.073L26.4,54.16a18.877,18.877,0,0,1-3.111-1.279,1,1,0,0,0-.921,1.775,20.937,20.937,0,0,0,24.182-3.544l-.535,3.746a1,1,0,0,0,.283.849L47.3,56.715A2.951,2.951,0,0,0,47,58a3,3,0,0,0,4.137,2.776,3.956,3.956,0,0,0,5.51.206A3.961,3.961,0,0,0,61,57a3.874,3.874,0,0,0-.3-1.5A3.874,3.874,0,0,0,61,54a3.975,3.975,0,0,0-.063-.708,2.985,2.985,0,0,0,.654-3.792ZM43.716,21.276a1,1,0,0,0-1.288.12A1.982,1.982,0,0,1,41,22a2,2,0,0,1-.09-4c.033,0,.112.013.146.014a.991.991,0,0,0,1.024-.8A3.991,3.991,0,0,1,49.259,15.7a1,1,0,0,0,1.047.4,2.917,2.917,0,0,1,3.3,1.452,1,1,0,0,0,1.048.5A1.912,1.912,0,0,1,55,18a2,2,0,0,1,0,4,1.981,1.981,0,0,1-1.221-.432,1,1,0,0,0-1.158-.051,3,3,0,0,1-3.38-.1,1,1,0,0,0-1.122-.04A4,4,0,0,1,43.716,21.276Zm8.8,29.824c-.048.089-.108.17-.149.263a4,4,0,0,0-1.39,1.026l-2.9-2.9q.648-.773,1.223-1.6Zm-3.8,4.2-.654-.655.292-2.05,1.713,1.712A3.958,3.958,0,0,0,50,55,2.951,2.951,0,0,0,48.715,55.3Zm10.937-5.048a.99.99,0,0,1-.268,1.67,1,1,0,0,0-.538,1.308A1.992,1.992,0,0,1,59,54a1.966,1.966,0,0,1-.28,1,1,1,0,0,0,0,1.006A1.966,1.966,0,0,1,59,57a1.969,1.969,0,0,1-2.468,1.936,1,1,0,0,0-1,.333,1.969,1.969,0,0,1-3.269-.312,1,1,0,0,0-.726-.506.948.948,0,0,0-.15-.012,1,1,0,0,0-.693.28,1,1,0,1,1,0-1.438,1.028,1.028,0,0,0,.851.24A1.074,1.074,0,0,0,52.283,57a1,1,0,0,0,0-1,1.963,1.963,0,0,1,1.148-2.9,1,1,0,0,0,.67-.669,1.981,1.981,0,0,1,.945-1.17,1,1,0,0,0,.238-1.569,1,1,0,0,1,1.279-1.519,1,1,0,0,0,1.5-.5.995.995,0,1,1,1.589,1.074,1,1,0,0,0,0,1.506Z"/><path fill="url(#imgStyle)" d="M38.212,59.183a23.99,23.99,0,0,1-19.1-2.94A1,1,0,0,0,18.04,57.93a26,26,0,0,0,20.689,3.186,1,1,0,0,0-.517-1.933Z"/><path fill="url(#imgStyle)" d="M8.109,28.563a1,1,0,0,0-1.225.708,26.047,26.047,0,0,0-.129,12.954,1,1,0,0,0,.971.761,1.033,1.033,0,0,0,.239-.028,1,1,0,0,0,.733-1.21,24.021,24.021,0,0,1,.119-11.96A1,1,0,0,0,8.109,28.563Z"/><path fill="url(#imgStyle)" d="M25.788,12.817a24.164,24.164,0,0,1,13.181.214.972.972,0,0,0,.29.044,1,1,0,0,0,.29-1.958,26.178,26.178,0,0,0-14.278-.233,1,1,0,1,0,.517,1.933Z"/><path fill="url(#imgStyle)" d="M55.891,43.437a1,1,0,0,0,1.224-.708,26.008,26.008,0,0,0-.865-16.106,1,1,0,1,0-1.865.722,24.021,24.021,0,0,1,.8,14.867A1,1,0,0,0,55.891,43.437Z"/><path fill="url(#imgStyle)" d="M42,33v2a1,1,0,0,0,2,0V33a1,1,0,0,0-2,0Z"/><path fill="url(#imgStyle)" d="M47,38a1,1,0,0,0,2,0V36a1,1,0,0,0-2,0Z"/><path fill="url(#imgStyle)" d="M46,28a1,1,0,0,0-1,1v2a1,1,0,0,0,2,0V29A1,1,0,0,0,46,28Z"/><path fill="url(#imgStyle)" d="M19,40a1,1,0,0,0,1-1V37a1,1,0,0,0-2,0v2A1,1,0,0,0,19,40Z"/><path fill="url(#imgStyle)" d="M23,33v2a1,1,0,0,0,2,0V33a1,1,0,0,0-2,0Z"/><path fill="url(#imgStyle)" d="M19,31V29a1,1,0,0,0-2,0v2a1,1,0,0,0,2,0Z"/><circle cx="45" cy="45" r="1"/><path fill="url(#imgStyle)" d="M24,43a1,1,0,0,0-1-1H17a13,13,0,0,0-2.884.333,18.778,18.778,0,0,1,3.862-19.112l1.486,1.486a1,1,0,0,0,1.414-1.414l-8.284-8.284a4.016,4.016,0,0,0,1.036-1.34,2.971,2.971,0,0,0,.705.251l7.958,7.958a1,1,0,0,0,1.414-1.414l-1-1a18.936,18.936,0,0,1,1.721-.863l4.25,3.591-3.5,5.257a1,1,0,0,0,.125,1.262l4.367,4.367-3.441,4.3a1,1,0,0,0,1.562,1.25l4-5a1,1,0,0,0-.074-1.332l-4.42-4.42,3.545-5.318a1,1,0,0,0-.186-1.319l-4.06-3.43a18.884,18.884,0,0,1,8.263-.589,1,1,0,0,0,.3-1.978A21,21,0,0,0,24.2,16.524c-.023.01-.047.014-.07.025A21.133,21.133,0,0,0,21.243,18l-1.392-1.391,1.1-3.293A1,1,0,0,0,20.8,12.4l-1.222-1.629a3.95,3.95,0,0,0,.359-2.479,3,3,0,0,0-1.7-5.283,2.992,2.992,0,0,0-5.224,1.76,2.992,2.992,0,0,0-.983,1.923,1,1,0,1,0,1.989.206.981.981,0,0,1,.5-.763,1,1,0,0,0,.5-1L15,5a1,1,0,0,1,1-1,.985.985,0,0,1,.865.516,1,1,0,0,0,1,.5L18,5a1,1,0,0,1,.384,1.923,1,1,0,0,0-.538,1.308,1.986,1.986,0,0,1-1.324,2.687,1,1,0,0,0-.632.521.988.988,0,0,1-1.875-.337,1,1,0,0,0-.669-.776,1.116,1.116,0,0,0-1.071.2,1,1,0,0,0-.339,1.009,1.935,1.935,0,0,1-1.31,2.346l-.035.013a2.006,2.006,0,0,1-.455.091,1,1,0,0,0-.669,1.673,2,2,0,1,1-3.319.6,1,1,0,0,0-.667-1.337,1.984,1.984,0,0,1-.168-3.787A1,1,0,0,0,5.647,9.46,1.971,1.971,0,0,1,5,8,1.995,1.995,0,0,1,8.685,6.935a1,1,0,1,0,1.69-1.07A4,4,0,0,0,3.484,9.9a3.976,3.976,0,0,0,.552,6.569A3.882,3.882,0,0,0,4,17a4,4,0,0,0,4,4,3.947,3.947,0,0,0,2.019-.567l1.274,1.274A1,1,0,0,0,12,22a1.014,1.014,0,0,0,.316-.051l3.293-1.1.955.956a20.76,20.76,0,0,0-4.357,21.12A13.011,13.011,0,0,0,4,55v.005A12.927,12.927,0,0,0,3,60a1,1,0,0,0,2,0,10.927,10.927,0,0,1,.764-4H11A13.015,13.015,0,0,0,24,43ZM17.455,12.713a4.01,4.01,0,0,0,.769-.415l.662.883-.616,1.846L16.692,13.45A2.967,2.967,0,0,0,17.455,12.713ZM12.27,19.856l-.837-.837a3.955,3.955,0,0,0,.545-1.8l2.049,2.05ZM16,47a12.956,12.956,0,0,0-9.147,3.774A11.01,11.01,0,0,1,17,44h4.955A11.015,11.015,0,0,1,11,54H6.792A11,11,0,0,1,16,49a1,1,0,0,0,0-2Z"/></g></g></svg>
