<?xml version="1.0" encoding="iso-8859-1"?>
<svg version="1.1" id="Capa_1" xmlns="http://www.w3.org/2000/svg" xmlns:xlink="http://www.w3.org/1999/xlink" x="0px" y="0px"
	 viewBox="0 0 511.758 511.758" style="enable-background:new 0 0 511.758 511.758;" xml:space="preserve">
    <linearGradient xmlns="http://www.w3.org/2000/svg" id="imgStyle">
    <stop offset="0" stop-color="#000"/>
    <stop offset="1" stop-color="#000"/>
  </linearGradient>
<rect fill="url(#imgStyle)" x="59.979" y="43.979" width="15.992" height="15.992"/>
<g style="opacity:0.2;">
	<path fill="url(#imgStyle)" d="M371.82,59.97v7.996l-31.984,423.786c0,8.878-7.121,15.992-15.992,15.992h15.992c8.871,0,15.992-7.114,15.992-15.992
		l31.984-423.786V59.97C387.813,59.97,371.82,59.97,371.82,59.97z"/>
</g>
<g style="opacity:0.4;">
	<path fill="url(#imgStyle)"  d="M139.939,491.752L107.954,67.966H91.962l31.984,423.786c0,8.878,7.117,15.992,15.992,15.992h15.992
		C147.055,507.744,139.939,500.63,139.939,491.752z"/>
</g>
<path fill="url(#imgStyle)"  d="M378.457,437.139c12.479,12.479,12.479,32.78,0,45.259c-12.479,12.47-32.779,12.47-45.258,0
	c-12.479-12.479-12.479-32.78,0-45.259C345.678,424.669,365.979,424.669,378.457,437.139z"/>
<g style="opacity:0.7;">
	<path fill="url(#imgStyle)"  d="M341.195,482.398c-12.479-12.479-12.479-32.78,0-45.259c5.217-5.216,11.822-8.121,18.631-8.972
		c-9.48-1.187-19.373,1.718-26.627,8.972c-12.479,12.479-12.479,32.78,0,45.259c7.254,7.254,17.146,10.159,26.627,8.972
		C353.018,490.518,346.412,487.613,341.195,482.398z"/>
</g>
<g style="opacity:0.2;">
	<path fill="url(#imgStyle)" d="M370.102,437.139c12.479,12.479,12.479,32.78,0,45.259c-5.215,5.216-11.822,8.12-18.631,8.972
		c9.48,1.188,19.373-1.718,26.627-8.972c12.479-12.479,12.479-32.78,0-45.259c-7.254-7.254-17.146-10.158-26.627-8.972
		C358.279,429.018,364.887,431.923,370.102,437.139z"/>
</g>
<g style="opacity:0.2;">
	<path fill="url(#imgStyle)"  d="M337.44,499.826c-2.639-1.757-5.201-3.756-7.52-6.153c-18.787-18.709-18.787-49.101,0-67.81
		c8.309-8.309,18.865-12.899,29.719-13.813c-13.555-1.147-27.377,3.476-37.715,13.813c-18.787,18.709-18.787,49.101,0,67.81
		c2.318,2.397,4.881,4.396,7.52,6.153c9.145,6.044,19.896,8.597,30.406,7.723C352.002,506.893,344.272,504.34,337.44,499.826z"/>
</g>
<g style="opacity:0.2;">
	<path fill="url(#imgStyle)" d="M374.865,419.765c2.639,1.757,5.201,3.756,7.512,6.153c18.787,18.709,18.787,49.1,0,67.81
		c-8.309,8.309-18.857,12.899-29.711,13.813c13.547,1.147,27.369-3.475,37.707-13.813c18.787-18.71,18.787-49.101,0-67.81
		c-2.311-2.397-4.873-4.396-7.512-6.153c-9.152-6.044-19.896-8.597-30.406-7.723C360.303,412.698,368.025,415.252,374.865,419.765z"
		/>
</g>
<g style="opacity:0.7;">
	<rect fill="url(#imgStyle)" x="75.969" y="35.979"  width="15.992" height="23.987"/>
</g>
<g style="opacity:0.2;">
	<polygon fill="url(#imgStyle)" points="323.844,51.974 239.887,51.974 155.93,51.974 147.934,59.97 91.962,59.97 91.962,67.966 147.934,67.966 
		155.93,59.97 387.813,59.97 387.813,51.974 	"/>
</g>
<g style="opacity:0.2;">
	<path fill="url(#imgStyle)"  d="M107.954,19.99c0-8.878,7.117-15.992,15.992-15.992h-15.992c-8.875,0-15.992,7.114-15.992,15.992
		v8.152h15.992V19.99z"/>
</g>
<path fill="url(#imgStyle)"  d="M426.668,41.183c-4.076-2.881-6.793-7.598-6.871-13.04c0-0.078,0-0.078,0-0.156
	c0-8.878,7.199-15.992,15.99-15.992c8.793,0,15.992,7.114,15.992,15.992s-7.199,15.992-15.992,15.992
	C432.43,43.978,429.307,42.94,426.668,41.183z"/>
<g style="opacity:0.2;">
	<path fill="url(#imgStyle)"  d="M434.664,41.183c-4.076-2.881-6.795-7.598-6.873-13.04c0-0.078,0-0.078,0-0.156
		c0-7.48,5.123-13.649,11.994-15.43c-1.279-0.328-2.607-0.562-3.998-0.562c-8.791,0-15.99,7.114-15.99,15.992
		c0,0.078,0,0.078,0,0.156c0.078,5.442,2.795,10.159,6.871,13.04c2.639,1.757,5.762,2.795,9.119,2.795
		c1.422,0,2.781-0.25,4.092-0.593C438.022,42.916,436.24,42.229,434.664,41.183z"/>
</g>
<g style="opacity:0.2;">
	<path fill="url(#imgStyle)" d="M436.912,14.79c4.076,2.881,6.793,7.598,6.871,13.04c0,0.078,0,0.078,0,0.156c0,7.48-5.121,13.649-11.994,15.43
		c1.281,0.328,2.609,0.562,3.998,0.562c8.793,0,15.992-7.114,15.992-15.992c0-0.078,0-0.078,0-0.156
		c-0.078-5.442-2.795-10.159-6.871-13.04c-2.639-1.757-5.762-2.796-9.121-2.796c-1.42,0-2.779,0.25-4.092,0.594
		C433.555,13.056,435.336,13.743,436.912,14.79z"/>
</g>
<g style="opacity:0.2;">
	<rect fill="url(#imgStyle)" x="67.969" y="43.979" width="7.996" height="15.992"/>
</g>
<g style="opacity:0.2;">
	<rect fill="url(#imgStyle)" x="91.959" y="28.139" width="295.85" height="7.84"/>
</g>
<g style="opacity:0.2;">
	<rect fill="url(#imgStyle)" x="187.91" y="59.969" width="23.988" height="39.98"/>
</g>
<g style="opacity:0.2;">
	<rect fill="url(#imgStyle)" x="267.869" y="59.969" width="23.988" height="39.98"/>
</g>
<polygon fill="url(#imgStyle)"  points="198.229,266.186 209.743,305.447 198.307,298.811 170.962,347.981 151.292,313.998 
	169.443,282.178 157.85,275.463 "/>
<g style="opacity:0.5;">
	<polygon fill="url(#imgStyle)" points="159.288,313.998 177.439,282.178 165.846,275.463 198.732,267.904 198.229,266.186 
		157.85,275.463 169.443,282.178 151.292,313.998 170.962,347.981 174.881,340.938 	"/>
</g>
<polygon fill="url(#imgStyle)"  points="188.792,315.919 228.374,315.919 228.374,347.902 170.962,347.902 "/>
<g style="opacity:0.2;">
	<polygon fill="url(#imgStyle)" points="196.788,315.919 188.792,315.919 170.962,347.902 179.001,347.902 	"/>
</g>
<polygon fill="url(#imgStyle)" points="245.71,330.045 273.947,300.45 273.916,313.67 330.178,312.772 310.586,346.794 
	273.947,346.982 273.932,360.381 "/>
<g style="opacity:0.5;">
	<polygon fill="url(#imgStyle)" points="253.704,330.045 273.932,308.852 273.947,300.45 245.71,330.045 273.932,360.381 
		273.947,351.799 	"/>
</g>
<polygon fill="url(#imgStyle)"  points="293.5,313.35 273.697,279.078 301.402,263.086 330.108,312.803 "/>
<g style="opacity:0.2;">
	<polygon fill="url(#imgStyle)" points="301.402,263.086 295.406,266.545 318.176,305.971 326.125,305.885 	"/>
</g>
<g style="opacity:0.2;">
	<polygon fill="url(#imgStyle)" points="289.502,306.432 293.5,313.35 330.108,312.803 326.094,305.838 	"/>
</g>
<polygon fill="url(#imgStyle)"  points="277.274,256.426 237.51,246.767 248.973,240.184 220.066,191.919 259.326,191.872 
	277.805,223.497 289.424,216.82 "/>
<g style="opacity:0.2;">
	<polygon fill="url(#imgStyle)" points="269.809,223.497 275.799,220.053 259.326,191.872 251.335,191.88 	"/>
	<polygon fill="url(#imgStyle)" points="279.711,222.403 269.824,254.622 277.274,256.426 289.424,216.82 	"/>
</g>
<polygon fill="url(#imgStyle)" points="238.915,223.388 219.128,257.667 191.432,241.675 220.135,191.95 "/>
<g style="opacity:0.5;">
	<polygon fill="url(#imgStyle)"  points="199.428,241.675 220.187,205.717 216.115,198.916 191.432,241.675 219.128,257.667 
		221.128,254.208 	"/>
</g>
<g style="opacity:0.2;">
	<polygon fill="url(#imgStyle)" points="234.917,230.314 238.915,223.388 220.135,191.95 216.115,198.916 	"/>
</g>
<g>
	<path fill="url(#imgStyle)"  d="M123.942,495.75c-2.073,0-3.826-1.601-3.982-3.693L87.975,68.271
		c-0.167-2.202,1.484-4.123,3.686-4.295c2.249-0.102,4.126,1.492,4.287,3.686l31.984,423.786c0.167,2.202-1.484,4.123-3.686,4.295
		C124.145,495.75,124.044,495.75,123.942,495.75z"/>
	<path fill="url(#imgStyle)"  d="M139.939,511.742c-11.022,0-19.99-8.965-19.99-19.99c0-2.21,1.788-3.998,3.998-3.998
		c2.209,0,3.998,1.788,3.998,3.998c0,6.613,5.38,11.994,11.994,11.994c2.209,0,3.998,1.788,3.998,3.998
		C143.936,509.953,142.148,511.742,139.939,511.742z"/>
	<path fill="url(#imgStyle)"  d="M363.106,399.799c-0.094,0-0.195,0-0.297-0.008c-2.201-0.164-3.857-2.086-3.686-4.287L383.83,59.673
		c0.156-2.202,2.107-3.889,4.279-3.694c2.201,0.164,3.857,2.085,3.686,4.287l-24.707,335.831
		C366.94,398.197,365.184,399.799,363.106,399.799z"/>
	<path fill="url(#imgStyle)" d="M323.844,511.742H139.939c-2.21,0-3.998-1.789-3.998-3.998c0-2.21,1.788-3.998,3.998-3.998h183.906
		c2.211,0,3.998,1.788,3.998,3.998C327.842,509.953,326.055,511.742,323.844,511.742z"/>
	<path fill="url(#imgStyle)"  d="M147.934,63.968H75.97c-2.209,0-3.998-1.788-3.998-3.998c0-2.209,1.789-3.998,3.998-3.998h70.308
		l6.825-6.824c0.75-0.75,1.765-1.171,2.827-1.171h247.875c2.209,0,3.998,1.788,3.998,3.998c0,2.209-1.789,3.998-3.998,3.998h-246.22
		l-6.824,6.825C150.01,63.546,148.997,63.968,147.934,63.968z"/>
	<path fill="url(#imgStyle)"  d="M75.97,63.968c-2.209,0-3.998-1.788-3.998-3.998V35.983c0-2.21,1.789-3.998,3.998-3.998
		s3.998,1.788,3.998,3.998V59.97C79.968,62.18,78.179,63.968,75.97,63.968z"/>
	<path fill="url(#imgStyle)"  d="M403.805,39.98H75.97c-2.209,0-3.998-1.788-3.998-3.998c0-2.21,1.789-3.998,3.998-3.998h327.835
		c2.209,0,3.998,1.788,3.998,3.998C407.803,38.192,406.014,39.98,403.805,39.98z"/>
	<path fill="url(#imgStyle)"  d="M59.978,63.968c-2.21,0-3.998-1.788-3.998-3.998V44.618c0-2.21,1.788-3.998,3.998-3.998
		s3.998,1.788,3.998,3.998V59.97C63.976,62.18,62.188,63.968,59.978,63.968z"/>
	<path fill="url(#imgStyle)"  d="M67.974,63.968h-7.996c-2.21,0-3.998-1.788-3.998-3.998c0-2.209,1.788-3.998,3.998-3.998h7.996
		c2.209,0,3.998,1.789,3.998,3.998C71.972,62.18,70.184,63.968,67.974,63.968z"/>
	<path fill="url(#imgStyle)"  d="M67.974,47.976h-7.996c-2.21,0-3.998-1.788-3.998-3.998c0-2.209,1.788-3.998,3.998-3.998h7.996
		c2.209,0,3.998,1.789,3.998,3.998C71.972,46.188,70.184,47.976,67.974,47.976z"/>
	<path fill="url(#imgStyle)"  d="M404.289,55.972c-1.484,0-2.922-0.835-3.609-2.264c-0.951-1.983-0.125-4.373,1.867-5.333
		l22.387-10.791c2-0.969,4.389-0.117,5.342,1.866s0.125,4.373-1.867,5.333l-22.387,10.792
		C405.459,55.847,404.865,55.972,404.289,55.972z"/>
	<path fill="url(#imgStyle)" d="M403.805,39.98c-1.477,0-2.898-0.82-3.592-2.241c-0.969-1.983-0.156-4.373,1.826-5.349l15.992-7.84
		c1.982-0.953,4.389-0.148,5.357,1.835c0.967,1.983,0.156,4.373-1.828,5.349l-15.992,7.84
		C404.998,39.848,404.399,39.98,403.805,39.98z"/>
	<path fill="url(#imgStyle)" d="M435.787,47.976c-4.006,0-7.926-1.195-11.33-3.467c-5.363-3.787-8.564-9.862-8.658-16.312
		c0-11.237,8.963-20.201,19.988-20.201c11.027,0,19.99,8.964,19.99,19.99S446.815,47.976,435.787,47.976z M435.787,15.992
		c-6.613,0-11.994,5.38-11.994,11.994c0.055,4.061,1.953,7.645,5.186,9.933c2,1.327,4.389,2.061,6.809,2.061
		c6.615,0,11.994-5.38,11.994-11.994C447.781,21.372,442.402,15.992,435.787,15.992z"/>
	<path fill="url(#imgStyle)"  d="M91.962,32.141c-2.209,0-3.998-1.789-3.998-3.998v-8.152c0-2.21,1.789-3.998,3.998-3.998
		c2.21,0,3.998,1.788,3.998,3.998v8.152C95.96,30.352,94.171,32.141,91.962,32.141z"/>
	<path fill="url(#imgStyle)"  d="M91.962,23.988c-2.209,0-3.998-1.788-3.998-3.998C87.964,8.965,96.933,0,107.954,0
		c2.21,0,3.998,1.789,3.998,3.998c0,2.21-1.788,3.998-3.998,3.998c-6.614,0-11.994,5.38-11.994,11.994
		C95.96,22.2,94.171,23.988,91.962,23.988z"/>
	<path fill="url(#imgStyle)"  d="M211.902,7.996H107.954c-2.21,0-3.998-1.788-3.998-3.998c0-2.209,1.788-3.998,3.998-3.998h103.947
		c2.21,0,3.998,1.789,3.998,3.998C215.9,6.208,214.111,7.996,211.902,7.996z"/>
	<path fill="url(#imgStyle)"  d="M387.813,23.988c-0.117,0-0.234-0.008-0.359-0.016L211.538,7.981
		c-2.198-0.203-3.819-2.147-3.62-4.341c0.203-2.202,2.089-3.725,4.346-3.624l175.908,15.992c2.201,0.203,3.826,2.147,3.623,4.342
		C391.608,22.427,389.858,23.988,387.813,23.988z"/>
	<path fill="url(#imgStyle)"  d="M387.813,32.141c-2.211,0-3.998-1.789-3.998-3.998v-8.152c0-2.21,1.787-3.998,3.998-3.998
		c2.209,0,3.998,1.788,3.998,3.998v8.152C391.811,30.352,390.022,32.141,387.813,32.141z"/>
	<path fill="url(#imgStyle)"  d="M187.913,103.948c-2.209,0-3.998-1.788-3.998-3.998V59.97c0-2.209,1.788-3.998,3.998-3.998
		s3.998,1.789,3.998,3.998v39.98C191.911,102.16,190.124,103.948,187.913,103.948z"/>
	<path fill="url(#imgStyle)"  d="M211.902,103.948h-23.988c-2.209,0-3.998-1.788-3.998-3.998c0-2.209,1.788-3.998,3.998-3.998h23.988
		c2.21,0,3.998,1.788,3.998,3.998S214.111,103.948,211.902,103.948z"/>
	<path fill="url(#imgStyle)"  d="M211.902,103.948c-2.21,0-3.998-1.788-3.998-3.998V59.97c0-2.209,1.788-3.998,3.998-3.998
		s3.998,1.789,3.998,3.998v39.98C215.9,102.16,214.111,103.948,211.902,103.948z"/>
	<path fill="url(#imgStyle)"  d="M267.873,103.948c-2.211,0-3.998-1.788-3.998-3.998V59.97c0-2.209,1.787-3.998,3.998-3.998
		c2.209,0,3.998,1.789,3.998,3.998v39.98C271.871,102.16,270.082,103.948,267.873,103.948z"/>
	<path fill="url(#imgStyle)"  d="M291.861,103.948h-23.988c-2.211,0-3.998-1.788-3.998-3.998c0-2.209,1.787-3.998,3.998-3.998h23.988
		c2.209,0,3.998,1.788,3.998,3.998C295.859,102.16,294.07,103.948,291.861,103.948z"/>
	<path fill="url(#imgStyle)"  d="M291.861,103.948c-2.211,0-3.998-1.788-3.998-3.998V59.97c0-2.209,1.787-3.998,3.998-3.998
		c2.209,0,3.998,1.789,3.998,3.998v39.98C295.859,102.16,294.07,103.948,291.861,103.948z"/>
	<path fill="url(#imgStyle)"  d="M355.867,511.758c-10.221,0-20.123-2.976-28.635-8.598c-3.209-2.14-5.887-4.334-8.182-6.707
		c-9.793-9.754-15.211-22.802-15.211-36.686c0-13.883,5.418-26.932,15.258-36.738c11.135-11.128,26.549-16.57,42.119-14.892
		c11.838,1.163,22.988,6.458,31.359,14.915c9.822,9.783,15.242,22.832,15.242,36.715c0,13.884-5.42,26.932-15.258,36.74
		C382.768,506.338,369.734,511.758,355.867,511.758z M355.609,415.829c-11.604,0-22.566,4.568-30.859,12.86
		c-8.332,8.301-12.916,19.334-12.916,31.078s4.584,22.778,12.916,31.07c1.945,2.016,4.186,3.85,6.902,5.662
		c7.191,4.747,15.57,7.262,24.215,7.262c11.721,0,22.746-4.584,31.031-12.908c8.34-8.308,12.924-19.342,12.924-31.086
		s-4.584-22.777-12.916-31.07c-7.074-7.152-16.492-11.619-26.51-12.603C358.779,415.915,357.188,415.829,355.609,415.829z"/>
	<path fill="url(#imgStyle)"  d="M355.828,495.75c-9.627,0-18.662-3.74-25.455-10.526c-14.033-14.04-14.033-36.872,0-50.911
		c6.793-6.786,15.828-10.526,25.455-10.526c9.629,0,18.662,3.74,25.455,10.526c14.033,14.039,14.033,36.871,0,50.911
		C374.49,492.01,365.457,495.75,355.828,495.75z M355.828,431.782c-7.496,0-14.523,2.905-19.803,8.184
		c-10.916,10.916-10.916,28.688,0,39.604c10.557,10.558,29.049,10.558,39.605,0c10.916-10.916,10.916-28.688,0-39.604
		C370.352,434.688,363.324,431.782,355.828,431.782z"/>
	<path fill="url(#imgStyle)"  d="M361.507,458.089c-1.023,0-2.047-0.39-2.828-1.171c-1.561-1.562-1.561-4.092,0-5.653l10.801-10.792
		c1.561-1.562,4.09-1.562,5.652,0s1.562,4.092,0,5.654l-10.799,10.791C363.551,457.699,362.527,458.089,361.507,458.089z"/>
	<path fill="url(#imgStyle)"  d="M338.875,480.719c-1.021,0-2.045-0.391-2.826-1.172c-1.561-1.562-1.561-4.092,0-5.653l10.799-10.799
		c1.562-1.562,4.092-1.562,5.654,0s1.562,4.092,0,5.653l-10.799,10.799C340.922,480.328,339.899,480.719,338.875,480.719z"/>
	<path fill="url(#imgStyle)"  d="M353.424,455.926c-1.766,0-3.381-1.179-3.857-2.975l-3.92-14.789
		c-0.562-2.132,0.703-4.318,2.842-4.889c2.123-0.578,4.326,0.703,4.889,2.843l3.92,14.789c0.562,2.132-0.703,4.318-2.844,4.888
		C354.111,455.887,353.768,455.926,353.424,455.926z"/>
	<path fill="url(#imgStyle)"  d="M361.748,486.871c-1.766,0-3.375-1.171-3.857-2.951l-3.998-14.789
		c-0.578-2.132,0.686-4.326,2.811-4.904c2.123-0.57,4.326,0.68,4.904,2.812l3.998,14.789c0.576,2.132-0.688,4.326-2.812,4.903
		C362.441,486.824,362.09,486.871,361.748,486.871z"/>
	<path fill="url(#imgStyle)" d="M347.598,461.846c-0.344,0-0.703-0.047-1.047-0.141l-14.789-3.998
		c-2.139-0.578-3.396-2.772-2.826-4.904c0.578-2.132,2.779-3.396,4.904-2.811l14.797,3.998c2.131,0.577,3.396,2.771,2.818,4.903
		C350.971,460.674,349.363,461.846,347.598,461.846z"/>
	<path fill="url(#imgStyle)"  d="M378.457,470.083c-0.336,0-0.68-0.039-1.023-0.133l-14.797-3.92
		c-2.131-0.569-3.404-2.756-2.842-4.888c0.57-2.14,2.771-3.412,4.889-2.843l14.797,3.92c2.131,0.57,3.412,2.757,2.842,4.889
		C381.846,468.904,380.231,470.083,378.457,470.083z"/>
	<path fill="url(#imgStyle)"  d="M219.098,262.267c-0.695,0-1.386-0.18-1.999-0.539l-27.666-15.992
		c-1.909-1.101-2.565-3.545-1.468-5.45l20.708-35.981c1.101-1.921,3.549-2.569,5.462-1.476c1.913,1.101,2.573,3.545,1.472,5.458
		l-18.721,32.523l20.743,11.994l9.917-17.233c1.109-1.913,3.549-2.577,5.462-1.476c1.913,1.102,2.573,3.545,1.472,5.458
		l-11.916,20.708c-0.531,0.921-1.406,1.593-2.433,1.866C219.792,262.22,219.445,262.267,219.098,262.267z"/>
	<path fill="url(#imgStyle)"  d="M277.313,261.071c-0.32,0-0.631-0.039-0.959-0.117l-39.738-9.76
		c-1.589-0.391-2.78-1.703-3.006-3.327c-0.227-1.616,0.555-3.209,1.972-4.021l7.902-4.529l-26.779-44.797
		c-0.738-1.242-0.758-2.772-0.047-4.029c0.71-1.25,2.038-2.022,3.479-2.022h39.183c1.418,0,2.729,0.75,3.447,1.976l16.539,28.157
		l8.082-4.653c1.412-0.805,3.193-0.68,4.482,0.335c1.287,1.023,1.818,2.725,1.334,4.294l-12.072,39.66
		C280.617,259.955,279.031,261.071,277.313,261.071z M248.228,245.814l26.361,6.474l8.027-26.362l-2.748,1.585
		c-1.906,1.093-4.326,0.453-5.451-1.445l-17.385-29.602h-29.849l25.253,42.244c0.551,0.921,0.707,2.03,0.438,3.068
		c-0.273,1.039-0.949,1.921-1.882,2.452L248.228,245.814z"/>
	<path fill="url(#imgStyle)"  d="M285.707,303.769c-1.373,0-2.717-0.71-3.467-1.991l-11.994-20.708
		c-0.531-0.921-0.672-2.015-0.398-3.038c0.273-1.03,0.945-1.904,1.867-2.436l27.752-15.992c1.904-1.102,4.357-0.438,5.449,1.468
		l20.709,35.896c1.109,1.913,0.453,4.356-1.461,5.458c-1.92,1.108-4.357,0.445-5.457-1.46l-18.717-32.437l-20.811,11.993
		l9.979,17.241c1.109,1.913,0.461,4.357-1.451,5.467C287.082,303.597,286.387,303.769,285.707,303.769z"/>
	<path fill="url(#imgStyle)"  d="M273.947,364.379c-1.092,0-2.154-0.445-2.92-1.273l-28.228-30.305
		c-1.444-1.546-1.429-3.951,0.031-5.481l28.228-29.587c1.125-1.194,2.857-1.562,4.373-0.952c1.514,0.608,2.514,2.077,2.514,3.709
		v9.136l52.154-0.82c1.412-0.194,2.771,0.727,3.506,1.969c0.734,1.241,0.734,2.779,0.016,4.029l-19.584,33.982
		c-0.719,1.226-2.023,1.991-3.436,1.999l-32.656,0.219v9.378c0,1.64-1,3.115-2.529,3.717
		C274.932,364.285,274.44,364.379,273.947,364.379z M251.217,330.108l18.732,20.114v-3.193c0-2.194,1.773-3.982,3.967-3.998
		l34.334-0.227l14.924-25.894l-49.164,0.773c-0.922,0.055-2.107-0.398-2.865-1.148c-0.766-0.749-1.195-1.779-1.195-2.85v-3.217
		L251.217,330.108z"/>
	<path fill="url(#imgStyle)"  d="M186.954,351.979c-2.206,0-3.994-1.788-3.998-3.99c-0.004-2.209,1.784-3.998,3.99-4.006l37.431-0.07
		v-23.979l-19.818,0.062c-0.004,0-0.008,0-0.012,0c-2.202,0-3.99-1.78-3.998-3.982c-0.008-2.21,1.776-4.006,3.986-4.014
		l23.828-0.078c1.343,0.047,2.084,0.414,2.834,1.163c0.754,0.75,1.175,1.773,1.175,2.835v31.983c0,2.202-1.784,3.99-3.99,3.998
		l-41.421,0.078C186.958,351.979,186.958,351.979,186.954,351.979z"/>
	<path fill="url(#imgStyle)"  d="M170.962,351.979c-1.425,0-2.745-0.757-3.459-1.999l-19.67-33.982
		c-0.714-1.226-0.718-2.741-0.012-3.982l16.184-28.368l-8.156-4.725c-1.421-0.82-2.194-2.429-1.952-4.053
		c0.246-1.624,1.46-2.936,3.061-3.303l40.378-9.276c2.054-0.484,4.13,0.741,4.731,2.771l11.217,38.247
		c0.39,0.624,0.617,1.351,0.617,2.139c-0.004,2.233-2.108,3.842-4.08,3.998c-0.621,0.039-1.437-0.164-2.085-0.539l-7.914-4.591
		l-25.366,45.609c-0.699,1.258-2.022,2.038-3.459,2.054C170.984,351.979,170.973,351.979,170.962,351.979z M155.902,313.983
		l14.989,25.9l23.921-43.017c0.523-0.938,1.397-1.624,2.433-1.913c1.042-0.273,2.136-0.141,3.068,0.398l2.776,1.608l-7.637-26.034
		l-26.823,6.161l2.815,1.632c1.901,1.102,2.558,3.529,1.468,5.442L155.902,313.983z"/>
</g>
<g style="opacity:0.2;">
	<polygon fill="url(#imgStyle)" points="371.82,18.538 371.82,19.99 371.82,28.143 387.813,28.143 387.813,19.99 	"/>
</g>
<g style="opacity:0.2;">
	<rect fill="url(#imgStyle)" x="187.91" y="59.969" width="7.996" height="39.98"/>
</g>
<g style="opacity:0.2;">
	<rect fill="url(#imgStyle)" x="267.869" y="59.969" width="7.996" height="39.98"/>
</g>
<g>
</g>
<g>
</g>
<g>
</g>
<g>
</g>
<g>
</g>
<g>
</g>
<g>
</g>
<g>
</g>
<g>
</g>
<g>
</g>
<g>
</g>
<g>
</g>
<g>
</g>
<g>
</g>
<g>
</g>
</svg>
