<?xml version="1.0"?>
<svg xmlns="http://www.w3.org/2000/svg" viewBox="0 0 64 64" width="512" height="512">
  <linearGradient xmlns="http://www.w3.org/2000/svg" id="imgStyle">
    <stop offset="0" stop-color="#000"/>
    <stop offset="1" stop-color="#000"/>
  </linearGradient>
  <g id="Toolbox"><path fill="url(#imgStyle)" d="M15,30a4,4,0,1,0,4,4A4,4,0,0,0,15,30Zm0,6a2,2,0,1,1,2-2A2,2,0,0,1,15,36Z"/>
  <path fill="url(#imgStyle)" d="M61.9,34.553,58,26.764V15a1,1,0,0,0-1-1H54.871A6.969,6.969,0,0,0,52.328,2.406,1,1,0,0,0,51,3.35V8H49V3.35a1,1,0,0,0-1.328-.944A6.969,6.969,0,0,0,45.129,14H35V10h5a1,1,0,0,0,1-1V3a1,1,0,0,0-1-1H24a1,1,0,0,0-1,1V9a1,1,0,0,0,1,1h5v4H13a1,1,0,0,0-1,1V26H7a1,1,0,0,0-.895.553l-4,8A1,1,0,0,0,2,35V61a1,1,0,0,0,1,1H61a1,1,0,0,0,1-1V35A1,1,0,0,0,61.9,34.553ZM59.382,34H53V28h3.382ZM56,26H53V16h3ZM47,5V9a1,1,0,0,0,1,1h4a1,1,0,0,0,1-1V5a4.995,4.995,0,0,1-1.332,8.707A1,1,0,0,0,51,14.65V34H49V14.65a1,1,0,0,0-.668-.943A4.995,4.995,0,0,1,47,5ZM35,20H47v6H35Zm0,8H47v6H35ZM47,16v2H35V16ZM25,4H39V8H25Zm8,6V34H31V10ZM18,26V20H29v6ZM14,16H29v2H17a1,1,0,0,0-1,1v7H14ZM26,60H4V35.236L7.618,28H22.382L26,35.236ZM24.618,28H29v6H27.618ZM28,60V36H60V60Z"/></g></svg>
