<?xml version="1.0" encoding="iso-8859-1"?>
<!-- Generator: Adobe Illustrator 18.0.0, SVG Export Plug-In . SVG Version: 6.00 Build 0)  -->
<!DOCTYPE svg PUBLIC "-//W3C//DTD SVG 1.1//EN" "http://www.w3.org/Graphics/SVG/1.1/DTD/svg11.dtd">
<svg version="1.1" id="Capa_1" xmlns="http://www.w3.org/2000/svg" xmlns:xlink="http://www.w3.org/1999/xlink" x="0px" y="0px"
	 viewBox="0 0 463.18 463.18" style="enable-background:new 0 0 463.18 463.18;" xml:space="preserve">
<g>
	<path style="fill:#FF0000;" d="M231.514,322.83c18.96,0,34.38,15.43,34.38,34.39s-15.42,34.38-34.38,34.38
		s-34.39-15.42-34.39-34.38S212.554,322.83,231.514,322.83z M260.274,357.22c0-15.86-12.91-28.76-28.76-28.76
		c-15.86,0-28.76,12.9-28.76,28.76c0,15.85,12.9,28.76,28.76,28.76C247.364,385.98,260.274,373.07,260.274,357.22z"/>
	<linearGradient id="SVGID_1_" gradientUnits="userSpaceOnUse" x1="216.8402" y1="371.89" x2="246.1839" y2="342.5463">
		<stop  offset="0" style="stop-color:#39B54A"/>
		<stop  offset="1" style="stop-color:#1F6228"/>
	</linearGradient>
	<path style="fill:url(#SVGID_1_);" d="M231.514,336.46c11.44,0,20.76,9.31,20.76,20.76c0,11.44-9.32,20.76-20.76,20.76
		c-11.45,0-20.76-9.32-20.76-20.76C210.754,345.77,220.064,336.46,231.514,336.46z"/>
	<linearGradient id="SVGID_2_" gradientUnits="userSpaceOnUse" x1="260.5739" y1="395.9486" x2="318.6902" y2="395.9486">
		<stop  offset="0" style="stop-color:#EDCF24"/>
		<stop  offset="0.1945" style="stop-color:#EFC823"/>
		<stop  offset="0.4823" style="stop-color:#F3B41F"/>
		<stop  offset="0.8265" style="stop-color:#FB9319"/>
		<stop  offset="1" style="stop-color:#FF8015"/>
	</linearGradient>
	<path style="fill:url(#SVGID_2_);" d="M310.784,382.76c7.7,5.07,10.23,15.36,5.56,23.44c-4.79,8.3-15.43,11.22-23.77,6.56
		c-0.09-0.06-0.19-0.12-0.29-0.17c-4.72-2.74-18.73-13.23-31.71-24.56c3.39-3.2,6.26-6.95,8.45-11.11
		C286.164,380.37,303.814,382.54,310.784,382.76z"/>
	<linearGradient id="SVGID_3_" gradientUnits="userSpaceOnUse" x1="241.2839" y1="418.7154" x2="289.2538" y2="418.7154">
		<stop  offset="0" style="stop-color:#EDCF24"/>
		<stop  offset="0.1945" style="stop-color:#EFC823"/>
		<stop  offset="0.4823" style="stop-color:#F3B41F"/>
		<stop  offset="0.8265" style="stop-color:#FB9319"/>
		<stop  offset="1" style="stop-color:#FF8015"/>
	</linearGradient>
	<path style="fill:url(#SVGID_3_);" d="M287.404,418.99c4.12,8.23,1.16,18.41-6.91,23.06c-8.31,4.81-19.01,2-23.9-6.25
		c-0.04-0.07-0.08-0.15-0.13-0.22c-2.71-4.73-9.61-20.83-15.18-37.13c4.62-1.09,8.96-2.94,12.86-5.42
		C267.284,404.61,281.504,415.32,287.404,418.99z"/>
	<linearGradient id="SVGID_4_" gradientUnits="userSpaceOnUse" x1="213.9439" y1="426.5" x2="249.0239" y2="426.5">
		<stop  offset="0" style="stop-color:#EDCF24"/>
		<stop  offset="0.1945" style="stop-color:#EFC823"/>
		<stop  offset="0.4823" style="stop-color:#F3B41F"/>
		<stop  offset="0.8265" style="stop-color:#FB9319"/>
		<stop  offset="1" style="stop-color:#FF8015"/>
	</linearGradient>
	<path style="fill:url(#SVGID_4_);" d="M249.024,438.65c-0.54,9.19-8.2,16.53-17.51,16.53c-9.65,0-17.52-7.85-17.57-17.57
		c0-5.37,2.08-22.82,5.41-39.79c3.86,1.16,7.93,1.78,12.16,1.78c0.57,0,1.13-0.02,1.7-0.04
		C238.794,416.13,245.744,432.52,249.024,438.65z"/>
	<linearGradient id="SVGID_5_" gradientUnits="userSpaceOnUse" x1="173.7538" y1="415.3381" x2="211.8139" y2="415.3381">
		<stop  offset="0" style="stop-color:#EDCF24"/>
		<stop  offset="0.1945" style="stop-color:#EFC823"/>
		<stop  offset="0.4823" style="stop-color:#F3B41F"/>
		<stop  offset="0.8265" style="stop-color:#FB9319"/>
		<stop  offset="1" style="stop-color:#FF8015"/>
	</linearGradient>
	<path style="fill:url(#SVGID_5_);" d="M211.814,394.73c-3.45,17.14-5.62,34.8-5.85,41.76c-5.06,7.7-15.35,10.23-23.43,5.56
		c-8.33-4.8-11.24-15.49-6.52-23.85c0.05-0.07,0.09-0.14,0.12-0.21c2.75-4.72,13.24-18.74,24.57-31.71
		C203.904,389.67,207.654,392.54,211.814,394.73z"/>
	<path d="M397.544,384.06c0.65,1.55,0.27,3.33-0.96,4.47c-0.32,0.3-7.24,6.65-20.18,11.93c12.35,25.51,8.95,46.02,8.74,47.19
		c-0.3,1.65-1.59,2.94-3.24,3.24c-0.42,0.08-3.46,0.58-8.4,0.58c-13.25,0-40.16-3.67-67-29.09c-1.78,0.39-3.6,0.59-5.43,0.59
		c-1.38,0-2.77-0.12-4.15-0.35c1.69,10.21-2.97,20.9-12.43,26.36c-4.01,2.32-8.39,3.42-12.73,3.42c-5.9,0-11.7-2.05-16.31-5.84
		c-3.65,9.69-13.02,16.62-23.94,16.62c-10.93,0-20.3-6.93-23.94-16.62c-4.62,3.79-10.41,5.84-16.31,5.84
		c-4.34,0-8.72-1.1-12.73-3.42c-9.47-5.46-14.12-16.15-12.43-26.36c-1.38,0.23-2.77,0.35-4.16,0.35c-1.67,0-3.33-0.16-4.96-0.48
		c-26.82,25.32-53.67,28.98-66.89,28.98c-4.94,0-7.98-0.51-8.4-0.59c-1.65-0.29-2.94-1.58-3.24-3.23
		c-0.21-1.17-3.59-21.61,8.67-47.04c-13.15-5.32-20.21-11.78-20.53-12.08c-1.22-1.14-1.61-2.92-0.96-4.47
		c0.51-1.22,10.73-24.72,41.81-39.7c-7.62-7.72-10.86-19.02-8.27-29.68c-7.66-4.23-13.32-11.16-15.96-19.57
		c-2.71-8.66-1.88-17.87,2.33-25.91c4.2-8.05,11.3-13.98,19.97-16.7c7.58-2.37,15.57-2.04,22.83,0.9c0.3-0.78,0.65-1.54,1.04-2.28
		c2.76-5.29,7.43-9.19,13.13-10.97c5.69-1.78,11.75-1.24,17.04,1.52c3.43,1.8,6.31,4.45,8.39,7.66c3.78-1.63,7.89-2.37,11.98-2.17
		l1.61-34.85c-3.49-1.71-6.57-4.16-9-7.18c-3.34,1.89-7.11,2.9-10.98,2.9c-12.34,0-22.37-10.04-22.37-22.37
		c0-0.84,0.05-1.67,0.14-2.5c-17.16-1.7-30.61-16.23-30.61-33.83c0-18.47,14.8-33.55,33.17-33.99
		c3.45-13.89,16.04-23.97,30.66-23.97c3.93,0,7.78,0.72,11.38,2.12v-5.5h-2.54c-2.2,0-4-1.79-4-4V80.2
		c0-28.49,22.15-51.9,50.13-53.96V4c0-2.21,1.79-4,4-4c2.21,0,4,1.79,4,4v22.24c27.98,2.06,50.12,25.47,50.12,53.96v3.79
		c0,2.21-1.79,4-4,4h-2.54v16.19h12.17c2.21,0,4,1.79,4,4v28.33c0,2.21-1.79,4-4,4h-13.06l1.21,26.32
		c6.1,1.22,11.62,4.57,15.53,9.41c3.33-1.88,7.11-2.89,10.98-2.89c12.33,0,22.36,10.03,22.36,22.36c0,0.83-0.05,1.67-0.14,2.49
		c17.16,1.71,30.61,16.23,30.61,33.84c0,18.47-14.8,33.54-33.16,33.99c-3.27,13.18-14.78,22.91-28.43,23.88
		c-0.06,0.64-0.14,1.27-0.24,1.9c10.21-1.69,20.89,2.97,26.35,12.43c5.47,9.46,4.15,21.04-2.41,29.04c0.75,0.28,1.49,0.6,2.22,0.95
		c2.16,0.36,4.19,0.74,6.16,1.17C381.314,346.6,396.914,382.54,397.544,384.06z M372.624,393.38c7.91-3.14,13.36-6.72,16.2-8.84
		c-4.28-7.63-19.46-29.92-54.54-39.66c1.78,3.22,2.89,6.86,3.14,10.73c5.93,4.18,11.56,8.91,16.75,14.1
		C362.134,377.68,368.124,385.68,372.624,393.38z M377.554,443.3c0.57-9.29-0.2-39.09-29.04-67.93c-3.82-3.83-7.9-7.39-12.17-10.64
		c-2.34,7.57-8.11,13.66-15.48,16.43c6.57,8,7.88,19.57,2.41,29.04c-2.15,3.73-5.13,6.71-8.56,8.85
		C341.874,443.16,368.804,443.84,377.554,443.3z M350.754,232.04c0-14.34-11.66-26-26-26c-0.48,0-0.94,0.01-1.41,0.03
		c-1.34,0.06-2.64-0.53-3.44-1.62c-0.8-1.09-1-2.5-0.53-3.77c0.6-1.62,0.91-3.29,0.91-4.97c0-7.92-6.44-14.36-14.36-14.36
		c-3.44,0-6.77,1.24-9.38,3.5c-0.91,0.79-2.12,1.12-3.3,0.92c-1.18-0.2-2.21-0.93-2.8-1.97c-2.35-4.15-6.2-7.22-10.65-8.63
		l4.14,89.98c0.18,0.1,0.37,0.2,0.56,0.31c6.39,3.69,10.59,9.76,12.12,16.46c11.1-0.8,20.29-9.33,21.71-20.5
		c0.27-2.13,2.19-3.65,4.31-3.48c0.73,0.07,1.45,0.1,2.12,0.1C339.094,258.04,350.754,246.37,350.754,232.04z M329.474,357.22
		c0-9.33-7.34-16.98-16.54-17.52c-6.14,3.29-22.51,10.24-39.08,15.82c0.02,0.56,0.04,1.13,0.04,1.7c0,4.22-0.62,8.3-1.78,12.16
		c16.96,3.33,34.41,5.41,39.79,5.41C321.624,374.74,329.474,366.86,329.474,357.22z M309.954,332.21
		c8.36-4.87,11.22-15.62,6.39-23.97c-4.65-8.07-14.83-11.03-23.07-6.9c-3.68,5.91-14.38,20.12-25.95,33.25
		c2.48,3.9,4.33,8.23,5.43,12.86c16.33-5.59,32.45-12.5,37.14-15.2C309.914,332.23,309.944,332.22,309.954,332.21z M316.344,406.2
		c4.67-8.08,2.14-18.37-5.56-23.44c-6.97-0.22-24.62-2.39-41.76-5.84c-2.19,4.16-5.06,7.91-8.45,11.11
		c12.98,11.33,26.99,21.82,31.71,24.56c0.1,0.05,0.2,0.11,0.29,0.17C300.914,417.42,311.554,414.5,316.344,406.2z M280.494,442.05
		c8.07-4.65,11.03-14.83,6.91-23.06c-5.9-3.67-20.12-14.38-33.26-25.96c-3.9,2.48-8.24,4.33-12.86,5.42
		c5.57,16.3,12.47,32.4,15.18,37.13c0.05,0.07,0.09,0.15,0.13,0.22C261.484,444.05,272.184,446.86,280.494,442.05z M286.964,296.31
		c4.79-8.37,1.88-19.1-6.47-23.93c-8.07-4.66-18.37-2.13-23.44,5.56c-0.22,6.96-2.39,24.62-5.84,41.76
		c4.16,2.2,7.91,5.06,11.11,8.45c11.38-13.03,21.92-27.11,24.6-31.77c0,0,0.01-0.01,0.01-0.02
		C286.944,296.35,286.954,296.33,286.964,296.31z M287.264,132.51v-20.33h-2.34v20.33H287.264z M185.394,79.99h92.24
		c-0.11-25.34-20.76-45.91-46.12-45.91S185.504,54.65,185.394,79.99z M276.924,132.51v-20.33h-10.63v20.33H276.924z M275.794,262.37
		l-0.21-4.57l-86.26-40.76l-1.3,28.15l26.53,12.54c4.52-4.02,10.46-6.47,16.96-6.47c10.93,0,20.3,6.92,23.94,16.61
		C261.114,263.22,268.564,261.21,275.794,262.37z M275.164,248.76l-1.35-29.4l-82.8-39.13l-1.3,28.15L275.164,248.76z
		 M273.404,210.32l-1.35-29.42l-79.34-37.48l-1.3,28.15L273.404,210.32z M271.634,171.86l-1.44-31.35h-64.91L271.634,171.86z
		 M271.094,104.18V87.99h-79.17v16.19H271.094z M258.294,132.51v-20.33h-22.62v20.33H258.294z M265.894,357.22
		c0-18.96-15.42-34.39-34.38-34.39s-34.39,15.43-34.39,34.39s15.43,34.38,34.39,34.38S265.894,376.18,265.894,357.22z
		 M243.674,316.62c3.33-16.97,5.41-34.42,5.41-39.79c-0.05-9.73-7.93-17.57-17.57-17.57c-9.32,0-16.97,7.33-17.51,16.52
		c3.28,6.15,10.24,22.54,15.81,39.09c0.57-0.02,1.13-0.04,1.7-0.04C235.734,314.83,239.814,315.46,243.674,316.62z M231.514,455.18
		c9.31,0,16.97-7.34,17.51-16.53c-3.28-6.13-10.23-22.52-15.81-39.09c-0.57,0.02-1.13,0.04-1.7,0.04c-4.23,0-8.3-0.62-12.16-1.78
		c-3.33,16.97-5.41,34.42-5.41,39.79C213.994,447.33,221.864,455.18,231.514,455.18z M227.674,132.51v-20.33h-22.63v20.33H227.674z
		 M221.744,315.98c-5.57-16.27-12.45-32.36-15.17-37.11c-0.06-0.08-0.1-0.16-0.15-0.25c-4.89-8.23-15.58-11.03-23.89-6.24
		c-8.07,4.66-11.03,14.84-6.9,23.07c5.85,3.64,20.09,14.36,33.25,25.95C212.784,318.93,217.114,317.07,221.744,315.98z
		 M209.354,264.12l-21.73-10.27l-0.39,8.52c7.23-1.16,14.68,0.85,20.34,5.5C208.064,266.56,208.664,265.31,209.354,264.12z
		 M205.964,436.49c0.23-6.96,2.4-24.62,5.85-41.76c-4.16-2.19-7.91-5.06-11.11-8.45c-11.33,12.97-21.82,26.99-24.57,31.71
		c-0.03,0.07-0.07,0.14-0.12,0.21c-4.72,8.36-1.81,19.05,6.52,23.85C190.614,446.72,200.904,444.19,205.964,436.49z M197.044,132.51
		v-20.33h-10.62v20.33H197.044z M193.994,337.52c2.2-4.16,5.06-7.91,8.45-11.12c-13.04-11.38-27.12-21.91-31.77-24.59
		c-0.04-0.03-0.08-0.05-0.12-0.07c-8.32-4.76-19.05-1.85-23.87,6.5c-4.67,8.07-2.14,18.37,5.56,23.43
		C159.214,331.9,176.864,334.07,193.994,337.52z M195.694,379.85c-2.47-3.91-4.33-8.24-5.42-12.86
		c-16.29,5.57-32.36,12.46-37.1,15.17c-0.08,0.05-0.16,0.1-0.25,0.15c-8.24,4.89-11.05,15.58-6.25,23.89
		c4.67,8.07,14.85,11.03,23.08,6.9C173.434,407.18,184.144,392.97,195.694,379.85z M189.124,357.22c0-4.23,0.63-8.31,1.78-12.16
		c-16.96-3.33-34.4-5.41-39.78-5.41c-9.72,0.04-17.57,7.92-17.57,17.57c0,9.31,7.33,16.97,16.53,17.51
		c6.14-3.28,22.51-10.23,39.08-15.82C189.144,358.35,189.124,357.79,189.124,357.22z M181.944,203.2l2.89-62.69h-13.07
		c-2.21,0-4-1.79-4-4v-28.33c0-2.21,1.79-4,4-4h12.16v-1.87c-3.47-1.92-7.36-2.94-11.38-2.94c-11.84,0-21.9,8.84-23.4,20.58
		c-0.27,2.1-2.15,3.62-4.26,3.48c-0.7-0.05-1.45-0.1-2.17-0.1c-14.34,0-26,11.66-26,26c0,14.33,11.66,26,26,26
		c0.48,0,0.94-0.01,1.41-0.04c1.35-0.07,2.64,0.54,3.44,1.62s1,2.49,0.53,3.76c-0.6,1.65-0.91,3.33-0.91,4.99
		c0,7.92,6.45,14.37,14.37,14.37c3.43,0,6.77-1.25,9.38-3.52c0.91-0.78,2.12-1.12,3.3-0.91c1.18,0.2,2.21,0.93,2.8,1.97
		C178.284,199.78,179.964,201.68,181.944,203.2z M179.094,265.15l0.46-10c-3.88-0.19-7.81,0.82-11.13,2.96
		c-1.01,0.65-2.26,0.81-3.4,0.45c-1.14-0.37-2.05-1.23-2.49-2.34c-1.27-3.22-3.64-5.86-6.68-7.46c-3.41-1.77-7.29-2.12-10.95-0.98
		c-3.66,1.15-6.66,3.65-8.43,7.05c-0.79,1.49-1.29,3.11-1.51,4.84c-0.17,1.34-1.02,2.51-2.24,3.1c-1.22,0.58-2.65,0.51-3.81-0.19
		c-0.38-0.23-0.76-0.44-1.16-0.65c-6.19-3.24-13.23-3.87-19.86-1.79c-6.62,2.07-12.05,6.61-15.26,12.76
		c-3.23,6.16-3.86,13.19-1.78,19.82c2.07,6.62,6.61,12.05,12.76,15.27c0.56,0.29,1.15,0.57,1.95,0.91c1.96,0.84,2.92,3.07,2.18,5.07
		c-3.6,9.7-0.33,20.69,7.78,26.9c5.56-2.15,11.68-4.02,18.42-5.47c1.9-0.41,3.85-0.78,5.93-1.13c0.74-0.37,1.51-0.7,2.29-0.99
		c-6.57-8-7.88-19.58-2.41-29.04c5.46-9.46,16.14-14.12,26.35-12.43c-1.69-10.21,2.97-20.89,12.43-26.35
		C178.724,265.35,178.914,265.25,179.094,265.15z M178.424,132.51v-20.33h-2.66v20.33H178.424z M148.654,419.26
		c-3.58-2.16-6.68-5.2-8.9-9.06c-5.47-9.46-4.16-21.04,2.41-29.04c-7.26-2.74-12.96-8.68-15.36-16.08
		c-4.1,3.15-8.02,6.59-11.71,10.29c-28.97,28.97-29.67,58.66-29.07,67.93C94.734,443.84,121.534,443.18,148.654,419.26z
		 M125.584,356.03c0.18-4.01,1.3-7.78,3.13-11.11c-35.1,9.79-50.12,31.98-54.36,39.6c2.9,2.16,8.5,5.83,16.55,8.99
		c4.51-7.74,10.52-15.79,18.53-23.8C114.464,364.68,119.884,360.09,125.584,356.03z"/>
	<linearGradient id="SVGID_6_" gradientUnits="userSpaceOnUse" x1="377.2606" y1="358.5682" x2="345.1135" y2="372.881">
		<stop  offset="0" style="stop-color:#39B54A"/>
		<stop  offset="0.1297" style="stop-color:#37B048"/>
		<stop  offset="0.2797" style="stop-color:#33A242"/>
		<stop  offset="0.4398" style="stop-color:#2C8B39"/>
		<stop  offset="0.6069" style="stop-color:#226A2C"/>
		<stop  offset="0.7796" style="stop-color:#14411A"/>
		<stop  offset="0.9545" style="stop-color:#050E06"/>
		<stop  offset="1" style="stop-color:#000000"/>
	</linearGradient>
	<path style="fill:url(#SVGID_6_);" d="M388.824,384.54c-2.84,2.12-8.29,5.7-16.2,8.84c-4.5-7.7-10.49-15.7-18.45-23.67
		c-5.19-5.19-10.82-9.92-16.75-14.1c-0.25-3.87-1.36-7.51-3.14-10.73C369.364,354.62,384.544,376.91,388.824,384.54z"/>
	<linearGradient id="SVGID_7_" gradientUnits="userSpaceOnUse" x1="386.2611" y1="428.2188" x2="316.8362" y2="388.1363">
		<stop  offset="0" style="stop-color:#39B54A"/>
		<stop  offset="0.2352" style="stop-color:#38B249"/>
		<stop  offset="0.3871" style="stop-color:#35AA45"/>
		<stop  offset="0.5155" style="stop-color:#319B3F"/>
		<stop  offset="0.6307" style="stop-color:#2A8637"/>
		<stop  offset="0.7372" style="stop-color:#226B2C"/>
		<stop  offset="0.8373" style="stop-color:#17491E"/>
		<stop  offset="0.9305" style="stop-color:#0B220E"/>
		<stop  offset="1" style="stop-color:#000000"/>
	</linearGradient>
	<path style="fill:url(#SVGID_7_);" d="M348.514,375.37c28.84,28.84,29.61,58.64,29.04,67.93c-8.75,0.54-35.68-0.14-62.84-24.25
		c3.43-2.14,6.41-5.12,8.56-8.85c5.47-9.47,4.16-21.04-2.41-29.04c7.37-2.77,13.14-8.86,15.48-16.43
		C340.614,367.98,344.694,371.54,348.514,375.37z"/>
	<linearGradient id="SVGID_8_" gradientUnits="userSpaceOnUse" x1="342.0501" y1="254.0704" x2="261.1931" y2="207.3876">
		<stop  offset="0" style="stop-color:#FFFFFF"/>
		<stop  offset="0.1134" style="stop-color:#FAFCFE"/>
		<stop  offset="0.2503" style="stop-color:#EBF5FC"/>
		<stop  offset="0.3994" style="stop-color:#D3E8F9"/>
		<stop  offset="0.5571" style="stop-color:#B1D6F4"/>
		<stop  offset="0.7217" style="stop-color:#85BEEE"/>
		<stop  offset="0.8894" style="stop-color:#50A3E7"/>
		<stop  offset="1" style="stop-color:#298EE2"/>
	</linearGradient>
	<path style="fill:url(#SVGID_8_);" d="M324.754,206.04c14.34,0,26,11.66,26,26c0,14.33-11.66,26-26,26c-0.67,0-1.39-0.03-2.12-0.1
		c-2.12-0.17-4.04,1.35-4.31,3.48c-1.42,11.17-10.61,19.7-21.71,20.5c-1.53-6.7-5.73-12.77-12.12-16.46
		c-0.19-0.11-0.38-0.21-0.56-0.31l-4.14-89.98c4.45,1.41,8.3,4.48,10.65,8.63c0.59,1.04,1.62,1.77,2.8,1.97
		c1.18,0.2,2.39-0.13,3.3-0.92c2.61-2.26,5.94-3.5,9.38-3.5c7.92,0,14.36,6.44,14.36,14.36c0,1.68-0.31,3.35-0.91,4.97
		c-0.47,1.27-0.27,2.68,0.53,3.77c0.8,1.09,2.1,1.68,3.44,1.62C323.814,206.05,324.274,206.04,324.754,206.04z"/>
	<linearGradient id="SVGID_9_" gradientUnits="userSpaceOnUse" x1="272.1139" y1="357.245" x2="329.4739" y2="357.245">
		<stop  offset="0" style="stop-color:#EDCF24"/>
		<stop  offset="0.1945" style="stop-color:#EFC823"/>
		<stop  offset="0.4823" style="stop-color:#F3B41F"/>
		<stop  offset="0.8265" style="stop-color:#FB9319"/>
		<stop  offset="1" style="stop-color:#FF8015"/>
	</linearGradient>
	<path style="fill:url(#SVGID_9_);" d="M312.934,339.7c9.2,0.54,16.54,8.19,16.54,17.52c0,9.64-7.85,17.52-17.57,17.57
		c-5.38,0-22.83-2.08-39.79-5.41c1.16-3.86,1.78-7.94,1.78-12.16c0-0.57-0.02-1.14-0.04-1.7
		C290.424,349.94,306.794,342.99,312.934,339.7z"/>
	<linearGradient id="SVGID_10_" gradientUnits="userSpaceOnUse" x1="267.3239" y1="323.4667" x2="318.692" y2="323.4667">
		<stop  offset="0" style="stop-color:#EDCF24"/>
		<stop  offset="0.1945" style="stop-color:#EFC823"/>
		<stop  offset="0.4823" style="stop-color:#F3B41F"/>
		<stop  offset="0.8265" style="stop-color:#FB9319"/>
		<stop  offset="1" style="stop-color:#FF8015"/>
	</linearGradient>
	<path style="fill:url(#SVGID_10_);" d="M316.344,308.24c4.83,8.35,1.97,19.1-6.39,23.97c-0.01,0.01-0.04,0.02-0.06,0.04
		c-4.69,2.7-20.81,9.61-37.14,15.2c-1.1-4.63-2.95-8.96-5.43-12.86c11.57-13.13,22.27-27.34,25.95-33.25
		C301.514,297.21,311.694,300.17,316.344,308.24z"/>
	<linearGradient id="SVGID_11_" gradientUnits="userSpaceOnUse" x1="282.1177" y1="273.4417" x2="249.2638" y2="318.6612">
		<stop  offset="0" style="stop-color:#EDCF24"/>
		<stop  offset="0.1945" style="stop-color:#EFC823"/>
		<stop  offset="0.4823" style="stop-color:#F3B41F"/>
		<stop  offset="0.8265" style="stop-color:#FB9319"/>
		<stop  offset="1" style="stop-color:#FF8015"/>
	</linearGradient>
	<path style="fill:url(#SVGID_11_);" d="M280.494,272.38c8.35,4.83,11.26,15.56,6.47,23.93c-0.01,0.02-0.02,0.04-0.03,0.05
		c0,0.01-0.01,0.02-0.01,0.02c-2.68,4.66-13.22,18.74-24.6,31.77c-3.2-3.39-6.95-6.25-11.11-8.45c3.45-17.14,5.62-34.8,5.84-41.76
		C262.124,270.25,272.424,267.72,280.494,272.38z"/>
	<linearGradient id="SVGID_12_" gradientUnits="userSpaceOnUse" x1="286.0939" y1="112.18" x2="286.0939" y2="132.51">
		<stop  offset="0" style="stop-color:#FFFFFF"/>
		<stop  offset="0.2631" style="stop-color:#E4F1FB"/>
		<stop  offset="0.8246" style="stop-color:#A1CDF2"/>
		<stop  offset="1" style="stop-color:#8AC1EF"/>
	</linearGradient>
	<rect x="284.924" y="112.18" style="fill:url(#SVGID_12_);" width="2.34" height="20.33"/>
	<radialGradient id="SVGID_13_" cx="231.5139" cy="57.035" r="36.4279" gradientUnits="userSpaceOnUse">
		<stop  offset="0" style="stop-color:#ED1C24"/>
		<stop  offset="0.2377" style="stop-color:#E81B23"/>
		<stop  offset="0.5248" style="stop-color:#D91A21"/>
		<stop  offset="0.8363" style="stop-color:#C1171D"/>
		<stop  offset="1" style="stop-color:#B1151B"/>
	</radialGradient>
	<path style="fill:url(#SVGID_13_);" d="M277.634,79.99h-92.24c0.11-25.34,20.76-45.91,46.12-45.91S277.524,54.65,277.634,79.99z"/>
	<linearGradient id="SVGID_14_" gradientUnits="userSpaceOnUse" x1="271.6089" y1="112.18" x2="271.6089" y2="132.51">
		<stop  offset="0" style="stop-color:#FFFFFF"/>
		<stop  offset="0.2631" style="stop-color:#E4F1FB"/>
		<stop  offset="0.8246" style="stop-color:#A1CDF2"/>
		<stop  offset="1" style="stop-color:#8AC1EF"/>
	</linearGradient>
	<rect x="266.294" y="112.18" style="fill:url(#SVGID_14_);" width="10.63" height="20.33"/>
	<linearGradient id="SVGID_15_" gradientUnits="userSpaceOnUse" x1="188.0239" y1="242.455" x2="275.7939" y2="242.455">
		<stop  offset="0.0516" style="stop-color:#FFFFFF"/>
		<stop  offset="0.299" style="stop-color:#ED1C24"/>
		<stop  offset="0.379" style="stop-color:#E81B23"/>
		<stop  offset="0.4758" style="stop-color:#D91A21"/>
		<stop  offset="0.5811" style="stop-color:#C1171D"/>
		<stop  offset="0.6927" style="stop-color:#9F1318"/>
		<stop  offset="0.8078" style="stop-color:#730E12"/>
		<stop  offset="0.8823" style="stop-color:#530A0D"/>
		<stop  offset="0.9857" style="stop-color:#FFFFFF"/>
	</linearGradient>
	<path style="fill:url(#SVGID_15_);" d="M275.584,257.8l0.21,4.57c-7.23-1.16-14.68,0.85-20.34,5.5
		c-3.64-9.69-13.01-16.61-23.94-16.61c-6.5,0-12.44,2.45-16.96,6.47l-26.53-12.54l1.3-28.15L275.584,257.8z"/>
	<linearGradient id="SVGID_16_" gradientUnits="userSpaceOnUse" x1="189.7139" y1="214.495" x2="275.1639" y2="214.495">
		<stop  offset="0" style="stop-color:#FFFFFF"/>
		<stop  offset="0.1558" style="stop-color:#F8F8F8"/>
		<stop  offset="0.3784" style="stop-color:#E5E5E5"/>
		<stop  offset="0.6413" style="stop-color:#C7C7C7"/>
		<stop  offset="0.9326" style="stop-color:#9C9C9C"/>
		<stop  offset="1" style="stop-color:#919191"/>
	</linearGradient>
	<polygon style="fill:url(#SVGID_16_);" points="273.814,219.36 275.164,248.76 189.714,208.38 191.014,180.23 	"/>
	<linearGradient id="SVGID_17_" gradientUnits="userSpaceOnUse" x1="191.4139" y1="176.87" x2="273.4039" y2="176.87">
		<stop  offset="0.0516" style="stop-color:#FFFFFF"/>
		<stop  offset="0.299" style="stop-color:#ED1C24"/>
		<stop  offset="0.379" style="stop-color:#E81B23"/>
		<stop  offset="0.4758" style="stop-color:#D91A21"/>
		<stop  offset="0.5811" style="stop-color:#C1171D"/>
		<stop  offset="0.6927" style="stop-color:#9F1318"/>
		<stop  offset="0.8078" style="stop-color:#730E12"/>
		<stop  offset="0.8823" style="stop-color:#530A0D"/>
		<stop  offset="0.9857" style="stop-color:#FFFFFF"/>
	</linearGradient>
	<polygon style="fill:url(#SVGID_17_);" points="272.054,180.9 273.404,210.32 191.414,171.57 192.714,143.42 	"/>
	<linearGradient id="SVGID_18_" gradientUnits="userSpaceOnUse" x1="205.2839" y1="156.185" x2="271.6339" y2="156.185">
		<stop  offset="0" style="stop-color:#FFFFFF"/>
		<stop  offset="0.1558" style="stop-color:#F8F8F8"/>
		<stop  offset="0.3784" style="stop-color:#E5E5E5"/>
		<stop  offset="0.6413" style="stop-color:#C7C7C7"/>
		<stop  offset="0.9326" style="stop-color:#9C9C9C"/>
		<stop  offset="1" style="stop-color:#919191"/>
	</linearGradient>
	<polygon style="fill:url(#SVGID_18_);" points="270.194,140.51 271.634,171.86 205.284,140.51 	"/>
	<linearGradient id="SVGID_19_" gradientUnits="userSpaceOnUse" x1="191.9239" y1="96.085" x2="271.0939" y2="96.085">
		<stop  offset="0" style="stop-color:#FFFFFF"/>
		<stop  offset="0.1558" style="stop-color:#F8F8F8"/>
		<stop  offset="0.3784" style="stop-color:#E5E5E5"/>
		<stop  offset="0.6413" style="stop-color:#C7C7C7"/>
		<stop  offset="0.9326" style="stop-color:#9C9C9C"/>
		<stop  offset="1" style="stop-color:#919191"/>
	</linearGradient>
	<rect x="191.924" y="87.99" style="fill:url(#SVGID_19_);" width="79.17" height="16.19"/>
	<linearGradient id="SVGID_20_" gradientUnits="userSpaceOnUse" x1="246.9839" y1="112.18" x2="246.9839" y2="132.51">
		<stop  offset="0" style="stop-color:#FFFFFF"/>
		<stop  offset="0.2631" style="stop-color:#E4F1FB"/>
		<stop  offset="0.8246" style="stop-color:#A1CDF2"/>
		<stop  offset="1" style="stop-color:#8AC1EF"/>
	</linearGradient>
	<rect x="235.674" y="112.18" style="fill:url(#SVGID_20_);" width="22.62" height="20.33"/>
	<path d="M231.514,328.46c15.85,0,28.76,12.9,28.76,28.76c0,15.85-12.91,28.76-28.76,28.76c-15.86,0-28.76-12.91-28.76-28.76
		C202.754,341.36,215.654,328.46,231.514,328.46z M252.274,357.22c0-11.45-9.32-20.76-20.76-20.76c-11.45,0-20.76,9.31-20.76,20.76
		c0,11.44,9.31,20.76,20.76,20.76C242.954,377.98,252.274,368.66,252.274,357.22z"/>
	<linearGradient id="SVGID_21_" gradientUnits="userSpaceOnUse" x1="245.8712" y1="264.8446" x2="220.1952" y2="309.3167">
		<stop  offset="0" style="stop-color:#EDCF24"/>
		<stop  offset="0.1945" style="stop-color:#EFC823"/>
		<stop  offset="0.4823" style="stop-color:#F3B41F"/>
		<stop  offset="0.8265" style="stop-color:#FB9319"/>
		<stop  offset="1" style="stop-color:#FF8015"/>
	</linearGradient>
	<path style="fill:url(#SVGID_21_);" d="M249.084,276.83c0,5.37-2.08,22.82-5.41,39.79c-3.86-1.16-7.94-1.79-12.16-1.79
		c-0.57,0-1.13,0.02-1.7,0.04c-5.57-16.55-12.53-32.94-15.81-39.09c0.54-9.19,8.19-16.52,17.51-16.52
		C241.154,259.26,249.034,267.1,249.084,276.83z"/>
	<linearGradient id="SVGID_22_" gradientUnits="userSpaceOnUse" x1="216.3589" y1="112.18" x2="216.3589" y2="132.51">
		<stop  offset="0" style="stop-color:#FFFFFF"/>
		<stop  offset="0.2631" style="stop-color:#E4F1FB"/>
		<stop  offset="0.8246" style="stop-color:#A1CDF2"/>
		<stop  offset="1" style="stop-color:#8AC1EF"/>
	</linearGradient>
	<rect x="205.044" y="112.18" style="fill:url(#SVGID_22_);" width="22.63" height="20.33"/>
	<linearGradient id="SVGID_23_" gradientUnits="userSpaceOnUse" x1="173.7774" y1="295.7199" x2="221.7439" y2="295.7199">
		<stop  offset="0" style="stop-color:#EDCF24"/>
		<stop  offset="0.1945" style="stop-color:#EFC823"/>
		<stop  offset="0.4823" style="stop-color:#F3B41F"/>
		<stop  offset="0.8265" style="stop-color:#FB9319"/>
		<stop  offset="1" style="stop-color:#FF8015"/>
	</linearGradient>
	<path style="fill:url(#SVGID_23_);" d="M206.574,278.87c2.72,4.75,9.6,20.84,15.17,37.11c-4.63,1.09-8.96,2.95-12.86,5.42
		c-13.16-11.59-27.4-22.31-33.25-25.95c-4.13-8.23-1.17-18.41,6.9-23.07c8.31-4.79,19-1.99,23.89,6.24
		C206.474,278.71,206.514,278.79,206.574,278.87z"/>
	<linearGradient id="SVGID_24_" gradientUnits="userSpaceOnUse" x1="187.2339" y1="260.86" x2="209.3539" y2="260.86">
		<stop  offset="0" style="stop-color:#FFFFFF"/>
		<stop  offset="0.1558" style="stop-color:#F8F8F8"/>
		<stop  offset="0.3784" style="stop-color:#E5E5E5"/>
		<stop  offset="0.6413" style="stop-color:#C7C7C7"/>
		<stop  offset="0.9326" style="stop-color:#9C9C9C"/>
		<stop  offset="1" style="stop-color:#919191"/>
	</linearGradient>
	<path style="fill:url(#SVGID_24_);" d="M187.624,253.85l21.73,10.27c-0.69,1.19-1.29,2.44-1.78,3.75
		c-5.66-4.65-13.11-6.66-20.34-5.5L187.624,253.85z"/>
	<linearGradient id="SVGID_25_" gradientUnits="userSpaceOnUse" x1="191.7339" y1="112.18" x2="191.7339" y2="132.51">
		<stop  offset="0" style="stop-color:#FFFFFF"/>
		<stop  offset="0.2631" style="stop-color:#E4F1FB"/>
		<stop  offset="0.8246" style="stop-color:#A1CDF2"/>
		<stop  offset="1" style="stop-color:#8AC1EF"/>
	</linearGradient>
	<rect x="186.424" y="112.18" style="fill:url(#SVGID_25_);" width="10.62" height="20.33"/>
	<linearGradient id="SVGID_26_" gradientUnits="userSpaceOnUse" x1="144.3377" y1="318.4864" x2="202.4439" y2="318.4864">
		<stop  offset="0" style="stop-color:#EDCF24"/>
		<stop  offset="0.1945" style="stop-color:#EFC823"/>
		<stop  offset="0.4823" style="stop-color:#F3B41F"/>
		<stop  offset="0.8265" style="stop-color:#FB9319"/>
		<stop  offset="1" style="stop-color:#FF8015"/>
	</linearGradient>
	<path style="fill:url(#SVGID_26_);" d="M202.444,326.4c-3.39,3.21-6.25,6.96-8.45,11.12c-17.13-3.45-34.78-5.62-41.75-5.85
		c-7.7-5.06-10.23-15.36-5.56-23.43c4.82-8.35,15.55-11.26,23.87-6.5c0.04,0.02,0.08,0.04,0.12,0.07
		C175.324,304.49,189.404,315.02,202.444,326.4z"/>
	<linearGradient id="SVGID_27_" gradientUnits="userSpaceOnUse" x1="144.3298" y1="390.9732" x2="195.6939" y2="390.9732">
		<stop  offset="0" style="stop-color:#EDCF24"/>
		<stop  offset="0.1945" style="stop-color:#EFC823"/>
		<stop  offset="0.4823" style="stop-color:#F3B41F"/>
		<stop  offset="0.8265" style="stop-color:#FB9319"/>
		<stop  offset="1" style="stop-color:#FF8015"/>
	</linearGradient>
	<path style="fill:url(#SVGID_27_);" d="M190.274,366.99c1.09,4.62,2.95,8.95,5.42,12.86c-11.55,13.12-22.26,27.33-25.94,33.25
		c-8.23,4.13-18.41,1.17-23.08-6.9c-4.8-8.31-1.99-19,6.25-23.89c0.09-0.05,0.17-0.1,0.25-0.15
		C157.914,379.45,173.984,372.56,190.274,366.99z"/>
	<linearGradient id="SVGID_28_" gradientUnits="userSpaceOnUse" x1="133.5539" y1="357.19" x2="190.9039" y2="357.19">
		<stop  offset="0" style="stop-color:#EDCF24"/>
		<stop  offset="0.1945" style="stop-color:#EFC823"/>
		<stop  offset="0.4823" style="stop-color:#F3B41F"/>
		<stop  offset="0.8265" style="stop-color:#FB9319"/>
		<stop  offset="1" style="stop-color:#FF8015"/>
	</linearGradient>
	<path style="fill:url(#SVGID_28_);" d="M190.904,345.06c-1.15,3.85-1.78,7.93-1.78,12.16c0,0.57,0.02,1.13,0.04,1.69
		c-16.57,5.59-32.94,12.54-39.08,15.82c-9.2-0.54-16.53-8.2-16.53-17.51c0-9.65,7.85-17.53,17.57-17.57
		C156.504,339.65,173.944,341.73,190.904,345.06z"/>
	<linearGradient id="SVGID_29_" gradientUnits="userSpaceOnUse" x1="116.7139" y1="151.285" x2="184.8339" y2="151.285">
		<stop  offset="0" style="stop-color:#FFFFFF"/>
		<stop  offset="0.1574" style="stop-color:#FCFDFF"/>
		<stop  offset="0.2962" style="stop-color:#F1F7FD"/>
		<stop  offset="0.4279" style="stop-color:#DFEEFB"/>
		<stop  offset="0.5553" style="stop-color:#C5E1F7"/>
		<stop  offset="0.6796" style="stop-color:#A4CFF3"/>
		<stop  offset="0.8016" style="stop-color:#7CBAED"/>
		<stop  offset="0.9195" style="stop-color:#4DA1E7"/>
		<stop  offset="1" style="stop-color:#298EE2"/>
	</linearGradient>
	<path style="fill:url(#SVGID_29_);" d="M184.834,140.51l-2.89,62.69c-1.98-1.52-3.66-3.42-4.91-5.63c-0.59-1.04-1.62-1.77-2.8-1.97
		c-1.18-0.21-2.39,0.13-3.3,0.91c-2.61,2.27-5.95,3.52-9.38,3.52c-7.92,0-14.37-6.45-14.37-14.37c0-1.66,0.31-3.34,0.91-4.99
		c0.47-1.27,0.27-2.68-0.53-3.76s-2.09-1.69-3.44-1.62c-0.47,0.03-0.93,0.04-1.41,0.04c-14.34,0-26-11.67-26-26
		c0-14.34,11.66-26,26-26c0.72,0,1.47,0.05,2.17,0.1c2.11,0.14,3.99-1.38,4.26-3.48c1.5-11.74,11.56-20.58,23.4-20.58
		c4.02,0,7.91,1.02,11.38,2.94v1.87h-12.16c-2.21,0-4,1.79-4,4v28.33c0,2.21,1.79,4,4,4H184.834z"/>
	<linearGradient id="SVGID_30_" gradientUnits="userSpaceOnUse" x1="134.6021" y1="247.1219" x2="134.6021" y2="340.87">
		<stop  offset="0" style="stop-color:#FFFFFF"/>
		<stop  offset="0.1529" style="stop-color:#E4F1FB"/>
		<stop  offset="0.4817" style="stop-color:#A0CDF2"/>
		<stop  offset="0.9578" style="stop-color:#3393E3"/>
		<stop  offset="1" style="stop-color:#298EE2"/>
	</linearGradient>
	<path style="fill:url(#SVGID_30_);" d="M179.554,255.15l-0.46,10c-0.18,0.1-0.37,0.2-0.56,0.31c-9.46,5.46-14.12,16.14-12.43,26.35
		c-10.21-1.69-20.89,2.97-26.35,12.43c-5.47,9.46-4.16,21.04,2.41,29.04c-0.78,0.29-1.55,0.62-2.29,0.99
		c-2.08,0.35-4.03,0.72-5.93,1.13c-6.74,1.45-12.86,3.32-18.42,5.47c-8.11-6.21-11.38-17.2-7.78-26.9c0.74-2-0.22-4.23-2.18-5.07
		c-0.8-0.34-1.39-0.62-1.95-0.91c-6.15-3.22-10.69-8.65-12.76-15.27c-2.08-6.63-1.45-13.66,1.78-19.82
		c3.21-6.15,8.64-10.69,15.26-12.76c6.63-2.08,13.67-1.45,19.86,1.79c0.4,0.21,0.78,0.42,1.16,0.65c1.16,0.7,2.59,0.77,3.81,0.19
		c1.22-0.59,2.07-1.76,2.24-3.1c0.22-1.73,0.72-3.35,1.51-4.84c1.77-3.4,4.77-5.9,8.43-7.05c3.66-1.14,7.54-0.79,10.95,0.98
		c3.04,1.6,5.41,4.24,6.68,7.46c0.44,1.11,1.35,1.97,2.49,2.34c1.14,0.36,2.39,0.2,3.4-0.45
		C171.744,255.97,175.674,254.96,179.554,255.15z"/>
	<linearGradient id="SVGID_31_" gradientUnits="userSpaceOnUse" x1="177.0939" y1="112.18" x2="177.0939" y2="132.51">
		<stop  offset="0" style="stop-color:#FFFFFF"/>
		<stop  offset="0.2631" style="stop-color:#E4F1FB"/>
		<stop  offset="0.8246" style="stop-color:#A1CDF2"/>
		<stop  offset="1" style="stop-color:#8AC1EF"/>
	</linearGradient>
	<rect x="175.764" y="112.18" style="fill:url(#SVGID_31_);" width="2.66" height="20.33"/>
	<linearGradient id="SVGID_32_" gradientUnits="userSpaceOnUse" x1="77.341" y1="428.2608" x2="146.3535" y2="388.4165">
		<stop  offset="0" style="stop-color:#39B54A"/>
		<stop  offset="0.2352" style="stop-color:#38B249"/>
		<stop  offset="0.3871" style="stop-color:#35AA45"/>
		<stop  offset="0.5155" style="stop-color:#319B3F"/>
		<stop  offset="0.6307" style="stop-color:#2A8637"/>
		<stop  offset="0.7372" style="stop-color:#226B2C"/>
		<stop  offset="0.8373" style="stop-color:#17491E"/>
		<stop  offset="0.9305" style="stop-color:#0B220E"/>
		<stop  offset="1" style="stop-color:#000000"/>
	</linearGradient>
	<path style="fill:url(#SVGID_32_);" d="M139.754,410.2c2.22,3.86,5.32,6.9,8.9,9.06c-27.12,23.92-53.92,24.58-62.63,24.04
		c-0.6-9.27,0.1-38.96,29.07-67.93c3.69-3.7,7.61-7.14,11.71-10.29c2.4,7.4,8.1,13.34,15.36,16.08
		C135.594,389.16,134.284,400.74,139.754,410.2z"/>
	<linearGradient id="SVGID_33_" gradientUnits="userSpaceOnUse" x1="89.6179" y1="358.0694" x2="115.7094" y2="373.1333">
		<stop  offset="0" style="stop-color:#39B54A"/>
		<stop  offset="0.1297" style="stop-color:#37B048"/>
		<stop  offset="0.2797" style="stop-color:#33A242"/>
		<stop  offset="0.4398" style="stop-color:#2C8B39"/>
		<stop  offset="0.6069" style="stop-color:#226A2C"/>
		<stop  offset="0.7796" style="stop-color:#14411A"/>
		<stop  offset="0.9545" style="stop-color:#050E06"/>
		<stop  offset="1" style="stop-color:#000000"/>
	</linearGradient>
	<path style="fill:url(#SVGID_33_);" d="M128.714,344.92c-1.83,3.33-2.95,7.1-3.13,11.11c-5.7,4.06-11.12,8.65-16.15,13.68
		c-8.01,8.01-14.02,16.06-18.53,23.8c-8.05-3.16-13.65-6.83-16.55-8.99C78.594,376.9,93.614,354.71,128.714,344.92z"/>
	<radialGradient id="SVGID_34_" cx="214.599" cy="56.595" r="13.335" gradientUnits="userSpaceOnUse">
		<stop  offset="0" style="stop-color:#FFFFFF"/>
		<stop  offset="1" style="stop-color:#FFFFFF;stop-opacity:0"/>
	</radialGradient>
	<circle style="fill:url(#SVGID_34_);" cx="214.599" cy="56.595" r="13.335"/>
</g>
<g>
</g>
<g>
</g>
<g>
</g>
<g>
</g>
<g>
</g>
<g>
</g>
<g>
</g>
<g>
</g>
<g>
</g>
<g>
</g>
<g>
</g>
<g>
</g>
<g>
</g>
<g>
</g>
<g>
</g>
</svg>
