<svg height="511pt" viewBox="0 -123 511.99963 511" width="511pt" xmlns="http://www.w3.org/2000/svg">
  <linearGradient xmlns="http://www.w3.org/2000/svg" id="imgStyle">
  <stop offset="0" stop-color="#1192EE"/>
  <stop offset="1" stop-color="#9B9B9B"/>
  </linearGradient>
  <path fill="url(#imgStyle)" d="m426.492188 99.960938h-18.117188c-11.6875 0-23.082031 2.410156-33.5625 6.886718.023438-.582031.058594-1.160156.058594-1.746094 0-10.816406-8.800782-19.617187-19.617188-19.617187h-30.761718c-4.039063 0-8.046876-1.328125-11.285157-3.746094l-8.132812-6.066406c-5.03125-3.761719-11.230469-5.335937-17.449219-4.429687-6.21875.902343-11.710938 4.171874-15.46875 9.207031l-.28125.378906-52.414062-38.632813c-9.046876-6.671874-20.496094-9.347656-31.550782-7.445312l8.277344-13.140625c.027344-.042969.050781-.082031.078125-.125 2.355469-3.90625 7.007813-5.546875 11.183594-4.179687-1.023438 7.675781 2.617187 15.566406 9.789062 19.546874l26.117188 14.511719c2.878906 1.597657 6.132812 2.445313 9.414062 2.445313 7.046875 0 13.550781-3.828125 16.972657-9.984375 5.191406-9.351563 1.8125-21.1875-7.539063-26.382813l-26.121094-14.511718c-6.859375-3.808594-15.046875-2.9882818-20.976562 1.402343-11.34375-5.46875-24.964844-1.519531-31.582031 9.378907l-7.414063 11.769531c-3.019531-6.03125-8.164063-10.859375-14.855469-13.589844l-20.621094-8.398437c-3.597656-1.464844-7.671874-1.046876-10.898437 1.121093-3.226563 2.171875-5.148437 5.785157-5.148437 9.671875v48.441406c0 8.324219 9.054687 13.636719 16.050781 10.792969l7.015625-2.859375-22.753906 36.121094c-11.089844-5.257812-23.472657-8.210938-36.539063-8.210938h-18.121094c-26.941406 0-51.777343 12.320313-68.128906 33.796876-2.382813 3.132812-2.777344 7.269531-1.027344 10.804687s5.289063 5.730469 9.234375 5.730469h10.445313c-9.414063 12.550781-14.605469 27.867187-14.605469 43.949218 0 40.445313 32.902344 73.347657 73.347656 73.347657 27.789063 0 52.90625-15.558594 65.371094-40.046875h18.792969c5.679687 0 10.296875-4.621094 10.296875-10.300782v-31.671874c0-28.808594-14.316406-54.316407-36.1875-69.839844l21.785156-34.585938 31.015625 126.511719c-2.789063 1.082031-4.769531 3.785156-4.769531 6.953125 0 4.125 3.339844 7.464844 7.464844 7.464844h1.125c4.78125 12.304687 16.628906 20.582031 30.128906 20.582031h88.492187c13.628907 0 25.867188-8.625 30.453125-21.460937l3.121094-8.738282c8.121094 31.660156 36.898438 55.132813 71.058594 55.132813 40.445312 0 73.347656-32.902344 73.347656-73.347657 0-.191406-.011719-.382812-.015625-.570312h10.710937c2.800782 0 5.519532-1.164062 7.453126-3.191406 1.9375-2.03125 2.972656-4.804688 2.839843-7.609375-2.15625-45.714844-39.707031-81.519531-85.496093-81.519531zm-203.746094-82.242188c.816406-1.472656 2.347656-2.304688 3.925781-2.304688.734375 0 1.476563.183594 2.164063.5625l26.117187 14.507813c2.15625 1.199219 2.9375 3.933594 1.738281 6.09375-.789062 1.421875-2.292968 2.304687-3.925781 2.304687-.761719 0-1.488281-.191406-2.164063-.566406l-26.117187-14.511718c-2.15625-1.199219-2.9375-3.929688-1.738281-6.085938zm-83.238282 40.140625v-38.710937l16.113282 6.5625c5.386718 2.195312 8.601562 6.976562 8.601562 12.792968s-3.214844 10.597656-8.601562 12.792969zm-60.003906 193.414063c-32.214844 0-58.421875-26.210938-58.421875-58.425782 0-16.949218 7.253907-32.832031 19.957031-43.945312h2.449219c4.121094 0 7.464844-3.34375 7.464844-7.464844s-3.34375-7.460938-7.464844-7.460938h-23c13.167969-13.121093 30.828125-20.480468 49.753907-20.480468h18.117187c10.144531 0 19.785156 2.164062 28.511719 6.027344l-12.566406 19.953124c-7.613282-3.523437-16.078126-5.5-25.003907-5.5-4.121093 0-7.464843 3.339844-7.464843 7.460938s3.34375 7.464844 7.464843 7.464844c6 0 11.726563 1.191406 16.960938 3.339844l-1.914063 3.039062c-4.597656-1.824219-9.601562-2.835938-14.84375-2.835938-22.277344 0-40.40625 18.125-40.40625 40.40625 0 22.277344 18.125 40.40625 40.40625 40.40625s40.40625-18.128906 40.40625-40.40625c0-11.683593-4.988281-22.21875-12.941406-29.601562l1.96875-3.125c9.324219 8.226562 15.222656 20.253906 15.222656 33.636719v12.636719c0 5.804687 2.53125 11.019531 6.53125 14.636718-10.199218 18.542969-29.6875 30.238282-51.1875 30.238282zm25.480469-58.425782c0 14.050782-11.429687 25.480469-25.480469 25.480469-14.050781 0-25.480468-11.429687-25.480468-25.480469 0-14.046875 11.429687-25.476562 25.480468-25.476562 2.308594 0 4.542969.3125 6.667969.890625l-12.980469 20.609375c-2.199218 3.488281-1.152344 8.097656 2.335938 10.292968 1.234375.777344 2.609375 1.148438 3.96875 1.148438 2.480468 0 4.902344-1.234375 6.320312-3.484375l12.976563-20.597656c3.851562 4.464843 6.191406 10.273437 6.191406 16.617187zm54.054687-8.667968v27.046874h-15.128906c-2.660156 0-4.824218-2.167968-4.824218-4.828124v-12.636719c0-18.699219-8.636719-35.414063-22.121094-46.382813l12.847656-20.398437c17.695312 12.859375 29.226562 33.699219 29.226562 57.199219zm36.308594-135.132813c5.457032.066406 10.734375 1.828125 15.257813 5.160156l53.628906 39.53125h-67.015625c-13.058594 0-23.695312-10.625-23.710938-23.683593l-.015624-9.992188c4.988281-6.988281 13.253906-11.117188 21.855468-11.015625zm53.984375 85.136719c0 9.738281-7.925781 17.664062-17.664062 17.664062-9.742188 0-17.667969-7.921875-17.667969-17.664062 0-9.742188 7.925781-17.667969 17.667969-17.667969 9.738281 0 17.664062 7.925781 17.664062 17.667969zm63.683594 92.15625h-88.488281c-5.039063 0-9.644532-2.140625-12.859375-5.65625h98.1875c4.121093 0 7.460937-3.34375 7.460937-7.464844s-3.339844-7.460938-7.460937-7.460938h-104.035157l-24.667968-100.609374c4.898437 2.25 10.335937 3.515624 16.066406 3.515624h14.210938c-7.519532 5.976563-12.355469 15.191407-12.355469 25.519532 0 17.96875 14.621093 32.589844 32.589843 32.589844 17.972657 0 32.59375-14.621094 32.59375-32.589844 0-10.328125-4.835937-19.542969-12.355468-25.519532h17.398437c3.789063 0 7.195313-1.519531 9.621094-4.097656l32.269531 23.785156c3.316406 2.445313 7.992188 1.738282 10.4375-1.578124 2.445313-3.316407 1.738282-7.988282-1.578125-10.433594l-36.164062-26.65625.226562-.308594c1.375-1.835938 3.382813-3.035156 5.65625-3.363281 2.269531-.328125 4.535157.242187 6.375 1.617187l8.132813 6.070313c5.800781 4.328125 12.976562 6.710937 20.210937 6.710937h30.761719c2.589844 0 4.691406 2.105469 4.691406 4.691406 0 4.191407-1.011718 8.3125-2.929687 12.019532-7.089844 5.320312-13.40625 11.761718-18.640625 19.183594-3.71875 5.277343-2.558594 12.453124 2.640625 16.335937l8.367187 6.242187-9.265625 25.941407h-67.851562c-.191407 0-.773438 0-1.113281-.691407-.34375-.695312.011718-1.15625.128906-1.304687l17.734375-23.039063c2.515625-3.265624 1.90625-7.949218-1.359375-10.464843s-7.953125-1.902344-10.464844 1.359375l-17.738281 23.039062c-3.785157 4.917969-4.433594 11.429688-1.695313 17 2.742188 5.566406 8.300782 9.027344 14.507813 9.027344h62.519531l-5.367188 15.03125c-2.46875 6.914062-9.058593 11.558594-16.398437 11.558594zm104.636719 24.933594c-29.878906 0-54.574219-22.550782-58.003906-51.523438h18.199218c3.285156 19.003906 19.878906 33.503906 39.804688 33.503906 22.277344 0 40.40625-18.125 40.40625-40.40625 0-22.277344-18.125-40.40625-40.40625-40.40625-19.535156 0-35.871094 13.933594-39.605469 32.382813h-18.265625c.71875-5.1875 2.125-10.253907 4.1875-15.050781l1.035156.773437c5.230469 3.90625 12.671875 2.84375 16.589844-2.359375 8.570312-11.375 21.632812-17.894531 35.839844-17.894531 18.597656 0 35.476562 11.699219 42 29.117187 2.660156 7.101563 9.199218 12.042969 16.625 12.765625 0 .222657.015625.449219.015625.671875 0 32.214844-26.210938 58.425782-58.421875 58.425782zm24.523437-51.523438c-3.019531 10.707031-12.867187 18.578125-24.523437 18.578125-11.660156 0-21.507813-7.871094-24.523438-18.578125zm-48.703125-14.921875c3.371094-10.132813 12.933594-17.457031 24.179688-17.457031s20.808594 7.324218 24.179687 17.457031zm84.464844-7.476563c-1.996094 0-3.816406-1.277343-4.527344-3.175781-8.695312-23.214843-31.191406-38.808593-55.976562-38.808593-17.917969 0-34.46875 7.777343-45.867188 21.453124l-19.207031-14.335937c13.355469-17.335937 34.074219-27.597656 56.015625-27.597656h18.117188c36.175781 0 66.125 27.070312 70.195312 62.464843zm0 0"/><path fill="url(#imgStyle)" d="m241.242188 184.816406c0 5.289063-4.289063 9.574219-9.574219 9.574219-5.289063 0-9.578125-4.285156-9.578125-9.574219 0-5.289062 4.289062-9.574218 9.578125-9.574218 5.285156 0 9.574219 4.285156 9.574219 9.574218zm0 0"/></svg>