<svg id="Layer_5" enable-background="new 0 0 64 64" height="512" viewBox="0 0 64 64" width="512" xmlns="http://www.w3.org/2000/svg"><g><g><g><path d="m28 18h-18c-2.21 0-4 1.79-4 4v5.33c-2.37-1.13-4-3.54-4-6.33 0-3.87 3.13-7 7-7 .36 0 .7.04 1.05.09.47-6.76 6.08-12.09 12.95-12.09 5.22 0 9.7 3.08 11.77 7.51 1.62-1.55 3.81-2.51 6.23-2.51 3.19 0 5.98 1.66 7.58 4.16 1.31-.73 2.81-1.16 4.42-1.16 4.97 0 9 4.03 9 9 0 3.12-1.59 5.87-4 7.48v-4.48c0-2.21-1.79-4-4-4h-18v-4h-8z" fill="#e6e9ed"/></g><g><path d="m38 54.38c4.73.65 8 2.02 8 3.62 0 2.21-6.27 4-14 4s-14-1.79-14-4c0-1.6 3.27-2.97 8-3.62v2.62s2 1 6 1 6-1 6-1z" fill="#969faa"/></g><g><path d="m38 54.38v2.62s-2 1-6 1-6-1-6-1v-2.62-2.38h12z" fill="#aab2bd"/></g><g><path d="m58 44v4c0 2.21-1.79 4-4 4h-16-12-16c-2.21 0-4-1.79-4-4v-4h10 6 20 6z" fill="#ccd1d9"/></g><g><path d="m54 18h-44c-2.21 0-4 1.79-4 4v5.33 16.67h52v-17.52-4.48c0-2.21-1.79-4-4-4z" fill="#69d6f4"/></g><g><path d="m27.5 30.75 2.33 3.49h-.01c-4.47.99-7.82 4.98-7.82 9.76h-6v-3l2.54-.81c.3-1.06.72-2.07 1.24-3.02l-1.22-2.36 4.25-4.25 2.36 1.22c.74-.41 1.52-.75 2.33-1.03z" fill="#fcd770"/></g><g><path d="m48 41v3h-6c0-4.78-3.35-8.77-7.82-9.76h-.01l2.33-3.49c.81.28 1.59.62 2.33 1.03l2.36-1.22 4.25 4.25-1.22 2.36c.52.95.94 1.96 1.24 3.02z" fill="#fcd770"/></g><g><path d="m41 24-4.5 6.75-2.33 3.49-.62.93c-.34.52-.93.83-1.55.83s-1.21-.31-1.55-.83l-.62-.93-2.33-3.49-4.5-6.75h5v-6-4h8v4 6z" fill="#b4dd7f"/></g></g><g><path d="m63 19c0-5.514-4.486-10-10-10-1.412 0-2.812.303-4.098.882-1.89-2.446-4.782-3.882-7.902-3.882-2.15 0-4.21.684-5.92 1.947-2.493-4.258-7.104-6.947-12.08-6.947-6.972 0-12.866 5.195-13.844 12.002-4.499-.132-8.156 3.535-8.156 7.998 0 2.852 1.558 5.485 4 6.906v20.094c0 2.757 2.243 5 5 5h15v.523c-3.329.532-8 1.761-8 4.477 0 3.436 7.775 5 15 5s15-1.564 15-5c0-2.716-4.671-3.945-8-4.477v-.523h15c2.757 0 5-2.243 5-5v-21.023c2.506-1.887 4-4.82 4-7.977zm-23.869 6-6.409 9.613c-.323.484-1.122.484-1.445 0l-6.408-9.613h4.131v-10h6v10zm17.869 18h-8v-2.729l-2.734-.876c-.248-.772-.556-1.519-.919-2.229l1.312-2.549-5.274-5.274-2.549 1.312c-.266-.136-.54-.259-.816-.379l4.849-7.276h-5.869v-4h17c1.654 0 3 1.346 3 3zm-37.212-8.001 3.211-3.211 2.195 1.129.469-.262c.462-.259.952-.479 1.452-.681l1.13 1.696c-3.959 1.447-6.805 5.107-7.197 9.33h-4.048v-1.271l2.356-.755.146-.517c.279-.986.667-1.927 1.153-2.796l.262-.468zm9.602.389.223.334c.533.8 1.426 1.278 2.387 1.278s1.854-.478 2.387-1.277l.223-.334c3.421 1.039 5.924 4.071 6.327 7.612h-17.873c.402-3.541 2.906-6.574 6.326-7.613zm13.562 7.612c-.392-4.223-3.238-7.883-7.197-9.33l1.13-1.696c.5.202.99.422 1.452.681l.469.262 2.195-1.129 3.211 3.211-1.129 2.195.262.468c.486.869.875 1.81 1.153 2.796l.146.517 2.356.754v1.271zm-15.952-20h-5.869l4.849 7.274c-.276.12-.55.244-.816.379l-2.549-1.312-5.274 5.274 1.312 2.549c-.363.71-.671 1.457-.919 2.229l-2.734.878v2.729h-8v-21c0-1.654 1.346-3 3-3h17zm18 35c0 .897-4.423 3-13 3s-13-2.103-13-3c0-.409 1.458-1.678 6-2.45v2.068l.553.276c.09.045 2.259 1.106 6.447 1.106s6.357-1.061 6.447-1.105l.553-.277v-2.068c4.542.772 6 2.041 6 2.45zm-8-1.686c-.806.266-2.479.686-5 .686-2.522 0-4.197-.421-5-.685v-3.315h10zm17-5.314h-44c-1.654 0-3-1.346-3-3v-3h50v3c0 1.654-1.346 3-3 3zm0-34h-17v-4h-10v4h-17c-2.757 0-5 2.243-5 5v3.467c-1.248-1.123-2-2.746-2-4.467 0-3.309 2.691-6 6-6 .27 0 .555.024.897.075l1.071.161.075-1.08c.436-6.256 5.688-11.156 11.957-11.156 4.633 0 8.898 2.722 10.866 6.936l.591 1.265 1.007-.967c1.501-1.441 3.467-2.234 5.536-2.234 2.738 0 5.257 1.384 6.739 3.703l.51.798.825-.466c1.198-.677 2.555-1.035 3.926-1.035 4.411 0 8 3.589 8 8 0 1.973-.727 3.84-2 5.284v-2.284c0-2.757-2.243-5-5-5z"/><path d="m27 47h2v2h-2z"/><path d="m31 47h2v2h-2z"/><path d="m35 47h2v2h-2z"/><path d="m13 15h2c0-4.411 3.589-8 8-8v-2c-5.514 0-10 4.486-10 10z"/></g></g></svg>