<svg id="Layer_3" enable-background="new 0 0 64 64" height="512" viewBox="0 0 64 64" width="512" xmlns="http://www.w3.org/2000/svg"><g><path d="m50 56h-32v2c0 2.209-1.791 4-4 4-2.209 0-4-1.791-4-4v-52c0-2.209-1.791-4-4-4h37c3.866 0 7 3.134 7 7z" fill="#adaba6"/><path d="m10 6v40.924c3.941 3.191 8.773 5.076 14 5.076 13.255 0 24-12.088 24-27 0-9.725-4.572-18.247-11.429-23h-30.571c2.209 0 4 1.791 4 4z" fill="#f1efeb"/><g><path d="m50 56h-32v2c0 2.209-1.791 4-4 4h36c2.209 0 4-1.791 4-4v-2z" fill="#74726f"/></g><path d="m10 14h-8v-8c0-2.209 1.791-4 4-4 2.209 0 4 1.791 4 4z" fill="#74726f"/><circle cx="22" cy="44" fill="#b57769" r="8"/><circle cx="22" cy="44" fill="#f29f8c" r="4"/><path d="m41.05 32.464h9.899v7.071h-9.899z" fill="#8f6643" transform="matrix(.707 -.707 .707 .707 -11.983 43.071)"/><g fill="#bf8859"><path d="m52.857 35.963h3.536v17.324h-3.536z" transform="matrix(.707 -.707 .707 .707 -15.555 51.696)"/><path d="m38.879 36.05h4.243v9.899h-4.243z" transform="matrix(.707 -.707 .707 .707 -16.983 41)"/><path d="m48.879 26.05h4.243v9.899h-4.243z" transform="matrix(.707 -.707 .707 .707 -6.983 45.142)"/></g><g><path d="m14 19h33v2h-33z" fill="#606060"/></g><g><path d="m14 27h29v2h-29z" fill="#606060"/></g><g><path d="m14 23h33v2h-33z" fill="#606060"/></g><g><path d="m14 11h33v2h-33z" fill="#606060"/></g><g><path d="m14 7h33v2h-33z" fill="#606060"/></g><g><path d="m14 15h33v2h-33z" fill="#606060"/></g><g><path d="m14 31h27v2h-27z" fill="#606060"/></g><g><path d="m45 53h-4c-1.426 0-2.68-.75-3.388-1.875-1.22 1.191-2.867 1.875-4.612 1.875v-2c1.543 0 2.976-.767 3.832-2.051l.336-.504c.244-.367.702-.531 1.122-.402.422.127.71.517.71.957 0 1.103.897 2 2 2h4z" fill="#606060"/></g></g></svg>