<svg height="512pt" viewBox="0 0 512 512" width="512pt" xmlns="http://www.w3.org/2000/svg">
<linearGradient id="ImageProyect" gradientUnits="userSpaceOnUse" x1="-59.6075" y1="558.4163" x2="11.7726" y2="629.7973" gradientTransform="matrix(8 0 0 -8 398.8871 4941.3848)">
	<stop  offset="0" style="stop-color:#003F8A"/>
	<stop  offset="0.518" style="stop-color:#00D7DF"/>
	<stop  offset="1" style="stop-color:#006DF0"/>
</linearGradient>
<path style="fill:url(#ImageProyect);" d="m256 0c-141.164062 0-256 114.835938-256 256s114.835938 256 256 256 256-114.835938 256-256-114.835938-256-256-256zm0 0"/>
<path xmlns="http://www.w3.org/2000/svg" style="fill:#FFFFFF;" d="M248.945,200.853c7.111-9.956,9.956-19.911,9.956-28.444c0-8.533-2.844-17.067-8.533-22.756  c-5.689-5.689-14.222-9.956-22.756-9.956c-17.067,0-34.133,12.8-49.778,36.978l-49.778-28.444  c12.8-19.911,27.022-35.556,42.667-45.511s35.556-15.644,58.311-15.644s44.089,7.111,62.578,22.756  c18.489,15.644,27.022,35.556,27.022,61.156c0,14.222-4.267,28.444-11.378,41.244c-7.111,12.8-19.911,29.867-39.822,49.778  l-49.778,51.2h109.511v55.467H132.323v-45.511l81.067-82.489C230.456,223.609,241.834,210.809,248.945,200.853z"/>
</svg>