<svg width="307" height="276" viewBox="0 0 307 276" fill="none" xmlns="http://www.w3.org/2000/svg">
<path d="M303.935 88.4789C297.337 129.841 276.282 167.52 244.515 194.814C212.748 222.108 172.33 237.247 130.451 237.537C121.968 237.863 113.474 237.347 105.093 235.998C87.5656 233.021 71.5888 224.124 59.8274 210.791C48.066 197.458 41.231 180.495 40.4627 162.732C40.6325 142.92 48.5849 123.969 62.6035 109.97C76.6221 95.9706 95.5826 88.0458 115.392 87.9058C135.202 87.7658 154.273 95.4219 168.488 109.222C182.703 123.021 190.922 141.858 191.372 161.665C191.689 174.175 186.27 185.148 175.133 185.465C163.234 185.465 157.656 176.974 157.656 165.531V133.734C157.661 128.591 155.632 123.655 152.012 120.003C148.392 116.351 143.474 114.279 138.333 114.24H111.68C103.927 114.187 96.2854 116.077 89.4519 119.739C82.6184 123.4 76.8114 128.716 72.5614 135.201C68.3114 141.685 65.754 149.132 65.123 156.859C64.4919 164.587 65.8073 172.35 68.9488 179.438C72.0904 186.526 76.958 192.714 83.1069 197.436C89.2557 202.158 96.4897 205.264 104.148 206.469C111.806 207.675 119.644 206.942 126.946 204.337C134.248 201.732 140.781 197.339 145.948 191.558L146.88 190.168L147.813 191.711C151.019 196.066 155.251 199.562 160.134 201.887C165.016 204.212 170.397 205.295 175.799 205.039C185.427 204.339 194.399 199.903 200.802 192.678C207.204 185.453 210.529 176.011 210.067 166.368C210.161 158.094 209.233 149.839 207.306 141.791C202.363 119.057 189.18 98.9575 170.298 85.3678C151.416 71.7781 128.173 65.66 105.048 68.193C81.9236 70.726 60.5553 81.7307 45.0623 99.0857C29.5693 116.441 21.0486 138.917 21.1427 162.183C21.4402 186.853 31.2874 210.447 48.615 228.007C65.9427 245.568 89.4018 255.727 114.063 256.351C114.063 256.351 121.043 256.986 128.912 256.805C167.163 256.563 204.55 245.408 236.681 224.65C237.138 224.332 237.595 224.967 237.291 225.43C221.647 242.282 202.519 255.521 181.237 264.224C159.956 272.928 137.033 276.887 114.066 275.826C99.0508 276.099 84.1362 273.327 70.2216 267.677C56.307 262.028 43.6808 253.618 33.1047 242.955C22.5285 232.292 14.2215 219.597 8.68478 205.636C3.14808 191.675 0.49642 176.737 0.889703 161.723C0.89681 143.823 5.07868 126.171 13.1029 110.171C21.1271 94.1706 32.7724 80.2629 47.1133 69.5531C66.3858 55.3603 89.6754 47.6714 113.609 47.6H149.381C163.354 47.5896 177.172 44.6692 189.955 39.025C202.738 33.3807 214.206 25.1361 223.628 14.8163C223.827 14.5953 224.092 14.4441 224.383 14.3847C224.674 14.3218 224.977 14.352 225.25 14.4711C225.523 14.5901 225.751 14.7919 225.903 15.048C226.056 15.3051 226.125 15.6035 226.1 15.9016C224.584 31.9808 219.231 47.4613 210.492 61.0423C210.361 61.2781 210.302 61.5475 210.324 61.8165C210.345 62.0843 210.443 62.3402 210.607 62.5535C210.77 62.7668 210.991 62.9285 211.244 63.0192C211.497 63.1088 211.77 63.1231 212.031 63.0605C228.543 59.3305 243.95 51.7762 257.011 41.0054C270.071 30.2347 280.422 16.5482 287.23 1.04722C287.403 0.770049 287.641 0.539997 287.925 0.37764C288.21 0.216936 288.532 0.132507 288.859 0.132507C289.187 0.132507 289.508 0.216936 289.794 0.37764C290.078 0.539134 290.317 0.769371 290.488 1.04722C304.508 27.9043 309.236 58.6496 303.935 88.4789V88.4789ZM113.971 133.337C108.467 133.336 103.087 134.968 98.5114 138.026C93.9354 141.083 90.3686 145.429 88.2623 150.514C86.1561 155.599 85.6048 161.194 86.6783 166.592C87.7518 171.99 90.4018 176.949 94.2932 180.841C98.1846 184.733 103.143 187.383 108.54 188.457C113.938 189.53 119.532 188.979 124.617 186.872C129.701 184.766 134.046 181.199 137.103 176.622C140.16 172.045 141.792 166.665 141.791 161.161V135.184C141.766 134.687 141.558 134.217 141.206 133.865C140.854 133.513 140.384 133.305 139.887 133.28L113.971 133.337Z" fill="#702AF7"/>
</svg>
