<svg width="352" height="381" viewBox="0 0 352 381" fill="none" xmlns="http://www.w3.org/2000/svg">
<path d="M124.561 82.0605C74.8047 72.998 35.4638 82.4854 19.7851 109.639C8.08591 129.902 11.4258 156.772 27.8906 185.493C28.564 186.668 29.6764 187.527 30.9831 187.881C32.2898 188.235 33.6838 188.056 34.8584 187.383C36.0329 186.709 36.8919 185.597 37.2463 184.29C37.6006 182.984 37.4214 181.59 36.748 180.415C21.914 154.546 19.0234 131.357 28.623 114.741C41.6455 92.1826 76.7334 83.7207 122.729 92.0996C123.393 92.2312 124.077 92.2295 124.74 92.0944C125.403 91.9593 126.033 91.6936 126.593 91.3128C127.152 90.932 127.63 90.4436 127.999 89.8762C128.368 89.3088 128.621 88.6736 128.742 88.0077C128.863 87.3418 128.851 86.6584 128.705 85.9974C128.559 85.3364 128.284 84.7109 127.894 84.1574C127.505 83.6039 127.009 83.1335 126.436 82.7735C125.862 82.4135 125.223 82.1712 124.556 82.0605H124.561ZM53.7646 220.4C73.8818 242.51 100.02 263.247 129.829 280.459C202.002 322.129 278.838 333.267 316.704 307.446C317.811 306.68 318.57 305.506 318.816 304.182C319.062 302.858 318.774 301.491 318.016 300.378C317.257 299.265 316.09 298.497 314.767 298.242C313.445 297.986 312.075 298.264 310.957 299.014C277.065 322.124 204.077 311.543 134.932 271.621C106.011 254.922 80.7031 234.844 61.3135 213.535C60.8661 213.027 60.3221 212.613 59.7131 212.317C59.1042 212.021 58.4424 211.849 57.7664 211.812C57.0904 211.774 56.4137 211.872 55.7757 212.098C55.1377 212.325 54.5512 212.676 54.0503 213.132C53.5494 213.587 53.1442 214.138 52.8583 214.752C52.5723 215.365 52.4114 216.03 52.3848 216.706C52.3582 217.383 52.4665 218.058 52.7034 218.692C52.9403 219.326 53.301 219.907 53.7646 220.4Z" fill="#2DD0ED"/>
<path d="M304.629 214.194C337.207 175.708 348.584 136.997 332.939 109.897C321.426 89.9561 297.085 79.4287 264.741 79.0088C264.071 78.9998 263.406 79.1229 262.783 79.371C262.161 79.6192 261.593 79.9875 261.113 80.455C260.633 80.9224 260.25 81.4799 259.985 82.0955C259.72 82.7112 259.579 83.3729 259.57 84.043C259.561 84.713 259.684 85.3783 259.933 86.0008C260.181 86.6233 260.549 87.1909 261.017 87.671C261.484 88.1512 262.041 88.5346 262.657 88.7993C263.273 89.064 263.934 89.2049 264.605 89.2139C293.696 89.5898 314.668 98.6621 324.102 115C337.095 137.51 326.953 172.031 296.841 207.603C296.393 208.112 296.051 208.705 295.835 209.348C295.619 209.991 295.534 210.671 295.584 211.347C295.633 212.024 295.818 212.683 296.125 213.288C296.433 213.892 296.858 214.429 297.376 214.867C297.894 215.305 298.493 215.636 299.14 215.84C299.787 216.043 300.468 216.116 301.144 216.053C301.819 215.99 302.475 215.794 303.073 215.475C303.672 215.156 304.201 214.72 304.629 214.194V214.194ZM220.903 83.7598C191.445 90.0732 160.093 102.412 129.985 119.795C55.4737 162.813 6.87018 226.24 13.6231 272.236C13.704 272.913 13.9197 273.567 14.2575 274.159C14.5953 274.751 15.0483 275.27 15.5898 275.684C16.1313 276.098 16.7503 276.399 17.4102 276.57C18.0701 276.741 18.7576 276.778 19.432 276.679C20.1065 276.58 20.7542 276.346 21.3369 275.993C21.9197 275.639 22.4257 275.172 22.825 274.62C23.2243 274.067 23.5089 273.44 23.6619 272.776C23.8149 272.112 23.8333 271.423 23.7159 270.752C17.7247 229.917 63.794 169.79 135.083 128.633C164.292 111.768 194.653 99.8242 223.042 93.7354C224.338 93.4255 225.461 92.621 226.172 91.4937C226.883 90.3665 227.124 89.006 226.845 87.703C226.565 86.4001 225.787 85.2582 224.677 84.5213C223.567 83.7844 222.213 83.5111 220.903 83.7598Z" fill="#2DD0ED"/>
<path d="M100.195 304.121C117.236 351.68 145.098 380.967 176.436 380.967C199.287 380.967 220.43 365.391 236.919 337.964C237.289 337.389 237.54 336.747 237.657 336.074C237.773 335.4 237.754 334.711 237.599 334.045C237.444 333.38 237.158 332.752 236.756 332.2C236.354 331.647 235.845 331.181 235.26 330.829C234.674 330.477 234.024 330.246 233.348 330.149C232.671 330.053 231.983 330.094 231.322 330.269C230.662 330.444 230.043 330.749 229.503 331.168C228.963 331.587 228.513 332.109 228.179 332.705C213.359 357.354 195.156 370.767 176.436 370.767C150.41 370.767 125.552 344.644 109.805 300.679C109.589 300.035 109.247 299.44 108.799 298.93C108.351 298.419 107.805 298.004 107.194 297.707C106.583 297.411 105.919 297.239 105.241 297.202C104.562 297.166 103.884 297.265 103.244 297.494C102.605 297.723 102.018 298.078 101.517 298.537C101.016 298.996 100.612 299.55 100.329 300.168C100.045 300.785 99.888 301.453 99.8659 302.131C99.8438 302.81 99.9574 303.487 100.2 304.121H100.195ZM255.791 294.814C264.609 266.641 269.341 234.131 269.341 200.254C269.341 115.732 239.761 42.8662 197.622 24.1553C196.389 23.6289 194.999 23.6089 193.751 24.0995C192.503 24.5902 191.499 25.5522 190.955 26.7775C190.411 28.0028 190.371 29.3929 190.844 30.6474C191.317 31.9019 192.264 32.92 193.481 33.4814C231.064 50.1709 259.141 119.321 259.141 200.254C259.141 233.115 254.551 264.6 246.055 291.768C245.835 292.412 245.747 293.094 245.795 293.773C245.843 294.452 246.027 295.114 246.335 295.721C246.643 296.328 247.07 296.868 247.589 297.307C248.109 297.747 248.711 298.078 249.361 298.281C250.011 298.485 250.695 298.556 251.372 298.491C252.05 298.426 252.708 298.226 253.307 297.903C253.906 297.58 254.434 297.14 254.861 296.61C255.288 296.079 255.604 295.469 255.791 294.814V294.814ZM351.88 289.819C351.88 283.343 349.307 277.132 344.728 272.553C340.148 267.973 333.937 265.4 327.461 265.4C320.985 265.4 314.774 267.973 310.194 272.553C305.615 277.132 303.042 283.343 303.042 289.819C303.042 296.296 305.615 302.507 310.194 307.086C314.774 311.666 320.985 314.238 327.461 314.238C333.937 314.238 340.148 311.666 344.728 307.086C349.307 302.507 351.88 296.296 351.88 289.819ZM341.675 289.819C341.675 293.589 340.177 297.204 337.512 299.87C334.846 302.536 331.231 304.033 327.461 304.033C323.691 304.033 320.076 302.536 317.41 299.87C314.745 297.204 313.247 293.589 313.247 289.819C313.247 286.05 314.745 282.434 317.41 279.769C320.076 277.103 323.691 275.605 327.461 275.605C331.231 275.605 334.846 277.103 337.512 279.769C340.177 282.434 341.675 286.05 341.675 289.819ZM25.0586 314.238C31.5349 314.238 37.746 311.666 42.3254 307.086C46.9048 302.507 49.4775 296.296 49.4775 289.819C49.4775 283.343 46.9048 277.132 42.3254 272.553C37.746 267.973 31.5349 265.4 25.0586 265.4C18.5823 265.4 12.3712 267.973 7.79179 272.553C3.21235 277.132 0.639648 283.343 0.639648 289.819C0.639648 296.296 3.21235 302.507 7.79179 307.086C12.3712 311.666 18.5823 314.238 25.0586 314.238V314.238ZM25.0586 304.033C21.2882 304.033 17.6722 302.535 15.0061 299.869C12.3401 297.203 10.8423 293.587 10.8423 289.817C10.8423 286.047 12.3401 282.431 15.0061 279.764C17.6722 277.098 21.2882 275.601 25.0586 275.601C28.829 275.601 32.445 277.098 35.111 279.764C37.7771 282.431 39.2749 286.047 39.2749 289.817C39.2749 293.587 37.7771 297.203 35.111 299.869C32.445 302.535 28.829 304.033 25.0586 304.033Z" fill="#2DD0ED"/>
<path d="M176.436 49.0625C179.642 49.0625 182.818 48.4309 185.78 47.2037C188.743 45.9766 191.435 44.1779 193.702 41.9104C195.97 39.6429 197.769 36.9509 198.996 33.9883C200.223 31.0256 200.854 27.8503 200.854 24.6436C200.854 21.4368 200.223 18.2615 198.996 15.2988C197.769 12.3362 195.97 9.64426 193.702 7.37675C191.435 5.10924 188.743 3.31056 185.78 2.08339C182.818 0.856224 179.642 0.224609 176.436 0.224609C169.959 0.224609 163.748 2.79731 159.169 7.37675C154.589 11.9562 152.017 18.1672 152.017 24.6436C152.017 31.1199 154.589 37.3309 159.169 41.9104C163.748 46.4898 169.959 49.0625 176.436 49.0625V49.0625ZM176.436 38.8574C174.569 38.8574 172.721 38.4898 170.996 37.7755C169.272 37.0611 167.705 36.0142 166.385 34.6943C165.065 33.3744 164.018 31.8075 163.304 30.083C162.589 28.3585 162.222 26.5101 162.222 24.6436C162.222 22.777 162.589 20.9286 163.304 19.2041C164.018 17.4796 165.065 15.9127 166.385 14.5928C167.705 13.273 169.272 12.226 170.996 11.5117C172.721 10.7973 174.569 10.4297 176.436 10.4297C180.206 10.4297 183.822 11.9275 186.488 14.5935C189.154 17.2596 190.652 20.8756 190.652 24.646C190.652 28.4164 189.154 32.0324 186.488 34.6984C183.822 37.3645 180.206 38.8623 176.436 38.8623V38.8574ZM180.166 217.529C177.898 218.019 175.555 218.057 173.272 217.642C170.989 217.227 168.81 216.366 166.86 215.108C162.921 212.568 160.152 208.568 159.163 203.987C158.173 199.406 159.044 194.619 161.584 190.68C164.124 186.741 168.124 183.973 172.705 182.983C177.255 182.074 181.979 182.99 185.859 185.534C189.739 188.078 192.463 192.045 193.443 196.58C194.422 201.115 193.579 205.854 191.095 209.772C188.611 213.691 184.685 216.475 180.166 217.524V217.529Z" fill="#2DD0ED"/>
</svg>
