<svg width="1997" height="1001" viewBox="0 0 1997 1001" fill="none" xmlns="http://www.w3.org/2000/svg">
<path fill-rule="evenodd" clip-rule="evenodd" d="M1892.38 476.186L1996.9 476.762C1996.9 476.762 1802.58 740.069 1786.72 761.528C1781.56 768.477 1773.74 775.971 1769.77 785.261C1759.73 808.614 1749.42 859.842 1749.42 859.842L1653.79 860.32C1653.79 860.32 1668.68 806.921 1668.06 778.479C1667.52 753.634 1654.84 728.818 1647.72 703.899C1640.53 678.673 1630.77 629.314 1630.77 629.314H1729.09L1742.65 683.557L1892.38 476.186" fill="#1A1918"/>
<path fill-rule="evenodd" clip-rule="evenodd" d="M1694.47 531.718C1713.76 543.345 1725.6 607.489 1725.6 607.489C1725.6 607.489 1624.67 608.977 1569.75 608.977H1522.29L1464.66 859.842H1376.52C1376.52 859.842 1431.37 587.215 1444.32 537.788C1448.52 521.784 1473.07 524.531 1514.53 524.531H1580.74C1623.49 524.531 1673.46 519.071 1694.47 531.718V531.718ZM1284.14 653.896C1284.14 653.896 1286.88 637.794 1274.82 619.145C1264.51 603.249 1254.99 599.55 1227.86 598.701C1151.28 596.296 1152.77 653.047 1152.77 653.047L1284.14 653.896ZM1367.19 588.903C1378.42 629.387 1357.02 724.509 1357.02 724.509C1357.02 724.509 1245.32 722.645 1184.13 724.509C1165.11 725.09 1142.34 722.44 1136.67 731.291C1128.7 743.695 1139.58 762.787 1148.81 770.853C1159.42 780.138 1180.09 781.197 1187.52 782.139C1237.18 788.448 1341.12 783.768 1341.12 783.768L1323.12 863.496C1323.12 863.496 1176.24 870.864 1102.77 853.328C1088.26 849.873 1074.66 842.891 1065.48 832.991C1062.97 830.283 1060.79 826.589 1058.42 823.398C1056.53 820.851 1051 812.483 1048.53 805.867C1031.75 761.153 1050.49 675.492 1068.87 629.587C1071 624.269 1073.68 617.521 1076.5 611.787C1080.02 604.639 1083 596.569 1085.82 592.294C1087.71 589.347 1090.06 587.449 1092.02 584.668C1094.29 581.379 1096.93 578.193 1099.38 575.349C1106.16 567.483 1113.85 561.921 1123.11 555.012C1153.72 532.089 1209.11 514.294 1275.66 521.105C1300.72 523.682 1338.56 532.63 1357.02 558.398C1361.97 565.278 1364.42 578.94 1367.19 588.908V588.903ZM962.928 524.218L1048.39 523.716C1048.39 523.716 1000.76 749.662 976.487 859.842H878.169C809.459 859.842 748.267 868.351 722.231 819.158C696.976 771.394 721.08 692.847 732.4 639.482C740.402 601.716 757.255 524.526 757.255 524.526L845.805 523.716C845.805 523.716 820.784 643.893 810.371 703.899C806.643 725.392 798.954 745.632 806.985 761.524C814.611 776.649 825.292 777.733 857.832 778.479C868.142 778.723 901.907 778.479 901.907 778.479L962.928 524.218V524.218ZM562.897 686.943C571.846 655.15 584.898 620.673 583.239 592.021C581.444 561.379 555.749 533.479 539.169 527.614C489.234 509.985 442.486 534.631 423.905 554.734C399.87 580.77 391.731 611.182 383.222 653.052C376.888 684.133 371.697 716.946 383.222 741.187C403.627 784.042 467.263 774.683 535.778 775.093C545.947 747.837 554.354 717.224 562.897 686.943ZM681.552 561.516C691.311 632.5 653.858 710.852 628.056 778.987C654.365 781.363 677.42 778.621 679.079 780.582C680.806 783.124 661.445 861.911 654.697 862.115C633.818 862.657 564.63 863.233 535.778 863.233C441.632 863.233 353.56 869.366 308.646 822.554C290.407 803.534 277.794 770.916 274.74 747.969C269.656 709.661 276.028 667.485 284.913 632.71C292.95 601.311 303.25 571.684 318.815 544.56C358.376 475.508 427.194 424.251 542.556 436.083C564.932 438.386 597.067 448.184 617.141 459.811C618.526 460.626 623.381 464.491 624.494 465.169C651.618 482.427 676.332 523.613 681.552 561.516V561.516ZM265.011 524.628C259.316 550.562 253.622 579.96 247.621 605.586H152.699C160.052 577.178 165.683 548.937 173.041 524.223C203.414 524.223 231.656 524.628 265.016 524.628H265.011ZM149.308 629.319H240.843C228.875 695.56 205.176 802.412 186.6 876.792C174.973 923.341 167.21 957.306 135.748 981.883C132.933 984.088 131.308 983.039 128.966 985.274C123.169 990.802 96.3524 997.214 81.5096 998.834C57.3716 1001.45 30.0816 999.175 0.415405 998.565C8.17839 970.192 16.9612 936.12 23.88 910.689C96.1914 919.442 98.0211 851.093 112.02 785.261C120.12 747.222 144.667 644.571 149.308 629.319" fill="#1A1918"/>
<path fill-rule="evenodd" clip-rule="evenodd" d="M1180.05 322.264L1178.09 327.348C1144.66 392.438 1085.43 432.37 1000.95 434.132C961.46 434.947 923.831 424.812 899.249 413.795C846.201 389.959 801.58 345.758 777.213 298.531C742.257 230.83 735.953 136.655 808.635 66.3147C809.758 66.3147 799.819 81.5674 800.941 81.5674L798.94 88.0764C746.566 252.051 907.929 392.575 1064.79 376.502C1102.49 372.638 1150.56 351.993 1180.05 322.264Z" fill="#21609B"/>
<path fill-rule="evenodd" clip-rule="evenodd" d="M1085.13 254.461C1124.59 254.729 1165.81 236.285 1190.22 210.391C1168.87 264.6 1107.03 299.443 1024.11 288.362C954.678 279.072 888.539 209.205 881.728 139.197C876.746 88.2471 894.502 57.8392 923.763 20.9517C913.594 40.2445 909.793 55.1215 908.847 64.6117C897.732 174.826 996.889 253.88 1085.13 254.461" fill="#21609B"/>
<path fill-rule="evenodd" clip-rule="evenodd" d="M1186.26 117.567C1180.12 131.639 1144.8 158.212 1129.2 161.534C1067.43 174.694 1027.88 145.403 1007.16 112.073C1004.08 107.096 998.382 93.5022 997.362 90.0428C989.326 62.7187 993.02 21.3909 1016.99 0C1009.77 20.3418 1008.72 43.9675 1012.52 59.3275C1014.82 68.6129 1021.84 84.8268 1028.86 95.0246C1041.63 113.6 1049.74 118.113 1066.15 127.979C1073.54 132.42 1081.47 135.981 1084.89 136.957C1100.45 141.539 1133.3 153.606 1186.26 117.567" fill="#21609B"/>
</svg>
