<svg width="946" height="890" viewBox="0 0 946 890" fill="none" xmlns="http://www.w3.org/2000/svg">
<path d="M233.486 231.885C236.908 226.41 241.358 221.15 247.75 218.57C250.374 218.142 252.998 218.358 255.621 218.358H384.798C381.033 221.362 377.382 224.477 374.873 228.555C368.255 238.755 363.802 250.134 359.696 261.513C348.056 295.871 339.952 331.19 332.077 366.512C328.528 382.513 325.143 398.547 321.923 414.61C312.108 467.002 301.953 519.282 289.286 571.135C283.24 595.078 277.076 619.018 267.72 642.099C263.382 651.656 259.162 661.853 250.832 668.938C248.892 670.551 246.952 672.588 244.21 672.268H130.099C122.339 672.053 114.693 672.696 106.933 671.945C112.07 668.19 116.633 663.678 119.601 658.31C128.159 642.958 133.521 626.319 138.657 609.784C146.647 583.161 153.032 556.214 159.085 529.267C162.851 511.554 167.3 493.945 170.038 476.124C173.12 456.263 177.798 436.617 181.564 416.863C187.498 387.767 193.773 358.676 200.735 329.796C206.326 307.25 212.032 284.809 219.677 262.802C223.446 252.175 227.548 241.654 233.486 231.885V231.885Z" fill="#EB7077" stroke="#EB7077" stroke-width="0.000367187"/>
<path d="M384.805 218.352C388.112 218.352 391.419 218.244 394.73 218.352C402.032 222.002 408.196 227.797 411.618 234.99C416.182 243.15 419.951 251.74 423.369 260.543C434.784 293.716 442.544 327.856 450.304 361.888C456.919 392.378 463.201 422.975 469.132 453.68C469.59 455.29 469.021 457.546 471.301 457.974C463.082 498.34 454.982 538.814 444.713 578.861C439.118 600.44 433.184 621.911 424.744 642.739C420.176 653.151 415.498 664.53 405.798 671.942C399.638 673.228 395.185 668.827 391.423 664.853C384.919 657.017 380.921 647.783 377.041 638.55C364.144 605.488 356.273 571.024 348.288 536.669C342.238 509.934 336.873 482.991 331.282 456.152C328.769 442.513 325.351 429.094 323.411 415.462C323.067 415.247 322.265 414.816 321.925 414.604C325.145 398.54 328.53 382.507 332.08 366.505C339.955 331.183 348.058 295.862 359.699 261.51C363.804 250.127 368.257 238.749 374.875 228.552C377.388 224.47 381.035 221.355 384.801 218.352H384.805Z" fill="#F6A2AD" stroke="#F6A2AD" stroke-width="0.000367187"/>
<path d="M527.548 236.929C531.661 229.524 536.68 221.257 545.582 218.465C590.886 218.25 636.191 218.358 681.491 218.358C677.268 222.328 672.818 226.302 669.962 231.346C661.178 246.163 656.042 262.59 650.794 278.801C637.329 323.461 627.858 369.087 618.841 414.714C610.512 459.701 601.61 504.68 591.455 549.452C586.208 571.994 580.728 594.431 573.769 616.653C569.317 630.396 564.642 644.247 557.336 657.023C553.796 662.819 549.687 669.157 542.958 672.16C499.708 672.484 456.343 672.16 413.097 672.265C410.699 672.265 408.19 672.265 405.792 671.945C415.492 664.54 420.17 653.157 424.737 642.742C433.181 621.917 439.112 600.446 444.707 578.867C454.976 538.82 463.076 498.35 471.295 457.98C481.22 405.911 491.608 353.843 504.844 302.417C511.004 280.195 516.939 257.65 527.552 236.929H527.548Z" fill="#EB7077" stroke="#EB7077" stroke-width="0.000367187"/>
<path d="M681.486 218.352C685.136 218.352 688.902 218.244 692.553 218.352C698.488 221.251 702.711 226.188 706.477 231.232C712.637 240.466 716.517 250.882 720.512 261.079C729.983 288.456 737.059 316.585 743.563 344.711C752.236 382.609 759.767 420.722 767.183 458.832C769.009 467.958 770.834 477.189 771.976 486.426L773.687 488.035C769.582 493.403 767.982 499.845 765.702 505.964C758.511 527.759 753.832 550.304 749.838 572.742C746.759 590.347 742.536 607.848 736.716 624.81C732.381 637.371 727.13 649.824 718.461 660.344C714.348 665.392 708.757 669.255 702.597 671.831C693.126 672.797 687.531 664.21 682.967 657.876C673.496 642.308 668.363 624.918 662.883 607.953C644.854 545.148 633.099 480.842 620.435 416.964C620.391 416.492 620.222 416.038 619.942 415.643C619.662 415.249 619.282 414.927 618.835 414.708C627.852 369.081 637.323 323.455 650.789 278.795C656.036 262.584 661.172 246.157 669.96 231.34C672.813 226.296 677.262 222.322 681.486 218.352V218.352Z" fill="#F6A2AD" stroke="#F6A2AD" stroke-width="0.000367187"/>
<path d="M0.115051 462.591C3.08608 462.376 6.05342 461.948 9.13161 461.948H133.516C138.763 462.591 144.243 462.164 149.265 464.312C156.619 467.156 163.037 471.787 167.864 477.732C168.437 477.409 169.464 476.55 170.033 476.119C167.295 493.94 162.846 511.545 159.08 529.261C153.031 556.208 146.642 583.155 138.652 609.779C133.516 626.313 128.154 642.952 119.596 658.305C116.628 663.672 112.065 668.181 106.928 671.94C104.988 672.263 103.506 670.973 101.906 670.007C96.5442 666.787 93.4623 661.204 90.155 656.159C74.5202 622.663 72.8092 585.623 63.109 550.625C58.2017 533.127 52.1524 515.734 43.2541 499.631C37.774 489.966 31.0448 480.736 22.2574 473.327C15.7536 468.39 8.21887 464.417 0.118747 462.591H0.115051Z" fill="#F6A2AD" stroke="#F6A2AD" stroke-width="0.000367187"/>
<path d="M783.734 473.768C790.922 466.144 801.649 461.315 812.491 461.743H906.064C919.071 461.959 932.194 461.315 945.205 462.066C941.325 464.535 936.646 465.501 932.537 467.542C918.273 473.661 906.064 483.857 898.304 496.634C885.865 517.034 881.527 540.439 877.876 563.412C874.225 585.957 874.34 609.254 866.58 631.156C861.332 646.508 853.343 661.965 839.534 672.058C796.631 672.489 753.721 672.165 710.929 672.273C708.077 672.273 705.338 672.378 702.6 671.842C708.76 669.269 714.351 665.404 718.46 660.356C727.133 649.835 732.384 637.382 736.719 624.822C742.539 607.856 746.763 590.358 749.841 572.753C753.836 550.315 758.514 527.766 765.705 505.975C767.985 499.857 769.585 493.415 773.691 488.047C777.116 483.322 779.396 477.846 783.734 473.768V473.768Z" fill="#EB7077" stroke="#EB7077" stroke-width="0.000367187"/>
</svg>
